<?xml version="1.0" encoding="utf-8" standalone="no"?>
<!DOCTYPE svg PUBLIC "-//W3C//DTD SVG 1.1//EN"
  "http://www.w3.org/Graphics/SVG/1.1/DTD/svg11.dtd">
<svg xmlns:xlink="http://www.w3.org/1999/xlink" width="998.739375pt" height="350.889687pt" viewBox="0 0 998.739375 350.889687" xmlns="http://www.w3.org/2000/svg" version="1.1">
 <metadata>
  <rdf:RDF xmlns:dc="http://purl.org/dc/elements/1.1/" xmlns:cc="http://creativecommons.org/ns#" xmlns:rdf="http://www.w3.org/1999/02/22-rdf-syntax-ns#">
   <cc:Work>
    <dc:type rdf:resource="http://purl.org/dc/dcmitype/StillImage"/>
    <dc:date>2025-12-12T17:27:18.976881</dc:date>
    <dc:format>image/svg+xml</dc:format>
    <dc:creator>
     <cc:Agent>
      <dc:title>Matplotlib v3.10.8, https://matplotlib.org/</dc:title>
     </cc:Agent>
    </dc:creator>
   </cc:Work>
  </rdf:RDF>
 </metadata>
 <defs>
  <style type="text/css">*{stroke-linejoin: round; stroke-linecap: butt}</style>
 </defs>
 <g id="figure_1">
  <g id="patch_1">
   <path d="M 0 350.889687 
L 998.739375 350.889687 
L 998.739375 0 
L 0 0 
z
" style="fill: #ffffff"/>
  </g>
  <g id="axes_1">
   <g id="patch_2">
    <path d="M 48.579375 314.897812 
L 991.539375 314.897812 
L 991.539375 23.837812 
L 48.579375 23.837812 
z
" style="fill: #ffffff"/>
   </g>
   <g id="matplotlib.axis_1">
    <g id="xtick_1">
     <g id="line2d_1">
      <path d="M 91.441193 314.897812 
L 91.441193 23.837812 
" clip-path="url(#p21dee5d561)" style="fill: none; stroke-dasharray: 2.96,1.28; stroke-dashoffset: 0; stroke: #cccccc; stroke-opacity: 0.3; stroke-width: 0.8"/>
     </g>
     <g id="line2d_2"/>
     <g id="text_1">
      <text style="font-size: 10px; font-family: 'Arial', 'DejaVu Sans', 'Helvetica', sans-serif; text-anchor: middle; fill: #262626" x="91.441193" y="325.99625" transform="rotate(-0 91.441193 325.99625)">0.0</text>
     </g>
    </g>
    <g id="xtick_2">
     <g id="line2d_3">
      <path d="M 217.505364 314.897812 
L 217.505364 23.837812 
" clip-path="url(#p21dee5d561)" style="fill: none; stroke-dasharray: 2.96,1.28; stroke-dashoffset: 0; stroke: #cccccc; stroke-opacity: 0.3; stroke-width: 0.8"/>
     </g>
     <g id="line2d_4"/>
     <g id="text_2">
      <text style="font-size: 10px; font-family: 'Arial', 'DejaVu Sans', 'Helvetica', sans-serif; text-anchor: middle; fill: #262626" x="217.505364" y="325.99625" transform="rotate(-0 217.505364 325.99625)">2.5</text>
     </g>
    </g>
    <g id="xtick_3">
     <g id="line2d_5">
      <path d="M 343.569535 314.897812 
L 343.569535 23.837812 
" clip-path="url(#p21dee5d561)" style="fill: none; stroke-dasharray: 2.96,1.28; stroke-dashoffset: 0; stroke: #cccccc; stroke-opacity: 0.3; stroke-width: 0.8"/>
     </g>
     <g id="line2d_6"/>
     <g id="text_3">
      <text style="font-size: 10px; font-family: 'Arial', 'DejaVu Sans', 'Helvetica', sans-serif; text-anchor: middle; fill: #262626" x="343.569535" y="325.99625" transform="rotate(-0 343.569535 325.99625)">5.0</text>
     </g>
    </g>
    <g id="xtick_4">
     <g id="line2d_7">
      <path d="M 469.633707 314.897812 
L 469.633707 23.837812 
" clip-path="url(#p21dee5d561)" style="fill: none; stroke-dasharray: 2.96,1.28; stroke-dashoffset: 0; stroke: #cccccc; stroke-opacity: 0.3; stroke-width: 0.8"/>
     </g>
     <g id="line2d_8"/>
     <g id="text_4">
      <text style="font-size: 10px; font-family: 'Arial', 'DejaVu Sans', 'Helvetica', sans-serif; text-anchor: middle; fill: #262626" x="469.633707" y="325.99625" transform="rotate(-0 469.633707 325.99625)">7.5</text>
     </g>
    </g>
    <g id="xtick_5">
     <g id="line2d_9">
      <path d="M 595.697878 314.897812 
L 595.697878 23.837812 
" clip-path="url(#p21dee5d561)" style="fill: none; stroke-dasharray: 2.96,1.28; stroke-dashoffset: 0; stroke: #cccccc; stroke-opacity: 0.3; stroke-width: 0.8"/>
     </g>
     <g id="line2d_10"/>
     <g id="text_5">
      <text style="font-size: 10px; font-family: 'Arial', 'DejaVu Sans', 'Helvetica', sans-serif; text-anchor: middle; fill: #262626" x="595.697878" y="325.99625" transform="rotate(-0 595.697878 325.99625)">10.0</text>
     </g>
    </g>
    <g id="xtick_6">
     <g id="line2d_11">
      <path d="M 721.762049 314.897812 
L 721.762049 23.837812 
" clip-path="url(#p21dee5d561)" style="fill: none; stroke-dasharray: 2.96,1.28; stroke-dashoffset: 0; stroke: #cccccc; stroke-opacity: 0.3; stroke-width: 0.8"/>
     </g>
     <g id="line2d_12"/>
     <g id="text_6">
      <text style="font-size: 10px; font-family: 'Arial', 'DejaVu Sans', 'Helvetica', sans-serif; text-anchor: middle; fill: #262626" x="721.762049" y="325.99625" transform="rotate(-0 721.762049 325.99625)">12.5</text>
     </g>
    </g>
    <g id="xtick_7">
     <g id="line2d_13">
      <path d="M 847.82622 314.897812 
L 847.82622 23.837812 
" clip-path="url(#p21dee5d561)" style="fill: none; stroke-dasharray: 2.96,1.28; stroke-dashoffset: 0; stroke: #cccccc; stroke-opacity: 0.3; stroke-width: 0.8"/>
     </g>
     <g id="line2d_14"/>
     <g id="text_7">
      <text style="font-size: 10px; font-family: 'Arial', 'DejaVu Sans', 'Helvetica', sans-serif; text-anchor: middle; fill: #262626" x="847.82622" y="325.99625" transform="rotate(-0 847.82622 325.99625)">15.0</text>
     </g>
    </g>
    <g id="xtick_8">
     <g id="line2d_15">
      <path d="M 973.890391 314.897812 
L 973.890391 23.837812 
" clip-path="url(#p21dee5d561)" style="fill: none; stroke-dasharray: 2.96,1.28; stroke-dashoffset: 0; stroke: #cccccc; stroke-opacity: 0.3; stroke-width: 0.8"/>
     </g>
     <g id="line2d_16"/>
     <g id="text_8">
      <text style="font-size: 10px; font-family: 'Arial', 'DejaVu Sans', 'Helvetica', sans-serif; text-anchor: middle; fill: #262626" x="973.890391" y="325.99625" transform="rotate(-0 973.890391 325.99625)">17.5</text>
     </g>
    </g>
    <g id="text_9">
     <text style="font-size: 12px; font-family: 'Arial', 'DejaVu Sans', 'Helvetica', sans-serif; text-anchor: middle; fill: #262626" x="520.059375" y="341.194062" transform="rotate(-0 520.059375 341.194062)">Key Frame Index</text>
    </g>
   </g>
   <g id="matplotlib.axis_2">
    <g id="ytick_1">
     <g id="line2d_17">
      <path d="M 48.579375 280.13979 
L 991.539375 280.13979 
" clip-path="url(#p21dee5d561)" style="fill: none; stroke-dasharray: 2.96,1.28; stroke-dashoffset: 0; stroke: #cccccc; stroke-opacity: 0.3; stroke-width: 0.8"/>
     </g>
     <g id="line2d_18"/>
     <g id="text_10">
      <text style="font-size: 10px; font-family: 'Arial', 'DejaVu Sans', 'Helvetica', sans-serif; text-anchor: end; fill: #262626" x="45.079375" y="283.939009" transform="rotate(-0 45.079375 283.939009)">0.0</text>
     </g>
    </g>
    <g id="ytick_2">
     <g id="line2d_19">
      <path d="M 48.579375 240.18088 
L 991.539375 240.18088 
" clip-path="url(#p21dee5d561)" style="fill: none; stroke-dasharray: 2.96,1.28; stroke-dashoffset: 0; stroke: #cccccc; stroke-opacity: 0.3; stroke-width: 0.8"/>
     </g>
     <g id="line2d_20"/>
     <g id="text_11">
      <text style="font-size: 10px; font-family: 'Arial', 'DejaVu Sans', 'Helvetica', sans-serif; text-anchor: end; fill: #262626" x="45.079375" y="243.980099" transform="rotate(-0 45.079375 243.980099)">2.5</text>
     </g>
    </g>
    <g id="ytick_3">
     <g id="line2d_21">
      <path d="M 48.579375 200.221971 
L 991.539375 200.221971 
" clip-path="url(#p21dee5d561)" style="fill: none; stroke-dasharray: 2.96,1.28; stroke-dashoffset: 0; stroke: #cccccc; stroke-opacity: 0.3; stroke-width: 0.8"/>
     </g>
     <g id="line2d_22"/>
     <g id="text_12">
      <text style="font-size: 10px; font-family: 'Arial', 'DejaVu Sans', 'Helvetica', sans-serif; text-anchor: end; fill: #262626" x="45.079375" y="204.02119" transform="rotate(-0 45.079375 204.02119)">5.0</text>
     </g>
    </g>
    <g id="ytick_4">
     <g id="line2d_23">
      <path d="M 48.579375 160.263061 
L 991.539375 160.263061 
" clip-path="url(#p21dee5d561)" style="fill: none; stroke-dasharray: 2.96,1.28; stroke-dashoffset: 0; stroke: #cccccc; stroke-opacity: 0.3; stroke-width: 0.8"/>
     </g>
     <g id="line2d_24"/>
     <g id="text_13">
      <text style="font-size: 10px; font-family: 'Arial', 'DejaVu Sans', 'Helvetica', sans-serif; text-anchor: end; fill: #262626" x="45.079375" y="164.06228" transform="rotate(-0 45.079375 164.06228)">7.5</text>
     </g>
    </g>
    <g id="ytick_5">
     <g id="line2d_25">
      <path d="M 48.579375 120.304152 
L 991.539375 120.304152 
" clip-path="url(#p21dee5d561)" style="fill: none; stroke-dasharray: 2.96,1.28; stroke-dashoffset: 0; stroke: #cccccc; stroke-opacity: 0.3; stroke-width: 0.8"/>
     </g>
     <g id="line2d_26"/>
     <g id="text_14">
      <text style="font-size: 10px; font-family: 'Arial', 'DejaVu Sans', 'Helvetica', sans-serif; text-anchor: end; fill: #262626" x="45.079375" y="124.103371" transform="rotate(-0 45.079375 124.103371)">10.0</text>
     </g>
    </g>
    <g id="ytick_6">
     <g id="line2d_27">
      <path d="M 48.579375 80.345242 
L 991.539375 80.345242 
" clip-path="url(#p21dee5d561)" style="fill: none; stroke-dasharray: 2.96,1.28; stroke-dashoffset: 0; stroke: #cccccc; stroke-opacity: 0.3; stroke-width: 0.8"/>
     </g>
     <g id="line2d_28"/>
     <g id="text_15">
      <text style="font-size: 10px; font-family: 'Arial', 'DejaVu Sans', 'Helvetica', sans-serif; text-anchor: end; fill: #262626" x="45.079375" y="84.144461" transform="rotate(-0 45.079375 84.144461)">12.5</text>
     </g>
    </g>
    <g id="ytick_7">
     <g id="line2d_29">
      <path d="M 48.579375 40.386333 
L 991.539375 40.386333 
" clip-path="url(#p21dee5d561)" style="fill: none; stroke-dasharray: 2.96,1.28; stroke-dashoffset: 0; stroke: #cccccc; stroke-opacity: 0.3; stroke-width: 0.8"/>
     </g>
     <g id="line2d_30"/>
     <g id="text_16">
      <text style="font-size: 10px; font-family: 'Arial', 'DejaVu Sans', 'Helvetica', sans-serif; text-anchor: end; fill: #262626" x="45.079375" y="44.185552" transform="rotate(-0 45.079375 44.185552)">15.0</text>
     </g>
    </g>
    <g id="text_17">
     <text style="font-size: 12px; font-family: 'Arial', 'DejaVu Sans', 'Helvetica', sans-serif; text-anchor: middle; fill: #262626" x="16.318125" y="169.367812" transform="rotate(-90 16.318125 169.367812)">Mean Attention Weight (Logits)</text>
    </g>
   </g>
   <g id="FillBetweenPolyCollection_1">
    <defs>
     <path id="mcf93485133" d="M 91.441193 -313.821875 
L 91.441193 -72.13569 
L 141.866862 -75.056913 
L 192.29253 -75.955413 
L 242.718199 -74.952806 
L 293.143867 -74.674938 
L 343.569535 -74.679785 
L 393.995204 -74.157716 
L 444.420872 -74.227032 
L 494.846541 -74.501528 
L 545.272209 -74.25291 
L 595.697878 -74.625307 
L 646.123546 -74.40172 
L 696.549215 -73.863493 
L 746.974883 -73.684369 
L 797.400551 -74.320072 
L 847.82622 -74.25234 
L 898.251888 -74.092028 
L 948.677557 -73.927206 
L 948.677557 -309.278457 
L 948.677557 -309.278457 
L 898.251888 -309.260473 
L 847.82622 -308.977961 
L 797.400551 -309.189311 
L 746.974883 -309.325308 
L 696.549215 -309.174279 
L 646.123546 -308.600142 
L 595.697878 -308.764119 
L 545.272209 -308.916442 
L 494.846541 -307.950309 
L 444.420872 -308.462193 
L 393.995204 -307.937821 
L 343.569535 -307.570512 
L 293.143867 -307.473098 
L 242.718199 -305.819905 
L 192.29253 -305.633906 
L 141.866862 -310.822831 
L 91.441193 -313.821875 
z
" style="stroke: #414487; stroke-opacity: 0.2"/>
    </defs>
    <g clip-path="url(#p21dee5d561)">
     <use xlink:href="#mcf93485133" x="0" y="350.889687" style="fill: #414487; fill-opacity: 0.2; stroke: #414487; stroke-opacity: 0.2"/>
    </g>
   </g>
   <g id="FillBetweenPolyCollection_2">
    <defs>
     <path id="m3617e7372e" d="M 91.441193 -172.012025 
L 91.441193 -57.828581 
L 141.866862 -53.423235 
L 192.29253 -51.657636 
L 242.718199 -51.026715 
L 293.143867 -51.032057 
L 343.569535 -51.523516 
L 393.995204 -51.198187 
L 444.420872 -50.997018 
L 494.846541 -50.315235 
L 545.272209 -49.963807 
L 595.697878 -50.743803 
L 646.123546 -50.583429 
L 696.549215 -50.725505 
L 746.974883 -51.264038 
L 797.400551 -50.16381 
L 847.82622 -49.221875 
L 898.251888 -49.542066 
L 948.677557 -49.706549 
L 948.677557 -210.48205 
L 948.677557 -210.48205 
L 898.251888 -211.329687 
L 847.82622 -212.87126 
L 797.400551 -211.485776 
L 746.974883 -204.91837 
L 696.549215 -206.700417 
L 646.123546 -208.929353 
L 595.697878 -208.151408 
L 545.272209 -210.093847 
L 494.846541 -211.400903 
L 444.420872 -208.341079 
L 393.995204 -205.504709 
L 343.569535 -206.175198 
L 293.143867 -207.290477 
L 242.718199 -206.999824 
L 192.29253 -208.579338 
L 141.866862 -205.082689 
L 91.441193 -172.012025 
z
" style="stroke: #7ad151; stroke-opacity: 0.2"/>
    </defs>
    <g clip-path="url(#p21dee5d561)">
     <use xlink:href="#m3617e7372e" x="0" y="350.889687" style="fill: #7ad151; fill-opacity: 0.2; stroke: #7ad151; stroke-opacity: 0.2"/>
    </g>
   </g>
   <g id="line2d_31">
    <path d="M 91.441193 157.910905 
L 141.866862 157.949816 
L 192.29253 160.095028 
L 242.718199 160.503332 
L 293.143867 159.815669 
L 343.569535 159.764539 
L 393.995204 159.841919 
L 444.420872 159.545075 
L 494.846541 159.663769 
L 545.272209 159.305011 
L 595.697878 159.194974 
L 646.123546 159.388756 
L 696.549215 159.370802 
L 746.974883 159.384849 
L 797.400551 159.134996 
L 847.82622 159.274537 
L 898.251888 159.213437 
L 948.677557 159.286856 
" clip-path="url(#p21dee5d561)" style="fill: none; stroke: #414487; stroke-opacity: 0.9; stroke-width: 2; stroke-linecap: round"/>
    <defs>
     <path id="m11fa8c2a34" d="M 0 2.5 
C 0.663008 2.5 1.29895 2.236584 1.767767 1.767767 
C 2.236584 1.29895 2.5 0.663008 2.5 0 
C 2.5 -0.663008 2.236584 -1.29895 1.767767 -1.767767 
C 1.29895 -2.236584 0.663008 -2.5 0 -2.5 
C -0.663008 -2.5 -1.29895 -2.236584 -1.767767 -1.767767 
C -2.236584 -1.29895 -2.5 -0.663008 -2.5 0 
C -2.5 0.663008 -2.236584 1.29895 -1.767767 1.767767 
C -1.29895 2.236584 -0.663008 2.5 0 2.5 
z
" style="stroke: #414487; stroke-opacity: 0.9"/>
    </defs>
    <g clip-path="url(#p21dee5d561)">
     <use xlink:href="#m11fa8c2a34" x="91.441193" y="157.910905" style="fill: #414487; fill-opacity: 0.9; stroke: #414487; stroke-opacity: 0.9"/>
     <use xlink:href="#m11fa8c2a34" x="141.866862" y="157.949816" style="fill: #414487; fill-opacity: 0.9; stroke: #414487; stroke-opacity: 0.9"/>
     <use xlink:href="#m11fa8c2a34" x="192.29253" y="160.095028" style="fill: #414487; fill-opacity: 0.9; stroke: #414487; stroke-opacity: 0.9"/>
     <use xlink:href="#m11fa8c2a34" x="242.718199" y="160.503332" style="fill: #414487; fill-opacity: 0.9; stroke: #414487; stroke-opacity: 0.9"/>
     <use xlink:href="#m11fa8c2a34" x="293.143867" y="159.815669" style="fill: #414487; fill-opacity: 0.9; stroke: #414487; stroke-opacity: 0.9"/>
     <use xlink:href="#m11fa8c2a34" x="343.569535" y="159.764539" style="fill: #414487; fill-opacity: 0.9; stroke: #414487; stroke-opacity: 0.9"/>
     <use xlink:href="#m11fa8c2a34" x="393.995204" y="159.841919" style="fill: #414487; fill-opacity: 0.9; stroke: #414487; stroke-opacity: 0.9"/>
     <use xlink:href="#m11fa8c2a34" x="444.420872" y="159.545075" style="fill: #414487; fill-opacity: 0.9; stroke: #414487; stroke-opacity: 0.9"/>
     <use xlink:href="#m11fa8c2a34" x="494.846541" y="159.663769" style="fill: #414487; fill-opacity: 0.9; stroke: #414487; stroke-opacity: 0.9"/>
     <use xlink:href="#m11fa8c2a34" x="545.272209" y="159.305011" style="fill: #414487; fill-opacity: 0.9; stroke: #414487; stroke-opacity: 0.9"/>
     <use xlink:href="#m11fa8c2a34" x="595.697878" y="159.194974" style="fill: #414487; fill-opacity: 0.9; stroke: #414487; stroke-opacity: 0.9"/>
     <use xlink:href="#m11fa8c2a34" x="646.123546" y="159.388756" style="fill: #414487; fill-opacity: 0.9; stroke: #414487; stroke-opacity: 0.9"/>
     <use xlink:href="#m11fa8c2a34" x="696.549215" y="159.370802" style="fill: #414487; fill-opacity: 0.9; stroke: #414487; stroke-opacity: 0.9"/>
     <use xlink:href="#m11fa8c2a34" x="746.974883" y="159.384849" style="fill: #414487; fill-opacity: 0.9; stroke: #414487; stroke-opacity: 0.9"/>
     <use xlink:href="#m11fa8c2a34" x="797.400551" y="159.134996" style="fill: #414487; fill-opacity: 0.9; stroke: #414487; stroke-opacity: 0.9"/>
     <use xlink:href="#m11fa8c2a34" x="847.82622" y="159.274537" style="fill: #414487; fill-opacity: 0.9; stroke: #414487; stroke-opacity: 0.9"/>
     <use xlink:href="#m11fa8c2a34" x="898.251888" y="159.213437" style="fill: #414487; fill-opacity: 0.9; stroke: #414487; stroke-opacity: 0.9"/>
     <use xlink:href="#m11fa8c2a34" x="948.677557" y="159.286856" style="fill: #414487; fill-opacity: 0.9; stroke: #414487; stroke-opacity: 0.9"/>
    </g>
   </g>
   <g id="line2d_32">
    <path d="M 91.441193 235.969384 
L 141.866862 221.636726 
L 192.29253 220.771201 
L 242.718199 221.876418 
L 293.143867 221.728421 
L 343.569535 222.04033 
L 393.995204 222.538239 
L 444.420872 221.220639 
L 494.846541 220.031618 
L 545.272209 220.86086 
L 595.697878 221.442082 
L 646.123546 221.133297 
L 696.549215 222.176727 
L 746.974883 222.798484 
L 797.400551 220.064894 
L 847.82622 219.84312 
L 898.251888 220.453811 
L 948.677557 220.795388 
" clip-path="url(#p21dee5d561)" style="fill: none; stroke: #7ad151; stroke-opacity: 0.9; stroke-width: 2; stroke-linecap: round"/>
    <defs>
     <path id="ma32480a630" d="M 0 2.5 
C 0.663008 2.5 1.29895 2.236584 1.767767 1.767767 
C 2.236584 1.29895 2.5 0.663008 2.5 0 
C 2.5 -0.663008 2.236584 -1.29895 1.767767 -1.767767 
C 1.29895 -2.236584 0.663008 -2.5 0 -2.5 
C -0.663008 -2.5 -1.29895 -2.236584 -1.767767 -1.767767 
C -2.236584 -1.29895 -2.5 -0.663008 -2.5 0 
C -2.5 0.663008 -2.236584 1.29895 -1.767767 1.767767 
C -1.29895 2.236584 -0.663008 2.5 0 2.5 
z
" style="stroke: #7ad151; stroke-opacity: 0.9"/>
    </defs>
    <g clip-path="url(#p21dee5d561)">
     <use xlink:href="#ma32480a630" x="91.441193" y="235.969384" style="fill: #7ad151; fill-opacity: 0.9; stroke: #7ad151; stroke-opacity: 0.9"/>
     <use xlink:href="#ma32480a630" x="141.866862" y="221.636726" style="fill: #7ad151; fill-opacity: 0.9; stroke: #7ad151; stroke-opacity: 0.9"/>
     <use xlink:href="#ma32480a630" x="192.29253" y="220.771201" style="fill: #7ad151; fill-opacity: 0.9; stroke: #7ad151; stroke-opacity: 0.9"/>
     <use xlink:href="#ma32480a630" x="242.718199" y="221.876418" style="fill: #7ad151; fill-opacity: 0.9; stroke: #7ad151; stroke-opacity: 0.9"/>
     <use xlink:href="#ma32480a630" x="293.143867" y="221.728421" style="fill: #7ad151; fill-opacity: 0.9; stroke: #7ad151; stroke-opacity: 0.9"/>
     <use xlink:href="#ma32480a630" x="343.569535" y="222.04033" style="fill: #7ad151; fill-opacity: 0.9; stroke: #7ad151; stroke-opacity: 0.9"/>
     <use xlink:href="#ma32480a630" x="393.995204" y="222.538239" style="fill: #7ad151; fill-opacity: 0.9; stroke: #7ad151; stroke-opacity: 0.9"/>
     <use xlink:href="#ma32480a630" x="444.420872" y="221.220639" style="fill: #7ad151; fill-opacity: 0.9; stroke: #7ad151; stroke-opacity: 0.9"/>
     <use xlink:href="#ma32480a630" x="494.846541" y="220.031618" style="fill: #7ad151; fill-opacity: 0.9; stroke: #7ad151; stroke-opacity: 0.9"/>
     <use xlink:href="#ma32480a630" x="545.272209" y="220.86086" style="fill: #7ad151; fill-opacity: 0.9; stroke: #7ad151; stroke-opacity: 0.9"/>
     <use xlink:href="#ma32480a630" x="595.697878" y="221.442082" style="fill: #7ad151; fill-opacity: 0.9; stroke: #7ad151; stroke-opacity: 0.9"/>
     <use xlink:href="#ma32480a630" x="646.123546" y="221.133297" style="fill: #7ad151; fill-opacity: 0.9; stroke: #7ad151; stroke-opacity: 0.9"/>
     <use xlink:href="#ma32480a630" x="696.549215" y="222.176727" style="fill: #7ad151; fill-opacity: 0.9; stroke: #7ad151; stroke-opacity: 0.9"/>
     <use xlink:href="#ma32480a630" x="746.974883" y="222.798484" style="fill: #7ad151; fill-opacity: 0.9; stroke: #7ad151; stroke-opacity: 0.9"/>
     <use xlink:href="#ma32480a630" x="797.400551" y="220.064894" style="fill: #7ad151; fill-opacity: 0.9; stroke: #7ad151; stroke-opacity: 0.9"/>
     <use xlink:href="#ma32480a630" x="847.82622" y="219.84312" style="fill: #7ad151; fill-opacity: 0.9; stroke: #7ad151; stroke-opacity: 0.9"/>
     <use xlink:href="#ma32480a630" x="898.251888" y="220.453811" style="fill: #7ad151; fill-opacity: 0.9; stroke: #7ad151; stroke-opacity: 0.9"/>
     <use xlink:href="#ma32480a630" x="948.677557" y="220.795388" style="fill: #7ad151; fill-opacity: 0.9; stroke: #7ad151; stroke-opacity: 0.9"/>
    </g>
   </g>
   <g id="patch_3">
    <path d="M 48.579375 314.897812 
L 48.579375 23.837812 
" style="fill: none; stroke: #cccccc; stroke-linejoin: miter; stroke-linecap: square"/>
   </g>
   <g id="patch_4">
    <path d="M 991.539375 314.897812 
L 991.539375 23.837812 
" style="fill: none; stroke: #cccccc; stroke-linejoin: miter; stroke-linecap: square"/>
   </g>
   <g id="patch_5">
    <path d="M 48.579375 314.897812 
L 991.539375 314.897812 
" style="fill: none; stroke: #cccccc; stroke-linejoin: miter; stroke-linecap: square"/>
   </g>
   <g id="patch_6">
    <path d="M 48.579375 23.837812 
L 991.539375 23.837812 
" style="fill: none; stroke: #cccccc; stroke-linejoin: miter; stroke-linecap: square"/>
   </g>
   <g id="text_18">
    <text style="font-weight: 700; font-size: 14px; font-family: 'Arial', 'DejaVu Sans', 'Helvetica', sans-serif; text-anchor: middle; fill: #262626" x="520.059375" y="17.837812" transform="rotate(-0 520.059375 17.837812)">Cross-Layer Head-Averaged Attention Distribution</text>
   </g>
   <g id="legend_1">
    <g id="line2d_33">
     <path d="M 917.115938 285.64 
L 927.115938 285.64 
L 937.115938 285.64 
" style="fill: none; stroke: #414487; stroke-opacity: 0.9; stroke-width: 2; stroke-linecap: round"/>
     <g>
      <use xlink:href="#m11fa8c2a34" x="927.115938" y="285.64" style="fill: #414487; fill-opacity: 0.9; stroke: #414487; stroke-opacity: 0.9"/>
     </g>
    </g>
    <g id="text_19">
     <text style="font-size: 10px; font-family: 'Arial', 'DejaVu Sans', 'Helvetica', sans-serif; text-anchor: start; fill: #262626" x="945.115938" y="289.14" transform="rotate(-0 945.115938 289.14)">Layer 1</text>
    </g>
    <g id="line2d_34">
     <path d="M 917.115938 300.318125 
L 927.115938 300.318125 
L 937.115938 300.318125 
" style="fill: none; stroke: #7ad151; stroke-opacity: 0.9; stroke-width: 2; stroke-linecap: round"/>
     <g>
      <use xlink:href="#ma32480a630" x="927.115938" y="300.318125" style="fill: #7ad151; fill-opacity: 0.9; stroke: #7ad151; stroke-opacity: 0.9"/>
     </g>
    </g>
    <g id="text_20">
     <text style="font-size: 10px; font-family: 'Arial', 'DejaVu Sans', 'Helvetica', sans-serif; text-anchor: start; fill: #262626" x="945.115938" y="303.818125" transform="rotate(-0 945.115938 303.818125)">Layer 5</text>
    </g>
   </g>
  </g>
 </g>
 <defs>
  <clipPath id="p21dee5d561">
   <rect x="48.579375" y="23.837812" width="942.96" height="291.06"/>
  </clipPath>
 </defs>
</svg>
