<?xml version="1.0" encoding="utf-8" standalone="no"?>
<!DOCTYPE svg PUBLIC "-//W3C//DTD SVG 1.1//EN"
  "http://www.w3.org/Graphics/SVG/1.1/DTD/svg11.dtd">
<svg xmlns:xlink="http://www.w3.org/1999/xlink" width="998.681875pt" height="350.889687pt" viewBox="0 0 998.681875 350.889687" xmlns="http://www.w3.org/2000/svg" version="1.1">
 <metadata>
  <rdf:RDF xmlns:dc="http://purl.org/dc/elements/1.1/" xmlns:cc="http://creativecommons.org/ns#" xmlns:rdf="http://www.w3.org/1999/02/22-rdf-syntax-ns#">
   <cc:Work>
    <dc:type rdf:resource="http://purl.org/dc/dcmitype/StillImage"/>
    <dc:date>2025-12-11T20:21:56.087214</dc:date>
    <dc:format>image/svg+xml</dc:format>
    <dc:creator>
     <cc:Agent>
      <dc:title>Self-Forcing Figure 4 Reproduction</dc:title>
     </cc:Agent>
    </dc:creator>
   </cc:Work>
  </rdf:RDF>
 </metadata>
 <defs>
  <style type="text/css">*{stroke-linejoin: round; stroke-linecap: butt}</style>
 </defs>
 <g id="figure_1">
  <g id="patch_1">
   <path d="M 0 350.889687 
L 998.681875 350.889687 
L 998.681875 0 
L 0 0 
z
" style="fill: #ffffff"/>
  </g>
  <g id="axes_1">
   <g id="patch_2">
    <path d="M 54.941875 314.897812 
L 991.481875 314.897812 
L 991.481875 23.837812 
L 54.941875 23.837812 
z
" style="fill: #ffffff"/>
   </g>
   <g id="matplotlib.axis_1">
    <g id="xtick_1">
     <g id="line2d_1">
      <path d="M 97.511875 314.897812 
L 97.511875 23.837812 
" clip-path="url(#p762452dece)" style="fill: none; stroke-dasharray: 2.96,1.28; stroke-dashoffset: 0; stroke: #cccccc; stroke-opacity: 0.3; stroke-width: 0.8"/>
     </g>
     <g id="line2d_2"/>
     <g id="text_1">
      <text style="font-size: 10px; font-family: 'Arial', 'DejaVu Sans', 'Helvetica', sans-serif; text-anchor: middle; fill: #262626" x="97.511875" y="325.99625" transform="rotate(-0 97.511875 325.99625)">0.0</text>
     </g>
    </g>
    <g id="xtick_2">
     <g id="line2d_3">
      <path d="M 203.936875 314.897812 
L 203.936875 23.837812 
" clip-path="url(#p762452dece)" style="fill: none; stroke-dasharray: 2.96,1.28; stroke-dashoffset: 0; stroke: #cccccc; stroke-opacity: 0.3; stroke-width: 0.8"/>
     </g>
     <g id="line2d_4"/>
     <g id="text_2">
      <text style="font-size: 10px; font-family: 'Arial', 'DejaVu Sans', 'Helvetica', sans-serif; text-anchor: middle; fill: #262626" x="203.936875" y="325.99625" transform="rotate(-0 203.936875 325.99625)">2.5</text>
     </g>
    </g>
    <g id="xtick_3">
     <g id="line2d_5">
      <path d="M 310.361875 314.897812 
L 310.361875 23.837812 
" clip-path="url(#p762452dece)" style="fill: none; stroke-dasharray: 2.96,1.28; stroke-dashoffset: 0; stroke: #cccccc; stroke-opacity: 0.3; stroke-width: 0.8"/>
     </g>
     <g id="line2d_6"/>
     <g id="text_3">
      <text style="font-size: 10px; font-family: 'Arial', 'DejaVu Sans', 'Helvetica', sans-serif; text-anchor: middle; fill: #262626" x="310.361875" y="325.99625" transform="rotate(-0 310.361875 325.99625)">5.0</text>
     </g>
    </g>
    <g id="xtick_4">
     <g id="line2d_7">
      <path d="M 416.786875 314.897812 
L 416.786875 23.837812 
" clip-path="url(#p762452dece)" style="fill: none; stroke-dasharray: 2.96,1.28; stroke-dashoffset: 0; stroke: #cccccc; stroke-opacity: 0.3; stroke-width: 0.8"/>
     </g>
     <g id="line2d_8"/>
     <g id="text_4">
      <text style="font-size: 10px; font-family: 'Arial', 'DejaVu Sans', 'Helvetica', sans-serif; text-anchor: middle; fill: #262626" x="416.786875" y="325.99625" transform="rotate(-0 416.786875 325.99625)">7.5</text>
     </g>
    </g>
    <g id="xtick_5">
     <g id="line2d_9">
      <path d="M 523.211875 314.897812 
L 523.211875 23.837812 
" clip-path="url(#p762452dece)" style="fill: none; stroke-dasharray: 2.96,1.28; stroke-dashoffset: 0; stroke: #cccccc; stroke-opacity: 0.3; stroke-width: 0.8"/>
     </g>
     <g id="line2d_10"/>
     <g id="text_5">
      <text style="font-size: 10px; font-family: 'Arial', 'DejaVu Sans', 'Helvetica', sans-serif; text-anchor: middle; fill: #262626" x="523.211875" y="325.99625" transform="rotate(-0 523.211875 325.99625)">10.0</text>
     </g>
    </g>
    <g id="xtick_6">
     <g id="line2d_11">
      <path d="M 629.636875 314.897812 
L 629.636875 23.837812 
" clip-path="url(#p762452dece)" style="fill: none; stroke-dasharray: 2.96,1.28; stroke-dashoffset: 0; stroke: #cccccc; stroke-opacity: 0.3; stroke-width: 0.8"/>
     </g>
     <g id="line2d_12"/>
     <g id="text_6">
      <text style="font-size: 10px; font-family: 'Arial', 'DejaVu Sans', 'Helvetica', sans-serif; text-anchor: middle; fill: #262626" x="629.636875" y="325.99625" transform="rotate(-0 629.636875 325.99625)">12.5</text>
     </g>
    </g>
    <g id="xtick_7">
     <g id="line2d_13">
      <path d="M 736.061875 314.897812 
L 736.061875 23.837812 
" clip-path="url(#p762452dece)" style="fill: none; stroke-dasharray: 2.96,1.28; stroke-dashoffset: 0; stroke: #cccccc; stroke-opacity: 0.3; stroke-width: 0.8"/>
     </g>
     <g id="line2d_14"/>
     <g id="text_7">
      <text style="font-size: 10px; font-family: 'Arial', 'DejaVu Sans', 'Helvetica', sans-serif; text-anchor: middle; fill: #262626" x="736.061875" y="325.99625" transform="rotate(-0 736.061875 325.99625)">15.0</text>
     </g>
    </g>
    <g id="xtick_8">
     <g id="line2d_15">
      <path d="M 842.486875 314.897812 
L 842.486875 23.837812 
" clip-path="url(#p762452dece)" style="fill: none; stroke-dasharray: 2.96,1.28; stroke-dashoffset: 0; stroke: #cccccc; stroke-opacity: 0.3; stroke-width: 0.8"/>
     </g>
     <g id="line2d_16"/>
     <g id="text_8">
      <text style="font-size: 10px; font-family: 'Arial', 'DejaVu Sans', 'Helvetica', sans-serif; text-anchor: middle; fill: #262626" x="842.486875" y="325.99625" transform="rotate(-0 842.486875 325.99625)">17.5</text>
     </g>
    </g>
    <g id="xtick_9">
     <g id="line2d_17">
      <path d="M 948.911875 314.897812 
L 948.911875 23.837812 
" clip-path="url(#p762452dece)" style="fill: none; stroke-dasharray: 2.96,1.28; stroke-dashoffset: 0; stroke: #cccccc; stroke-opacity: 0.3; stroke-width: 0.8"/>
     </g>
     <g id="line2d_18"/>
     <g id="text_9">
      <text style="font-size: 10px; font-family: 'Arial', 'DejaVu Sans', 'Helvetica', sans-serif; text-anchor: middle; fill: #262626" x="948.911875" y="325.99625" transform="rotate(-0 948.911875 325.99625)">20.0</text>
     </g>
    </g>
    <g id="text_10">
     <text style="font-size: 12px; font-family: 'Arial', 'DejaVu Sans', 'Helvetica', sans-serif; text-anchor: middle; fill: #262626" x="523.211875" y="341.194062" transform="rotate(-0 523.211875 341.194062)">Key Frame Index</text>
    </g>
   </g>
   <g id="matplotlib.axis_2">
    <g id="ytick_1">
     <g id="line2d_19">
      <path d="M 54.941875 304.768998 
L 991.481875 304.768998 
" clip-path="url(#p762452dece)" style="fill: none; stroke-dasharray: 2.96,1.28; stroke-dashoffset: 0; stroke: #cccccc; stroke-opacity: 0.3; stroke-width: 0.8"/>
     </g>
     <g id="line2d_20"/>
     <g id="text_11">
      <text style="font-size: 10px; font-family: 'Arial', 'DejaVu Sans', 'Helvetica', sans-serif; text-anchor: end; fill: #262626" x="51.441875" y="308.568217" transform="rotate(-0 51.441875 308.568217)">0.045</text>
     </g>
    </g>
    <g id="ytick_2">
     <g id="line2d_21">
      <path d="M 54.941875 251.742027 
L 991.481875 251.742027 
" clip-path="url(#p762452dece)" style="fill: none; stroke-dasharray: 2.96,1.28; stroke-dashoffset: 0; stroke: #cccccc; stroke-opacity: 0.3; stroke-width: 0.8"/>
     </g>
     <g id="line2d_22"/>
     <g id="text_12">
      <text style="font-size: 10px; font-family: 'Arial', 'DejaVu Sans', 'Helvetica', sans-serif; text-anchor: end; fill: #262626" x="51.441875" y="255.541246" transform="rotate(-0 51.441875 255.541246)">0.046</text>
     </g>
    </g>
    <g id="ytick_3">
     <g id="line2d_23">
      <path d="M 54.941875 198.715057 
L 991.481875 198.715057 
" clip-path="url(#p762452dece)" style="fill: none; stroke-dasharray: 2.96,1.28; stroke-dashoffset: 0; stroke: #cccccc; stroke-opacity: 0.3; stroke-width: 0.8"/>
     </g>
     <g id="line2d_24"/>
     <g id="text_13">
      <text style="font-size: 10px; font-family: 'Arial', 'DejaVu Sans', 'Helvetica', sans-serif; text-anchor: end; fill: #262626" x="51.441875" y="202.514275" transform="rotate(-0 51.441875 202.514275)">0.047</text>
     </g>
    </g>
    <g id="ytick_4">
     <g id="line2d_25">
      <path d="M 54.941875 145.688086 
L 991.481875 145.688086 
" clip-path="url(#p762452dece)" style="fill: none; stroke-dasharray: 2.96,1.28; stroke-dashoffset: 0; stroke: #cccccc; stroke-opacity: 0.3; stroke-width: 0.8"/>
     </g>
     <g id="line2d_26"/>
     <g id="text_14">
      <text style="font-size: 10px; font-family: 'Arial', 'DejaVu Sans', 'Helvetica', sans-serif; text-anchor: end; fill: #262626" x="51.441875" y="149.487305" transform="rotate(-0 51.441875 149.487305)">0.048</text>
     </g>
    </g>
    <g id="ytick_5">
     <g id="line2d_27">
      <path d="M 54.941875 92.661116 
L 991.481875 92.661116 
" clip-path="url(#p762452dece)" style="fill: none; stroke-dasharray: 2.96,1.28; stroke-dashoffset: 0; stroke: #cccccc; stroke-opacity: 0.3; stroke-width: 0.8"/>
     </g>
     <g id="line2d_28"/>
     <g id="text_15">
      <text style="font-size: 10px; font-family: 'Arial', 'DejaVu Sans', 'Helvetica', sans-serif; text-anchor: end; fill: #262626" x="51.441875" y="96.460334" transform="rotate(-0 51.441875 96.460334)">0.049</text>
     </g>
    </g>
    <g id="ytick_6">
     <g id="line2d_29">
      <path d="M 54.941875 39.634145 
L 991.481875 39.634145 
" clip-path="url(#p762452dece)" style="fill: none; stroke-dasharray: 2.96,1.28; stroke-dashoffset: 0; stroke: #cccccc; stroke-opacity: 0.3; stroke-width: 0.8"/>
     </g>
     <g id="line2d_30"/>
     <g id="text_16">
      <text style="font-size: 10px; font-family: 'Arial', 'DejaVu Sans', 'Helvetica', sans-serif; text-anchor: end; fill: #262626" x="51.441875" y="43.433364" transform="rotate(-0 51.441875 43.433364)">0.050</text>
     </g>
    </g>
    <g id="text_17">
     <text style="font-size: 12px; font-family: 'Arial', 'DejaVu Sans', 'Helvetica', sans-serif; text-anchor: middle; fill: #262626" x="16.318125" y="169.367812" transform="rotate(-90 16.318125 169.367812)">Mean Attention Weight</text>
    </g>
   </g>
   <g id="FillBetweenPolyCollection_1">
    <defs>
     <path id="m42b41acfa2" d="M 97.511875 -217.273856 
L 97.511875 -142.8292 
L 140.081875 -191.354947 
L 182.651875 -133.387855 
L 225.221875 -154.192543 
L 267.791875 -168.424234 
L 310.361875 -141.336249 
L 352.931875 -102.011594 
L 395.501875 -150.62941 
L 438.071875 -137.292845 
L 480.641875 -139.369894 
L 523.211875 -178.782276 
L 565.781875 -144.58272 
L 608.351875 -138.858914 
L 650.921875 -161.71238 
L 693.491875 -92.261436 
L 736.061875 -155.42472 
L 778.631875 -89.006004 
L 821.201875 -165.914323 
L 863.771875 -109.559729 
L 906.341875 -130.293805 
L 948.911875 -139.329655 
L 948.911875 -222.854395 
L 948.911875 -222.854395 
L 906.341875 -240.549349 
L 863.771875 -228.39768 
L 821.201875 -275.456417 
L 778.631875 -225.340696 
L 736.061875 -222.779532 
L 693.491875 -201.407115 
L 650.921875 -242.464214 
L 608.351875 -239.417473 
L 565.781875 -206.800981 
L 523.211875 -297.940837 
L 480.641875 -229.873937 
L 438.071875 -205.028175 
L 395.501875 -210.680621 
L 352.931875 -208.195275 
L 310.361875 -210.404375 
L 267.791875 -240.280293 
L 225.221875 -214.202521 
L 182.651875 -216.010956 
L 140.081875 -248.121705 
L 97.511875 -217.273856 
z
" style="stroke: #440154; stroke-opacity: 0.2"/>
    </defs>
    <g clip-path="url(#p762452dece)">
     <use xlink:href="#m42b41acfa2" x="0" y="350.889687" style="fill: #440154; fill-opacity: 0.2; stroke: #440154; stroke-opacity: 0.2"/>
    </g>
   </g>
   <g id="FillBetweenPolyCollection_2">
    <defs>
     <path id="mc08c4b408a" d="M 97.511875 -242.77418 
L 97.511875 -147.370231 
L 140.081875 -161.813798 
L 182.651875 -174.82543 
L 225.221875 -122.971663 
L 267.791875 -82.580375 
L 310.361875 -102.336641 
L 352.931875 -136.253129 
L 395.501875 -137.162147 
L 438.071875 -136.137868 
L 480.641875 -169.220785 
L 523.211875 -125.791671 
L 565.781875 -123.484206 
L 608.351875 -102.904617 
L 650.921875 -128.534852 
L 693.491875 -132.454668 
L 736.061875 -182.826632 
L 778.631875 -49.221875 
L 821.201875 -95.555524 
L 863.771875 -131.307907 
L 906.341875 -178.640247 
L 948.911875 -98.692802 
L 948.911875 -217.169793 
L 948.911875 -217.169793 
L 906.341875 -252.29859 
L 863.771875 -217.213888 
L 821.201875 -250.284654 
L 778.631875 -196.422419 
L 736.061875 -278.947379 
L 693.491875 -244.700543 
L 650.921875 -235.240884 
L 608.351875 -207.184122 
L 565.781875 -214.917769 
L 523.211875 -312.945026 
L 480.641875 -211.705382 
L 438.071875 -245.159544 
L 395.501875 -238.496231 
L 352.931875 -230.008131 
L 310.361875 -224.00148 
L 267.791875 -189.562642 
L 225.221875 -263.06752 
L 182.651875 -313.821875 
L 140.081875 -263.903047 
L 97.511875 -242.77418 
z
" style="stroke: #fde725; stroke-opacity: 0.2"/>
    </defs>
    <g clip-path="url(#p762452dece)">
     <use xlink:href="#mc08c4b408a" x="0" y="350.889687" style="fill: #fde725; fill-opacity: 0.2; stroke: #fde725; stroke-opacity: 0.2"/>
    </g>
   </g>
   <g id="line2d_31">
    <path d="M 97.511875 170.83816 
L 140.081875 131.151361 
L 182.651875 176.190282 
L 225.221875 166.692156 
L 267.791875 146.537424 
L 310.361875 175.019375 
L 352.931875 195.786253 
L 395.501875 170.234672 
L 438.071875 179.729177 
L 480.641875 166.267772 
L 523.211875 112.528131 
L 565.781875 175.197837 
L 608.351875 161.751494 
L 650.921875 148.80139 
L 693.491875 204.055412 
L 736.061875 161.787562 
L 778.631875 193.716338 
L 821.201875 130.204318 
L 863.771875 181.910983 
L 906.341875 165.46811 
L 948.911875 169.797662 
" clip-path="url(#p762452dece)" style="fill: none; stroke: #440154; stroke-opacity: 0.8; stroke-width: 2; stroke-linecap: round"/>
    <defs>
     <path id="me7a2b0d976" d="M 0 2.5 
C 0.663008 2.5 1.29895 2.236584 1.767767 1.767767 
C 2.236584 1.29895 2.5 0.663008 2.5 0 
C 2.5 -0.663008 2.236584 -1.29895 1.767767 -1.767767 
C 1.29895 -2.236584 0.663008 -2.5 0 -2.5 
C -0.663008 -2.5 -1.29895 -2.236584 -1.767767 -1.767767 
C -2.236584 -1.29895 -2.5 -0.663008 -2.5 0 
C -2.5 0.663008 -2.236584 1.29895 -1.767767 1.767767 
C -1.29895 2.236584 -0.663008 2.5 0 2.5 
z
" style="stroke: #440154; stroke-opacity: 0.8"/>
    </defs>
    <g clip-path="url(#p762452dece)">
     <use xlink:href="#me7a2b0d976" x="97.511875" y="170.83816" style="fill: #440154; fill-opacity: 0.8; stroke: #440154; stroke-opacity: 0.8"/>
     <use xlink:href="#me7a2b0d976" x="140.081875" y="131.151361" style="fill: #440154; fill-opacity: 0.8; stroke: #440154; stroke-opacity: 0.8"/>
     <use xlink:href="#me7a2b0d976" x="182.651875" y="176.190282" style="fill: #440154; fill-opacity: 0.8; stroke: #440154; stroke-opacity: 0.8"/>
     <use xlink:href="#me7a2b0d976" x="225.221875" y="166.692156" style="fill: #440154; fill-opacity: 0.8; stroke: #440154; stroke-opacity: 0.8"/>
     <use xlink:href="#me7a2b0d976" x="267.791875" y="146.537424" style="fill: #440154; fill-opacity: 0.8; stroke: #440154; stroke-opacity: 0.8"/>
     <use xlink:href="#me7a2b0d976" x="310.361875" y="175.019375" style="fill: #440154; fill-opacity: 0.8; stroke: #440154; stroke-opacity: 0.8"/>
     <use xlink:href="#me7a2b0d976" x="352.931875" y="195.786253" style="fill: #440154; fill-opacity: 0.8; stroke: #440154; stroke-opacity: 0.8"/>
     <use xlink:href="#me7a2b0d976" x="395.501875" y="170.234672" style="fill: #440154; fill-opacity: 0.8; stroke: #440154; stroke-opacity: 0.8"/>
     <use xlink:href="#me7a2b0d976" x="438.071875" y="179.729177" style="fill: #440154; fill-opacity: 0.8; stroke: #440154; stroke-opacity: 0.8"/>
     <use xlink:href="#me7a2b0d976" x="480.641875" y="166.267772" style="fill: #440154; fill-opacity: 0.8; stroke: #440154; stroke-opacity: 0.8"/>
     <use xlink:href="#me7a2b0d976" x="523.211875" y="112.528131" style="fill: #440154; fill-opacity: 0.8; stroke: #440154; stroke-opacity: 0.8"/>
     <use xlink:href="#me7a2b0d976" x="565.781875" y="175.197837" style="fill: #440154; fill-opacity: 0.8; stroke: #440154; stroke-opacity: 0.8"/>
     <use xlink:href="#me7a2b0d976" x="608.351875" y="161.751494" style="fill: #440154; fill-opacity: 0.8; stroke: #440154; stroke-opacity: 0.8"/>
     <use xlink:href="#me7a2b0d976" x="650.921875" y="148.80139" style="fill: #440154; fill-opacity: 0.8; stroke: #440154; stroke-opacity: 0.8"/>
     <use xlink:href="#me7a2b0d976" x="693.491875" y="204.055412" style="fill: #440154; fill-opacity: 0.8; stroke: #440154; stroke-opacity: 0.8"/>
     <use xlink:href="#me7a2b0d976" x="736.061875" y="161.787562" style="fill: #440154; fill-opacity: 0.8; stroke: #440154; stroke-opacity: 0.8"/>
     <use xlink:href="#me7a2b0d976" x="778.631875" y="193.716338" style="fill: #440154; fill-opacity: 0.8; stroke: #440154; stroke-opacity: 0.8"/>
     <use xlink:href="#me7a2b0d976" x="821.201875" y="130.204318" style="fill: #440154; fill-opacity: 0.8; stroke: #440154; stroke-opacity: 0.8"/>
     <use xlink:href="#me7a2b0d976" x="863.771875" y="181.910983" style="fill: #440154; fill-opacity: 0.8; stroke: #440154; stroke-opacity: 0.8"/>
     <use xlink:href="#me7a2b0d976" x="906.341875" y="165.46811" style="fill: #440154; fill-opacity: 0.8; stroke: #440154; stroke-opacity: 0.8"/>
     <use xlink:href="#me7a2b0d976" x="948.911875" y="169.797662" style="fill: #440154; fill-opacity: 0.8; stroke: #440154; stroke-opacity: 0.8"/>
    </g>
   </g>
   <g id="line2d_32">
    <path d="M 97.511875 155.817482 
L 140.081875 138.031265 
L 182.651875 106.566035 
L 225.221875 157.870096 
L 267.791875 214.818179 
L 310.361875 187.720627 
L 352.931875 167.759057 
L 395.501875 163.060499 
L 438.071875 160.240981 
L 480.641875 160.426604 
L 523.211875 131.521339 
L 565.781875 181.6887 
L 608.351875 195.845318 
L 650.921875 169.00182 
L 693.491875 162.312082 
L 736.061875 120.002682 
L 778.631875 228.067541 
L 821.201875 177.969599 
L 863.771875 176.62879 
L 906.341875 135.420269 
L 948.911875 192.95839 
" clip-path="url(#p762452dece)" style="fill: none; stroke: #fde725; stroke-opacity: 0.8; stroke-width: 2; stroke-linecap: round"/>
    <defs>
     <path id="m8d242bbf07" d="M 0 2.5 
C 0.663008 2.5 1.29895 2.236584 1.767767 1.767767 
C 2.236584 1.29895 2.5 0.663008 2.5 0 
C 2.5 -0.663008 2.236584 -1.29895 1.767767 -1.767767 
C 1.29895 -2.236584 0.663008 -2.5 0 -2.5 
C -0.663008 -2.5 -1.29895 -2.236584 -1.767767 -1.767767 
C -2.236584 -1.29895 -2.5 -0.663008 -2.5 0 
C -2.5 0.663008 -2.236584 1.29895 -1.767767 1.767767 
C -1.29895 2.236584 -0.663008 2.5 0 2.5 
z
" style="stroke: #fde725; stroke-opacity: 0.8"/>
    </defs>
    <g clip-path="url(#p762452dece)">
     <use xlink:href="#m8d242bbf07" x="97.511875" y="155.817482" style="fill: #fde725; fill-opacity: 0.8; stroke: #fde725; stroke-opacity: 0.8"/>
     <use xlink:href="#m8d242bbf07" x="140.081875" y="138.031265" style="fill: #fde725; fill-opacity: 0.8; stroke: #fde725; stroke-opacity: 0.8"/>
     <use xlink:href="#m8d242bbf07" x="182.651875" y="106.566035" style="fill: #fde725; fill-opacity: 0.8; stroke: #fde725; stroke-opacity: 0.8"/>
     <use xlink:href="#m8d242bbf07" x="225.221875" y="157.870096" style="fill: #fde725; fill-opacity: 0.8; stroke: #fde725; stroke-opacity: 0.8"/>
     <use xlink:href="#m8d242bbf07" x="267.791875" y="214.818179" style="fill: #fde725; fill-opacity: 0.8; stroke: #fde725; stroke-opacity: 0.8"/>
     <use xlink:href="#m8d242bbf07" x="310.361875" y="187.720627" style="fill: #fde725; fill-opacity: 0.8; stroke: #fde725; stroke-opacity: 0.8"/>
     <use xlink:href="#m8d242bbf07" x="352.931875" y="167.759057" style="fill: #fde725; fill-opacity: 0.8; stroke: #fde725; stroke-opacity: 0.8"/>
     <use xlink:href="#m8d242bbf07" x="395.501875" y="163.060499" style="fill: #fde725; fill-opacity: 0.8; stroke: #fde725; stroke-opacity: 0.8"/>
     <use xlink:href="#m8d242bbf07" x="438.071875" y="160.240981" style="fill: #fde725; fill-opacity: 0.8; stroke: #fde725; stroke-opacity: 0.8"/>
     <use xlink:href="#m8d242bbf07" x="480.641875" y="160.426604" style="fill: #fde725; fill-opacity: 0.8; stroke: #fde725; stroke-opacity: 0.8"/>
     <use xlink:href="#m8d242bbf07" x="523.211875" y="131.521339" style="fill: #fde725; fill-opacity: 0.8; stroke: #fde725; stroke-opacity: 0.8"/>
     <use xlink:href="#m8d242bbf07" x="565.781875" y="181.6887" style="fill: #fde725; fill-opacity: 0.8; stroke: #fde725; stroke-opacity: 0.8"/>
     <use xlink:href="#m8d242bbf07" x="608.351875" y="195.845318" style="fill: #fde725; fill-opacity: 0.8; stroke: #fde725; stroke-opacity: 0.8"/>
     <use xlink:href="#m8d242bbf07" x="650.921875" y="169.00182" style="fill: #fde725; fill-opacity: 0.8; stroke: #fde725; stroke-opacity: 0.8"/>
     <use xlink:href="#m8d242bbf07" x="693.491875" y="162.312082" style="fill: #fde725; fill-opacity: 0.8; stroke: #fde725; stroke-opacity: 0.8"/>
     <use xlink:href="#m8d242bbf07" x="736.061875" y="120.002682" style="fill: #fde725; fill-opacity: 0.8; stroke: #fde725; stroke-opacity: 0.8"/>
     <use xlink:href="#m8d242bbf07" x="778.631875" y="228.067541" style="fill: #fde725; fill-opacity: 0.8; stroke: #fde725; stroke-opacity: 0.8"/>
     <use xlink:href="#m8d242bbf07" x="821.201875" y="177.969599" style="fill: #fde725; fill-opacity: 0.8; stroke: #fde725; stroke-opacity: 0.8"/>
     <use xlink:href="#m8d242bbf07" x="863.771875" y="176.62879" style="fill: #fde725; fill-opacity: 0.8; stroke: #fde725; stroke-opacity: 0.8"/>
     <use xlink:href="#m8d242bbf07" x="906.341875" y="135.420269" style="fill: #fde725; fill-opacity: 0.8; stroke: #fde725; stroke-opacity: 0.8"/>
     <use xlink:href="#m8d242bbf07" x="948.911875" y="192.95839" style="fill: #fde725; fill-opacity: 0.8; stroke: #fde725; stroke-opacity: 0.8"/>
    </g>
   </g>
   <g id="patch_3">
    <path d="M 54.941875 314.897812 
L 54.941875 23.837812 
" style="fill: none; stroke: #cccccc; stroke-linejoin: miter; stroke-linecap: square"/>
   </g>
   <g id="patch_4">
    <path d="M 991.481875 314.897812 
L 991.481875 23.837812 
" style="fill: none; stroke: #cccccc; stroke-linejoin: miter; stroke-linecap: square"/>
   </g>
   <g id="patch_5">
    <path d="M 54.941875 314.897812 
L 991.481875 314.897812 
" style="fill: none; stroke: #cccccc; stroke-linejoin: miter; stroke-linecap: square"/>
   </g>
   <g id="patch_6">
    <path d="M 54.941875 23.837812 
L 991.481875 23.837812 
" style="fill: none; stroke: #cccccc; stroke-linejoin: miter; stroke-linecap: square"/>
   </g>
   <g id="text_18">
    <text style="font-weight: 700; font-size: 14px; font-family: 'Arial', 'DejaVu Sans', 'Helvetica', sans-serif; text-anchor: middle; fill: #262626" x="523.211875" y="17.837812" transform="rotate(-0 523.211875 17.837812)">Cross-Layer Head-Averaged Attention Distribution</text>
   </g>
   <g id="legend_1">
    <g id="line2d_33">
     <path d="M 917.058438 36.93625 
L 927.058438 36.93625 
L 937.058438 36.93625 
" style="fill: none; stroke: #440154; stroke-opacity: 0.8; stroke-width: 2; stroke-linecap: round"/>
     <g>
      <use xlink:href="#me7a2b0d976" x="927.058438" y="36.93625" style="fill: #440154; fill-opacity: 0.8; stroke: #440154; stroke-opacity: 0.8"/>
     </g>
    </g>
    <g id="text_19">
     <text style="font-size: 10px; font-family: 'Arial', 'DejaVu Sans', 'Helvetica', sans-serif; text-anchor: start; fill: #262626" x="945.058438" y="40.43625" transform="rotate(-0 945.058438 40.43625)">Layer 1</text>
    </g>
    <g id="line2d_34">
     <path d="M 917.058438 51.614375 
L 927.058438 51.614375 
L 937.058438 51.614375 
" style="fill: none; stroke: #fde725; stroke-opacity: 0.8; stroke-width: 2; stroke-linecap: round"/>
     <g>
      <use xlink:href="#m8d242bbf07" x="927.058438" y="51.614375" style="fill: #fde725; fill-opacity: 0.8; stroke: #fde725; stroke-opacity: 0.8"/>
     </g>
    </g>
    <g id="text_20">
     <text style="font-size: 10px; font-family: 'Arial', 'DejaVu Sans', 'Helvetica', sans-serif; text-anchor: start; fill: #262626" x="945.058438" y="55.114375" transform="rotate(-0 945.058438 55.114375)">Layer 5</text>
    </g>
   </g>
  </g>
 </g>
 <defs>
  <clipPath id="p762452dece">
   <rect x="54.941875" y="23.837812" width="936.54" height="291.06"/>
  </clipPath>
 </defs>
</svg>
