<?xml version="1.0" encoding="utf-8" standalone="no"?>
<!DOCTYPE svg PUBLIC "-//W3C//DTD SVG 1.1//EN"
  "http://www.w3.org/Graphics/SVG/1.1/DTD/svg11.dtd">
<svg xmlns:xlink="http://www.w3.org/1999/xlink" width="999.704375pt" height="350.889687pt" viewBox="0 0 999.704375 350.889687" xmlns="http://www.w3.org/2000/svg" version="1.1">
 <metadata>
  <rdf:RDF xmlns:dc="http://purl.org/dc/elements/1.1/" xmlns:cc="http://creativecommons.org/ns#" xmlns:rdf="http://www.w3.org/1999/02/22-rdf-syntax-ns#">
   <cc:Work>
    <dc:type rdf:resource="http://purl.org/dc/dcmitype/StillImage"/>
    <dc:date>2025-12-11T19:35:57.266717</dc:date>
    <dc:format>image/svg+xml</dc:format>
    <dc:creator>
     <cc:Agent>
      <dc:title>Matplotlib v3.10.8, https://matplotlib.org/</dc:title>
     </cc:Agent>
    </dc:creator>
   </cc:Work>
  </rdf:RDF>
 </metadata>
 <defs>
  <style type="text/css">*{stroke-linejoin: round; stroke-linecap: butt}</style>
 </defs>
 <g id="figure_1">
  <g id="patch_1">
   <path d="M 0 350.889687 
L 999.704375 350.889687 
L 999.704375 0 
L 0 0 
z
" style="fill: #ffffff"/>
  </g>
  <g id="axes_1">
   <g id="patch_2">
    <path d="M 61.304375 314.897812 
L 992.504375 314.897812 
L 992.504375 23.837812 
L 61.304375 23.837812 
z
" style="fill: #ffffff"/>
   </g>
   <g id="matplotlib.axis_1">
    <g id="xtick_1">
     <g id="line2d_1">
      <path d="M 103.631648 314.897812 
L 103.631648 23.837812 
" clip-path="url(#p023f441d55)" style="fill: none; stroke-dasharray: 2.96,1.28; stroke-dashoffset: 0; stroke: #cccccc; stroke-opacity: 0.3; stroke-width: 0.8"/>
     </g>
     <g id="line2d_2"/>
     <g id="text_1">
      <!-- 0.00 -->
      <g style="fill: #262626" transform="translate(92.498835 325.99625) scale(0.1 -0.1)">
       <defs>
        <path id="DejaVuSans-30" d="M 2034 4250 
Q 1547 4250 1301 3770 
Q 1056 3291 1056 2328 
Q 1056 1369 1301 889 
Q 1547 409 2034 409 
Q 2525 409 2770 889 
Q 3016 1369 3016 2328 
Q 3016 3291 2770 3770 
Q 2525 4250 2034 4250 
z
M 2034 4750 
Q 2819 4750 3233 4129 
Q 3647 3509 3647 2328 
Q 3647 1150 3233 529 
Q 2819 -91 2034 -91 
Q 1250 -91 836 529 
Q 422 1150 422 2328 
Q 422 3509 836 4129 
Q 1250 4750 2034 4750 
z
" transform="scale(0.015625)"/>
        <path id="DejaVuSans-2e" d="M 684 794 
L 1344 794 
L 1344 0 
L 684 0 
L 684 794 
z
" transform="scale(0.015625)"/>
       </defs>
       <use xlink:href="#DejaVuSans-30"/>
       <use xlink:href="#DejaVuSans-2e" transform="translate(63.623047 0)"/>
       <use xlink:href="#DejaVuSans-30" transform="translate(95.410156 0)"/>
       <use xlink:href="#DejaVuSans-30" transform="translate(159.033203 0)"/>
      </g>
     </g>
    </g>
    <g id="xtick_2">
     <g id="line2d_3">
      <path d="M 209.44983 314.897812 
L 209.44983 23.837812 
" clip-path="url(#p023f441d55)" style="fill: none; stroke-dasharray: 2.96,1.28; stroke-dashoffset: 0; stroke: #cccccc; stroke-opacity: 0.3; stroke-width: 0.8"/>
     </g>
     <g id="line2d_4"/>
     <g id="text_2">
      <!-- 0.25 -->
      <g style="fill: #262626" transform="translate(198.317017 325.99625) scale(0.1 -0.1)">
       <defs>
        <path id="DejaVuSans-32" d="M 1228 531 
L 3431 531 
L 3431 0 
L 469 0 
L 469 531 
Q 828 903 1448 1529 
Q 2069 2156 2228 2338 
Q 2531 2678 2651 2914 
Q 2772 3150 2772 3378 
Q 2772 3750 2511 3984 
Q 2250 4219 1831 4219 
Q 1534 4219 1204 4116 
Q 875 4013 500 3803 
L 500 4441 
Q 881 4594 1212 4672 
Q 1544 4750 1819 4750 
Q 2544 4750 2975 4387 
Q 3406 4025 3406 3419 
Q 3406 3131 3298 2873 
Q 3191 2616 2906 2266 
Q 2828 2175 2409 1742 
Q 1991 1309 1228 531 
z
" transform="scale(0.015625)"/>
        <path id="DejaVuSans-35" d="M 691 4666 
L 3169 4666 
L 3169 4134 
L 1269 4134 
L 1269 2991 
Q 1406 3038 1543 3061 
Q 1681 3084 1819 3084 
Q 2600 3084 3056 2656 
Q 3513 2228 3513 1497 
Q 3513 744 3044 326 
Q 2575 -91 1722 -91 
Q 1428 -91 1123 -41 
Q 819 9 494 109 
L 494 744 
Q 775 591 1075 516 
Q 1375 441 1709 441 
Q 2250 441 2565 725 
Q 2881 1009 2881 1497 
Q 2881 1984 2565 2268 
Q 2250 2553 1709 2553 
Q 1456 2553 1204 2497 
Q 953 2441 691 2322 
L 691 4666 
z
" transform="scale(0.015625)"/>
       </defs>
       <use xlink:href="#DejaVuSans-30"/>
       <use xlink:href="#DejaVuSans-2e" transform="translate(63.623047 0)"/>
       <use xlink:href="#DejaVuSans-32" transform="translate(95.410156 0)"/>
       <use xlink:href="#DejaVuSans-35" transform="translate(159.033203 0)"/>
      </g>
     </g>
    </g>
    <g id="xtick_3">
     <g id="line2d_5">
      <path d="M 315.268011 314.897812 
L 315.268011 23.837812 
" clip-path="url(#p023f441d55)" style="fill: none; stroke-dasharray: 2.96,1.28; stroke-dashoffset: 0; stroke: #cccccc; stroke-opacity: 0.3; stroke-width: 0.8"/>
     </g>
     <g id="line2d_6"/>
     <g id="text_3">
      <!-- 0.50 -->
      <g style="fill: #262626" transform="translate(304.135199 325.99625) scale(0.1 -0.1)">
       <use xlink:href="#DejaVuSans-30"/>
       <use xlink:href="#DejaVuSans-2e" transform="translate(63.623047 0)"/>
       <use xlink:href="#DejaVuSans-35" transform="translate(95.410156 0)"/>
       <use xlink:href="#DejaVuSans-30" transform="translate(159.033203 0)"/>
      </g>
     </g>
    </g>
    <g id="xtick_4">
     <g id="line2d_7">
      <path d="M 421.086193 314.897812 
L 421.086193 23.837812 
" clip-path="url(#p023f441d55)" style="fill: none; stroke-dasharray: 2.96,1.28; stroke-dashoffset: 0; stroke: #cccccc; stroke-opacity: 0.3; stroke-width: 0.8"/>
     </g>
     <g id="line2d_8"/>
     <g id="text_4">
      <!-- 0.75 -->
      <g style="fill: #262626" transform="translate(409.953381 325.99625) scale(0.1 -0.1)">
       <defs>
        <path id="DejaVuSans-37" d="M 525 4666 
L 3525 4666 
L 3525 4397 
L 1831 0 
L 1172 0 
L 2766 4134 
L 525 4134 
L 525 4666 
z
" transform="scale(0.015625)"/>
       </defs>
       <use xlink:href="#DejaVuSans-30"/>
       <use xlink:href="#DejaVuSans-2e" transform="translate(63.623047 0)"/>
       <use xlink:href="#DejaVuSans-37" transform="translate(95.410156 0)"/>
       <use xlink:href="#DejaVuSans-35" transform="translate(159.033203 0)"/>
      </g>
     </g>
    </g>
    <g id="xtick_5">
     <g id="line2d_9">
      <path d="M 526.904375 314.897812 
L 526.904375 23.837812 
" clip-path="url(#p023f441d55)" style="fill: none; stroke-dasharray: 2.96,1.28; stroke-dashoffset: 0; stroke: #cccccc; stroke-opacity: 0.3; stroke-width: 0.8"/>
     </g>
     <g id="line2d_10"/>
     <g id="text_5">
      <!-- 1.00 -->
      <g style="fill: #262626" transform="translate(515.771562 325.99625) scale(0.1 -0.1)">
       <defs>
        <path id="DejaVuSans-31" d="M 794 531 
L 1825 531 
L 1825 4091 
L 703 3866 
L 703 4441 
L 1819 4666 
L 2450 4666 
L 2450 531 
L 3481 531 
L 3481 0 
L 794 0 
L 794 531 
z
" transform="scale(0.015625)"/>
       </defs>
       <use xlink:href="#DejaVuSans-31"/>
       <use xlink:href="#DejaVuSans-2e" transform="translate(63.623047 0)"/>
       <use xlink:href="#DejaVuSans-30" transform="translate(95.410156 0)"/>
       <use xlink:href="#DejaVuSans-30" transform="translate(159.033203 0)"/>
      </g>
     </g>
    </g>
    <g id="xtick_6">
     <g id="line2d_11">
      <path d="M 632.722557 314.897812 
L 632.722557 23.837812 
" clip-path="url(#p023f441d55)" style="fill: none; stroke-dasharray: 2.96,1.28; stroke-dashoffset: 0; stroke: #cccccc; stroke-opacity: 0.3; stroke-width: 0.8"/>
     </g>
     <g id="line2d_12"/>
     <g id="text_6">
      <!-- 1.25 -->
      <g style="fill: #262626" transform="translate(621.589744 325.99625) scale(0.1 -0.1)">
       <use xlink:href="#DejaVuSans-31"/>
       <use xlink:href="#DejaVuSans-2e" transform="translate(63.623047 0)"/>
       <use xlink:href="#DejaVuSans-32" transform="translate(95.410156 0)"/>
       <use xlink:href="#DejaVuSans-35" transform="translate(159.033203 0)"/>
      </g>
     </g>
    </g>
    <g id="xtick_7">
     <g id="line2d_13">
      <path d="M 738.540739 314.897812 
L 738.540739 23.837812 
" clip-path="url(#p023f441d55)" style="fill: none; stroke-dasharray: 2.96,1.28; stroke-dashoffset: 0; stroke: #cccccc; stroke-opacity: 0.3; stroke-width: 0.8"/>
     </g>
     <g id="line2d_14"/>
     <g id="text_7">
      <!-- 1.50 -->
      <g style="fill: #262626" transform="translate(727.407926 325.99625) scale(0.1 -0.1)">
       <use xlink:href="#DejaVuSans-31"/>
       <use xlink:href="#DejaVuSans-2e" transform="translate(63.623047 0)"/>
       <use xlink:href="#DejaVuSans-35" transform="translate(95.410156 0)"/>
       <use xlink:href="#DejaVuSans-30" transform="translate(159.033203 0)"/>
      </g>
     </g>
    </g>
    <g id="xtick_8">
     <g id="line2d_15">
      <path d="M 844.35892 314.897812 
L 844.35892 23.837812 
" clip-path="url(#p023f441d55)" style="fill: none; stroke-dasharray: 2.96,1.28; stroke-dashoffset: 0; stroke: #cccccc; stroke-opacity: 0.3; stroke-width: 0.8"/>
     </g>
     <g id="line2d_16"/>
     <g id="text_8">
      <!-- 1.75 -->
      <g style="fill: #262626" transform="translate(833.226108 325.99625) scale(0.1 -0.1)">
       <use xlink:href="#DejaVuSans-31"/>
       <use xlink:href="#DejaVuSans-2e" transform="translate(63.623047 0)"/>
       <use xlink:href="#DejaVuSans-37" transform="translate(95.410156 0)"/>
       <use xlink:href="#DejaVuSans-35" transform="translate(159.033203 0)"/>
      </g>
     </g>
    </g>
    <g id="xtick_9">
     <g id="line2d_17">
      <path d="M 950.177102 314.897812 
L 950.177102 23.837812 
" clip-path="url(#p023f441d55)" style="fill: none; stroke-dasharray: 2.96,1.28; stroke-dashoffset: 0; stroke: #cccccc; stroke-opacity: 0.3; stroke-width: 0.8"/>
     </g>
     <g id="line2d_18"/>
     <g id="text_9">
      <!-- 2.00 -->
      <g style="fill: #262626" transform="translate(939.04429 325.99625) scale(0.1 -0.1)">
       <use xlink:href="#DejaVuSans-32"/>
       <use xlink:href="#DejaVuSans-2e" transform="translate(63.623047 0)"/>
       <use xlink:href="#DejaVuSans-30" transform="translate(95.410156 0)"/>
       <use xlink:href="#DejaVuSans-30" transform="translate(159.033203 0)"/>
      </g>
     </g>
    </g>
    <g id="text_10">
     <!-- Key Frame Index -->
     <g style="fill: #262626" transform="translate(476.9975 341.194062) scale(0.12 -0.12)">
      <defs>
       <path id="DejaVuSans-4b" d="M 628 4666 
L 1259 4666 
L 1259 2694 
L 3353 4666 
L 4166 4666 
L 1850 2491 
L 4331 0 
L 3500 0 
L 1259 2247 
L 1259 0 
L 628 0 
L 628 4666 
z
" transform="scale(0.015625)"/>
       <path id="DejaVuSans-65" d="M 3597 1894 
L 3597 1613 
L 953 1613 
Q 991 1019 1311 708 
Q 1631 397 2203 397 
Q 2534 397 2845 478 
Q 3156 559 3463 722 
L 3463 178 
Q 3153 47 2828 -22 
Q 2503 -91 2169 -91 
Q 1331 -91 842 396 
Q 353 884 353 1716 
Q 353 2575 817 3079 
Q 1281 3584 2069 3584 
Q 2775 3584 3186 3129 
Q 3597 2675 3597 1894 
z
M 3022 2063 
Q 3016 2534 2758 2815 
Q 2500 3097 2075 3097 
Q 1594 3097 1305 2825 
Q 1016 2553 972 2059 
L 3022 2063 
z
" transform="scale(0.015625)"/>
       <path id="DejaVuSans-79" d="M 2059 -325 
Q 1816 -950 1584 -1140 
Q 1353 -1331 966 -1331 
L 506 -1331 
L 506 -850 
L 844 -850 
Q 1081 -850 1212 -737 
Q 1344 -625 1503 -206 
L 1606 56 
L 191 3500 
L 800 3500 
L 1894 763 
L 2988 3500 
L 3597 3500 
L 2059 -325 
z
" transform="scale(0.015625)"/>
       <path id="DejaVuSans-20" transform="scale(0.015625)"/>
       <path id="DejaVuSans-46" d="M 628 4666 
L 3309 4666 
L 3309 4134 
L 1259 4134 
L 1259 2759 
L 3109 2759 
L 3109 2228 
L 1259 2228 
L 1259 0 
L 628 0 
L 628 4666 
z
" transform="scale(0.015625)"/>
       <path id="DejaVuSans-72" d="M 2631 2963 
Q 2534 3019 2420 3045 
Q 2306 3072 2169 3072 
Q 1681 3072 1420 2755 
Q 1159 2438 1159 1844 
L 1159 0 
L 581 0 
L 581 3500 
L 1159 3500 
L 1159 2956 
Q 1341 3275 1631 3429 
Q 1922 3584 2338 3584 
Q 2397 3584 2469 3576 
Q 2541 3569 2628 3553 
L 2631 2963 
z
" transform="scale(0.015625)"/>
       <path id="DejaVuSans-61" d="M 2194 1759 
Q 1497 1759 1228 1600 
Q 959 1441 959 1056 
Q 959 750 1161 570 
Q 1363 391 1709 391 
Q 2188 391 2477 730 
Q 2766 1069 2766 1631 
L 2766 1759 
L 2194 1759 
z
M 3341 1997 
L 3341 0 
L 2766 0 
L 2766 531 
Q 2569 213 2275 61 
Q 1981 -91 1556 -91 
Q 1019 -91 701 211 
Q 384 513 384 1019 
Q 384 1609 779 1909 
Q 1175 2209 1959 2209 
L 2766 2209 
L 2766 2266 
Q 2766 2663 2505 2880 
Q 2244 3097 1772 3097 
Q 1472 3097 1187 3025 
Q 903 2953 641 2809 
L 641 3341 
Q 956 3463 1253 3523 
Q 1550 3584 1831 3584 
Q 2591 3584 2966 3190 
Q 3341 2797 3341 1997 
z
" transform="scale(0.015625)"/>
       <path id="DejaVuSans-6d" d="M 3328 2828 
Q 3544 3216 3844 3400 
Q 4144 3584 4550 3584 
Q 5097 3584 5394 3201 
Q 5691 2819 5691 2113 
L 5691 0 
L 5113 0 
L 5113 2094 
Q 5113 2597 4934 2840 
Q 4756 3084 4391 3084 
Q 3944 3084 3684 2787 
Q 3425 2491 3425 1978 
L 3425 0 
L 2847 0 
L 2847 2094 
Q 2847 2600 2669 2842 
Q 2491 3084 2119 3084 
Q 1678 3084 1418 2786 
Q 1159 2488 1159 1978 
L 1159 0 
L 581 0 
L 581 3500 
L 1159 3500 
L 1159 2956 
Q 1356 3278 1631 3431 
Q 1906 3584 2284 3584 
Q 2666 3584 2933 3390 
Q 3200 3197 3328 2828 
z
" transform="scale(0.015625)"/>
       <path id="DejaVuSans-49" d="M 628 4666 
L 1259 4666 
L 1259 0 
L 628 0 
L 628 4666 
z
" transform="scale(0.015625)"/>
       <path id="DejaVuSans-6e" d="M 3513 2113 
L 3513 0 
L 2938 0 
L 2938 2094 
Q 2938 2591 2744 2837 
Q 2550 3084 2163 3084 
Q 1697 3084 1428 2787 
Q 1159 2491 1159 1978 
L 1159 0 
L 581 0 
L 581 3500 
L 1159 3500 
L 1159 2956 
Q 1366 3272 1645 3428 
Q 1925 3584 2291 3584 
Q 2894 3584 3203 3211 
Q 3513 2838 3513 2113 
z
" transform="scale(0.015625)"/>
       <path id="DejaVuSans-64" d="M 2906 2969 
L 2906 4863 
L 3481 4863 
L 3481 0 
L 2906 0 
L 2906 525 
Q 2725 213 2448 61 
Q 2172 -91 1784 -91 
Q 1150 -91 751 415 
Q 353 922 353 1747 
Q 353 2572 751 3078 
Q 1150 3584 1784 3584 
Q 2172 3584 2448 3432 
Q 2725 3281 2906 2969 
z
M 947 1747 
Q 947 1113 1208 752 
Q 1469 391 1925 391 
Q 2381 391 2643 752 
Q 2906 1113 2906 1747 
Q 2906 2381 2643 2742 
Q 2381 3103 1925 3103 
Q 1469 3103 1208 2742 
Q 947 2381 947 1747 
z
" transform="scale(0.015625)"/>
       <path id="DejaVuSans-78" d="M 3513 3500 
L 2247 1797 
L 3578 0 
L 2900 0 
L 1881 1375 
L 863 0 
L 184 0 
L 1544 1831 
L 300 3500 
L 978 3500 
L 1906 2253 
L 2834 3500 
L 3513 3500 
z
" transform="scale(0.015625)"/>
      </defs>
      <use xlink:href="#DejaVuSans-4b"/>
      <use xlink:href="#DejaVuSans-65" transform="translate(60.576172 0)"/>
      <use xlink:href="#DejaVuSans-79" transform="translate(122.099609 0)"/>
      <use xlink:href="#DejaVuSans-20" transform="translate(181.279297 0)"/>
      <use xlink:href="#DejaVuSans-46" transform="translate(213.066406 0)"/>
      <use xlink:href="#DejaVuSans-72" transform="translate(263.335938 0)"/>
      <use xlink:href="#DejaVuSans-61" transform="translate(304.449219 0)"/>
      <use xlink:href="#DejaVuSans-6d" transform="translate(365.728516 0)"/>
      <use xlink:href="#DejaVuSans-65" transform="translate(463.140625 0)"/>
      <use xlink:href="#DejaVuSans-20" transform="translate(524.664062 0)"/>
      <use xlink:href="#DejaVuSans-49" transform="translate(556.451172 0)"/>
      <use xlink:href="#DejaVuSans-6e" transform="translate(585.943359 0)"/>
      <use xlink:href="#DejaVuSans-64" transform="translate(649.322266 0)"/>
      <use xlink:href="#DejaVuSans-65" transform="translate(712.798828 0)"/>
      <use xlink:href="#DejaVuSans-78" transform="translate(772.572266 0)"/>
     </g>
    </g>
   </g>
   <g id="matplotlib.axis_2">
    <g id="ytick_1">
     <g id="line2d_19">
      <path d="M 61.304375 309.097506 
L 992.504375 309.097506 
" clip-path="url(#p023f441d55)" style="fill: none; stroke-dasharray: 2.96,1.28; stroke-dashoffset: 0; stroke: #cccccc; stroke-opacity: 0.3; stroke-width: 0.8"/>
     </g>
     <g id="line2d_20"/>
     <g id="text_11">
      <!-- 0.0000 -->
      <g style="fill: #262626" transform="translate(22.81375 312.896725) scale(0.1 -0.1)">
       <use xlink:href="#DejaVuSans-30"/>
       <use xlink:href="#DejaVuSans-2e" transform="translate(63.623047 0)"/>
       <use xlink:href="#DejaVuSans-30" transform="translate(95.410156 0)"/>
       <use xlink:href="#DejaVuSans-30" transform="translate(159.033203 0)"/>
       <use xlink:href="#DejaVuSans-30" transform="translate(222.65625 0)"/>
       <use xlink:href="#DejaVuSans-30" transform="translate(286.279297 0)"/>
      </g>
     </g>
    </g>
    <g id="ytick_2">
     <g id="line2d_21">
      <path d="M 61.304375 272.659276 
L 992.504375 272.659276 
" clip-path="url(#p023f441d55)" style="fill: none; stroke-dasharray: 2.96,1.28; stroke-dashoffset: 0; stroke: #cccccc; stroke-opacity: 0.3; stroke-width: 0.8"/>
     </g>
     <g id="line2d_22"/>
     <g id="text_12">
      <!-- 0.0005 -->
      <g style="fill: #262626" transform="translate(22.81375 276.458495) scale(0.1 -0.1)">
       <use xlink:href="#DejaVuSans-30"/>
       <use xlink:href="#DejaVuSans-2e" transform="translate(63.623047 0)"/>
       <use xlink:href="#DejaVuSans-30" transform="translate(95.410156 0)"/>
       <use xlink:href="#DejaVuSans-30" transform="translate(159.033203 0)"/>
       <use xlink:href="#DejaVuSans-30" transform="translate(222.65625 0)"/>
       <use xlink:href="#DejaVuSans-35" transform="translate(286.279297 0)"/>
      </g>
     </g>
    </g>
    <g id="ytick_3">
     <g id="line2d_23">
      <path d="M 61.304375 236.221046 
L 992.504375 236.221046 
" clip-path="url(#p023f441d55)" style="fill: none; stroke-dasharray: 2.96,1.28; stroke-dashoffset: 0; stroke: #cccccc; stroke-opacity: 0.3; stroke-width: 0.8"/>
     </g>
     <g id="line2d_24"/>
     <g id="text_13">
      <!-- 0.0010 -->
      <g style="fill: #262626" transform="translate(22.81375 240.020265) scale(0.1 -0.1)">
       <use xlink:href="#DejaVuSans-30"/>
       <use xlink:href="#DejaVuSans-2e" transform="translate(63.623047 0)"/>
       <use xlink:href="#DejaVuSans-30" transform="translate(95.410156 0)"/>
       <use xlink:href="#DejaVuSans-30" transform="translate(159.033203 0)"/>
       <use xlink:href="#DejaVuSans-31" transform="translate(222.65625 0)"/>
       <use xlink:href="#DejaVuSans-30" transform="translate(286.279297 0)"/>
      </g>
     </g>
    </g>
    <g id="ytick_4">
     <g id="line2d_25">
      <path d="M 61.304375 199.782816 
L 992.504375 199.782816 
" clip-path="url(#p023f441d55)" style="fill: none; stroke-dasharray: 2.96,1.28; stroke-dashoffset: 0; stroke: #cccccc; stroke-opacity: 0.3; stroke-width: 0.8"/>
     </g>
     <g id="line2d_26"/>
     <g id="text_14">
      <!-- 0.0015 -->
      <g style="fill: #262626" transform="translate(22.81375 203.582035) scale(0.1 -0.1)">
       <use xlink:href="#DejaVuSans-30"/>
       <use xlink:href="#DejaVuSans-2e" transform="translate(63.623047 0)"/>
       <use xlink:href="#DejaVuSans-30" transform="translate(95.410156 0)"/>
       <use xlink:href="#DejaVuSans-30" transform="translate(159.033203 0)"/>
       <use xlink:href="#DejaVuSans-31" transform="translate(222.65625 0)"/>
       <use xlink:href="#DejaVuSans-35" transform="translate(286.279297 0)"/>
      </g>
     </g>
    </g>
    <g id="ytick_5">
     <g id="line2d_27">
      <path d="M 61.304375 163.344586 
L 992.504375 163.344586 
" clip-path="url(#p023f441d55)" style="fill: none; stroke-dasharray: 2.96,1.28; stroke-dashoffset: 0; stroke: #cccccc; stroke-opacity: 0.3; stroke-width: 0.8"/>
     </g>
     <g id="line2d_28"/>
     <g id="text_15">
      <!-- 0.0020 -->
      <g style="fill: #262626" transform="translate(22.81375 167.143805) scale(0.1 -0.1)">
       <use xlink:href="#DejaVuSans-30"/>
       <use xlink:href="#DejaVuSans-2e" transform="translate(63.623047 0)"/>
       <use xlink:href="#DejaVuSans-30" transform="translate(95.410156 0)"/>
       <use xlink:href="#DejaVuSans-30" transform="translate(159.033203 0)"/>
       <use xlink:href="#DejaVuSans-32" transform="translate(222.65625 0)"/>
       <use xlink:href="#DejaVuSans-30" transform="translate(286.279297 0)"/>
      </g>
     </g>
    </g>
    <g id="ytick_6">
     <g id="line2d_29">
      <path d="M 61.304375 126.906356 
L 992.504375 126.906356 
" clip-path="url(#p023f441d55)" style="fill: none; stroke-dasharray: 2.96,1.28; stroke-dashoffset: 0; stroke: #cccccc; stroke-opacity: 0.3; stroke-width: 0.8"/>
     </g>
     <g id="line2d_30"/>
     <g id="text_16">
      <!-- 0.0025 -->
      <g style="fill: #262626" transform="translate(22.81375 130.705575) scale(0.1 -0.1)">
       <use xlink:href="#DejaVuSans-30"/>
       <use xlink:href="#DejaVuSans-2e" transform="translate(63.623047 0)"/>
       <use xlink:href="#DejaVuSans-30" transform="translate(95.410156 0)"/>
       <use xlink:href="#DejaVuSans-30" transform="translate(159.033203 0)"/>
       <use xlink:href="#DejaVuSans-32" transform="translate(222.65625 0)"/>
       <use xlink:href="#DejaVuSans-35" transform="translate(286.279297 0)"/>
      </g>
     </g>
    </g>
    <g id="ytick_7">
     <g id="line2d_31">
      <path d="M 61.304375 90.468126 
L 992.504375 90.468126 
" clip-path="url(#p023f441d55)" style="fill: none; stroke-dasharray: 2.96,1.28; stroke-dashoffset: 0; stroke: #cccccc; stroke-opacity: 0.3; stroke-width: 0.8"/>
     </g>
     <g id="line2d_32"/>
     <g id="text_17">
      <!-- 0.0030 -->
      <g style="fill: #262626" transform="translate(22.81375 94.267345) scale(0.1 -0.1)">
       <defs>
        <path id="DejaVuSans-33" d="M 2597 2516 
Q 3050 2419 3304 2112 
Q 3559 1806 3559 1356 
Q 3559 666 3084 287 
Q 2609 -91 1734 -91 
Q 1441 -91 1130 -33 
Q 819 25 488 141 
L 488 750 
Q 750 597 1062 519 
Q 1375 441 1716 441 
Q 2309 441 2620 675 
Q 2931 909 2931 1356 
Q 2931 1769 2642 2001 
Q 2353 2234 1838 2234 
L 1294 2234 
L 1294 2753 
L 1863 2753 
Q 2328 2753 2575 2939 
Q 2822 3125 2822 3475 
Q 2822 3834 2567 4026 
Q 2313 4219 1838 4219 
Q 1578 4219 1281 4162 
Q 984 4106 628 3988 
L 628 4550 
Q 988 4650 1302 4700 
Q 1616 4750 1894 4750 
Q 2613 4750 3031 4423 
Q 3450 4097 3450 3541 
Q 3450 3153 3228 2886 
Q 3006 2619 2597 2516 
z
" transform="scale(0.015625)"/>
       </defs>
       <use xlink:href="#DejaVuSans-30"/>
       <use xlink:href="#DejaVuSans-2e" transform="translate(63.623047 0)"/>
       <use xlink:href="#DejaVuSans-30" transform="translate(95.410156 0)"/>
       <use xlink:href="#DejaVuSans-30" transform="translate(159.033203 0)"/>
       <use xlink:href="#DejaVuSans-33" transform="translate(222.65625 0)"/>
       <use xlink:href="#DejaVuSans-30" transform="translate(286.279297 0)"/>
      </g>
     </g>
    </g>
    <g id="ytick_8">
     <g id="line2d_33">
      <path d="M 61.304375 54.029897 
L 992.504375 54.029897 
" clip-path="url(#p023f441d55)" style="fill: none; stroke-dasharray: 2.96,1.28; stroke-dashoffset: 0; stroke: #cccccc; stroke-opacity: 0.3; stroke-width: 0.8"/>
     </g>
     <g id="line2d_34"/>
     <g id="text_18">
      <!-- 0.0035 -->
      <g style="fill: #262626" transform="translate(22.81375 57.829115) scale(0.1 -0.1)">
       <use xlink:href="#DejaVuSans-30"/>
       <use xlink:href="#DejaVuSans-2e" transform="translate(63.623047 0)"/>
       <use xlink:href="#DejaVuSans-30" transform="translate(95.410156 0)"/>
       <use xlink:href="#DejaVuSans-30" transform="translate(159.033203 0)"/>
       <use xlink:href="#DejaVuSans-33" transform="translate(222.65625 0)"/>
       <use xlink:href="#DejaVuSans-35" transform="translate(286.279297 0)"/>
      </g>
     </g>
    </g>
    <g id="text_19">
     <!-- Average Attention Weight -->
     <g style="fill: #262626" transform="translate(16.318125 246.414375) rotate(-90) scale(0.12 -0.12)">
      <defs>
       <path id="DejaVuSans-41" d="M 2188 4044 
L 1331 1722 
L 3047 1722 
L 2188 4044 
z
M 1831 4666 
L 2547 4666 
L 4325 0 
L 3669 0 
L 3244 1197 
L 1141 1197 
L 716 0 
L 50 0 
L 1831 4666 
z
" transform="scale(0.015625)"/>
       <path id="DejaVuSans-76" d="M 191 3500 
L 800 3500 
L 1894 563 
L 2988 3500 
L 3597 3500 
L 2284 0 
L 1503 0 
L 191 3500 
z
" transform="scale(0.015625)"/>
       <path id="DejaVuSans-67" d="M 2906 1791 
Q 2906 2416 2648 2759 
Q 2391 3103 1925 3103 
Q 1463 3103 1205 2759 
Q 947 2416 947 1791 
Q 947 1169 1205 825 
Q 1463 481 1925 481 
Q 2391 481 2648 825 
Q 2906 1169 2906 1791 
z
M 3481 434 
Q 3481 -459 3084 -895 
Q 2688 -1331 1869 -1331 
Q 1566 -1331 1297 -1286 
Q 1028 -1241 775 -1147 
L 775 -588 
Q 1028 -725 1275 -790 
Q 1522 -856 1778 -856 
Q 2344 -856 2625 -561 
Q 2906 -266 2906 331 
L 2906 616 
Q 2728 306 2450 153 
Q 2172 0 1784 0 
Q 1141 0 747 490 
Q 353 981 353 1791 
Q 353 2603 747 3093 
Q 1141 3584 1784 3584 
Q 2172 3584 2450 3431 
Q 2728 3278 2906 2969 
L 2906 3500 
L 3481 3500 
L 3481 434 
z
" transform="scale(0.015625)"/>
       <path id="DejaVuSans-74" d="M 1172 4494 
L 1172 3500 
L 2356 3500 
L 2356 3053 
L 1172 3053 
L 1172 1153 
Q 1172 725 1289 603 
Q 1406 481 1766 481 
L 2356 481 
L 2356 0 
L 1766 0 
Q 1100 0 847 248 
Q 594 497 594 1153 
L 594 3053 
L 172 3053 
L 172 3500 
L 594 3500 
L 594 4494 
L 1172 4494 
z
" transform="scale(0.015625)"/>
       <path id="DejaVuSans-69" d="M 603 3500 
L 1178 3500 
L 1178 0 
L 603 0 
L 603 3500 
z
M 603 4863 
L 1178 4863 
L 1178 4134 
L 603 4134 
L 603 4863 
z
" transform="scale(0.015625)"/>
       <path id="DejaVuSans-6f" d="M 1959 3097 
Q 1497 3097 1228 2736 
Q 959 2375 959 1747 
Q 959 1119 1226 758 
Q 1494 397 1959 397 
Q 2419 397 2687 759 
Q 2956 1122 2956 1747 
Q 2956 2369 2687 2733 
Q 2419 3097 1959 3097 
z
M 1959 3584 
Q 2709 3584 3137 3096 
Q 3566 2609 3566 1747 
Q 3566 888 3137 398 
Q 2709 -91 1959 -91 
Q 1206 -91 779 398 
Q 353 888 353 1747 
Q 353 2609 779 3096 
Q 1206 3584 1959 3584 
z
" transform="scale(0.015625)"/>
       <path id="DejaVuSans-57" d="M 213 4666 
L 850 4666 
L 1831 722 
L 2809 4666 
L 3519 4666 
L 4500 722 
L 5478 4666 
L 6119 4666 
L 4947 0 
L 4153 0 
L 3169 4050 
L 2175 0 
L 1381 0 
L 213 4666 
z
" transform="scale(0.015625)"/>
       <path id="DejaVuSans-68" d="M 3513 2113 
L 3513 0 
L 2938 0 
L 2938 2094 
Q 2938 2591 2744 2837 
Q 2550 3084 2163 3084 
Q 1697 3084 1428 2787 
Q 1159 2491 1159 1978 
L 1159 0 
L 581 0 
L 581 4863 
L 1159 4863 
L 1159 2956 
Q 1366 3272 1645 3428 
Q 1925 3584 2291 3584 
Q 2894 3584 3203 3211 
Q 3513 2838 3513 2113 
z
" transform="scale(0.015625)"/>
      </defs>
      <use xlink:href="#DejaVuSans-41"/>
      <use xlink:href="#DejaVuSans-76" transform="translate(62.533203 0)"/>
      <use xlink:href="#DejaVuSans-65" transform="translate(121.712891 0)"/>
      <use xlink:href="#DejaVuSans-72" transform="translate(183.236328 0)"/>
      <use xlink:href="#DejaVuSans-61" transform="translate(224.349609 0)"/>
      <use xlink:href="#DejaVuSans-67" transform="translate(285.628906 0)"/>
      <use xlink:href="#DejaVuSans-65" transform="translate(349.105469 0)"/>
      <use xlink:href="#DejaVuSans-20" transform="translate(410.628906 0)"/>
      <use xlink:href="#DejaVuSans-41" transform="translate(442.416016 0)"/>
      <use xlink:href="#DejaVuSans-74" transform="translate(509.074219 0)"/>
      <use xlink:href="#DejaVuSans-74" transform="translate(548.283203 0)"/>
      <use xlink:href="#DejaVuSans-65" transform="translate(587.492188 0)"/>
      <use xlink:href="#DejaVuSans-6e" transform="translate(649.015625 0)"/>
      <use xlink:href="#DejaVuSans-74" transform="translate(712.394531 0)"/>
      <use xlink:href="#DejaVuSans-69" transform="translate(751.603516 0)"/>
      <use xlink:href="#DejaVuSans-6f" transform="translate(779.386719 0)"/>
      <use xlink:href="#DejaVuSans-6e" transform="translate(840.568359 0)"/>
      <use xlink:href="#DejaVuSans-20" transform="translate(903.947266 0)"/>
      <use xlink:href="#DejaVuSans-57" transform="translate(935.734375 0)"/>
      <use xlink:href="#DejaVuSans-65" transform="translate(1028.736328 0)"/>
      <use xlink:href="#DejaVuSans-69" transform="translate(1090.259766 0)"/>
      <use xlink:href="#DejaVuSans-67" transform="translate(1118.042969 0)"/>
      <use xlink:href="#DejaVuSans-68" transform="translate(1181.519531 0)"/>
      <use xlink:href="#DejaVuSans-74" transform="translate(1244.898438 0)"/>
     </g>
    </g>
   </g>
   <g id="FillBetweenPolyCollection_1">
    <defs>
     <path id="m02aa2d4176" d="M 103.631648 -63.576607 
L 103.631648 -50.418806 
L 526.904375 -55.077133 
L 950.177102 -51.596915 
L 950.177102 -64.509139 
L 950.177102 -64.509139 
L 526.904375 -59.005281 
L 103.631648 -63.576607 
z
" style="stroke: #440154; stroke-opacity: 0.2"/>
    </defs>
    <g clip-path="url(#p023f441d55)">
     <use xlink:href="#m02aa2d4176" x="0" y="350.889687" style="fill: #440154; fill-opacity: 0.2; stroke: #440154; stroke-opacity: 0.2"/>
    </g>
   </g>
   <g id="FillBetweenPolyCollection_2">
    <defs>
     <path id="mbb7b974362" d="M 103.631648 -313.821875 
L 103.631648 -161.760593 
L 526.904375 -127.298261 
L 950.177102 -127.298261 
L 950.177102 -193.931746 
L 950.177102 -193.931746 
L 526.904375 -193.931746 
L 103.631648 -313.821875 
z
" style="stroke: #443983; stroke-opacity: 0.2"/>
    </defs>
    <g clip-path="url(#p023f441d55)">
     <use xlink:href="#mbb7b974362" x="0" y="350.889687" style="fill: #443983; fill-opacity: 0.2; stroke: #443983; stroke-opacity: 0.2"/>
    </g>
   </g>
   <g id="FillBetweenPolyCollection_3">
    <defs>
     <path id="mea5fc4df2b" d="M 103.631648 -63.110457 
L 103.631648 -49.221875 
L 526.904375 -52.742755 
L 950.177102 -52.424867 
L 950.177102 -65.900482 
L 950.177102 -65.900482 
L 526.904375 -60.783645 
L 103.631648 -63.110457 
z
" style="stroke: #31688e; stroke-opacity: 0.2"/>
    </defs>
    <g clip-path="url(#p023f441d55)">
     <use xlink:href="#mea5fc4df2b" x="0" y="350.889687" style="fill: #31688e; fill-opacity: 0.2; stroke: #31688e; stroke-opacity: 0.2"/>
    </g>
   </g>
   <g id="FillBetweenPolyCollection_4">
    <defs>
     <path id="md9d2d52439" d="M 103.631648 -260.007958 
L 103.631648 -200.927923 
L 526.904375 -150.875834 
L 950.177102 -150.875834 
L 950.177102 -176.760795 
L 950.177102 -176.760795 
L 526.904375 -176.760795 
L 103.631648 -260.007958 
z
" style="stroke: #21918c; stroke-opacity: 0.2"/>
    </defs>
    <g clip-path="url(#p023f441d55)">
     <use xlink:href="#md9d2d52439" x="0" y="350.889687" style="fill: #21918c; fill-opacity: 0.2; stroke: #21918c; stroke-opacity: 0.2"/>
    </g>
   </g>
   <g id="FillBetweenPolyCollection_5">
    <defs>
     <path id="m0ba2f45fc3" d="M 103.631648 -64.803876 
L 103.631648 -55.657095 
L 526.904375 -51.192379 
L 950.177102 -54.484836 
L 950.177102 -61.588722 
L 950.177102 -61.588722 
L 526.904375 -56.457211 
L 103.631648 -64.803876 
z
" style="stroke: #35b779; stroke-opacity: 0.2"/>
    </defs>
    <g clip-path="url(#p023f441d55)">
     <use xlink:href="#m0ba2f45fc3" x="0" y="350.889687" style="fill: #35b779; fill-opacity: 0.2; stroke: #35b779; stroke-opacity: 0.2"/>
    </g>
   </g>
   <g id="FillBetweenPolyCollection_6">
    <defs>
     <path id="m15a979362e" d="M 103.631648 -252.524534 
L 103.631648 -177.895486 
L 526.904375 -154.141055 
L 950.177102 -154.141055 
L 950.177102 -186.975458 
L 950.177102 -186.975458 
L 526.904375 -186.975458 
L 103.631648 -252.524534 
z
" style="stroke: #90d743; stroke-opacity: 0.2"/>
    </defs>
    <g clip-path="url(#p023f441d55)">
     <use xlink:href="#m15a979362e" x="0" y="350.889687" style="fill: #90d743; fill-opacity: 0.2; stroke: #90d743; stroke-opacity: 0.2"/>
    </g>
   </g>
   <g id="FillBetweenPolyCollection_7">
    <defs>
     <path id="m3acc3faf91" d="M 103.631648 -244.121066 
L 103.631648 -187.669589 
L 526.904375 -157.817036 
L 950.177102 -157.817036 
L 950.177102 -182.67737 
L 950.177102 -182.67737 
L 526.904375 -182.67737 
L 103.631648 -244.121066 
z
" style="stroke: #fde725; stroke-opacity: 0.2"/>
    </defs>
    <g clip-path="url(#p023f441d55)">
     <use xlink:href="#m3acc3faf91" x="0" y="350.889687" style="fill: #fde725; fill-opacity: 0.2; stroke: #fde725; stroke-opacity: 0.2"/>
    </g>
   </g>
   <g id="line2d_35">
    <path d="M 103.631648 293.891981 
L 526.904375 293.848481 
L 950.177102 292.836661 
" clip-path="url(#p023f441d55)" style="fill: none; stroke: #440154; stroke-opacity: 0.8; stroke-width: 2; stroke-linecap: round"/>
    <defs>
     <path id="mbe2ecea961" d="M 0 2.5 
C 0.663008 2.5 1.29895 2.236584 1.767767 1.767767 
C 2.236584 1.29895 2.5 0.663008 2.5 0 
C 2.5 -0.663008 2.236584 -1.29895 1.767767 -1.767767 
C 1.29895 -2.236584 0.663008 -2.5 0 -2.5 
C -0.663008 -2.5 -1.29895 -2.236584 -1.767767 -1.767767 
C -2.236584 -1.29895 -2.5 -0.663008 -2.5 0 
C -2.5 0.663008 -2.236584 1.29895 -1.767767 1.767767 
C -1.29895 2.236584 -0.663008 2.5 0 2.5 
z
" style="stroke: #440154; stroke-opacity: 0.8"/>
    </defs>
    <g clip-path="url(#p023f441d55)">
     <use xlink:href="#mbe2ecea961" x="103.631648" y="293.891981" style="fill: #440154; fill-opacity: 0.8; stroke: #440154; stroke-opacity: 0.8"/>
     <use xlink:href="#mbe2ecea961" x="526.904375" y="293.848481" style="fill: #440154; fill-opacity: 0.8; stroke: #440154; stroke-opacity: 0.8"/>
     <use xlink:href="#mbe2ecea961" x="950.177102" y="292.836661" style="fill: #440154; fill-opacity: 0.8; stroke: #440154; stroke-opacity: 0.8"/>
    </g>
   </g>
   <g id="line2d_36">
    <path d="M 103.631648 113.098453 
L 526.904375 190.274684 
L 950.177102 190.274684 
" clip-path="url(#p023f441d55)" style="fill: none; stroke: #443983; stroke-opacity: 0.8; stroke-width: 2; stroke-linecap: round"/>
    <defs>
     <path id="m4ea3098e60" d="M 0 2.5 
C 0.663008 2.5 1.29895 2.236584 1.767767 1.767767 
C 2.236584 1.29895 2.5 0.663008 2.5 0 
C 2.5 -0.663008 2.236584 -1.29895 1.767767 -1.767767 
C 1.29895 -2.236584 0.663008 -2.5 0 -2.5 
C -0.663008 -2.5 -1.29895 -2.236584 -1.767767 -1.767767 
C -2.236584 -1.29895 -2.5 -0.663008 -2.5 0 
C -2.5 0.663008 -2.236584 1.29895 -1.767767 1.767767 
C -1.29895 2.236584 -0.663008 2.5 0 2.5 
z
" style="stroke: #443983; stroke-opacity: 0.8"/>
    </defs>
    <g clip-path="url(#p023f441d55)">
     <use xlink:href="#m4ea3098e60" x="103.631648" y="113.098453" style="fill: #443983; fill-opacity: 0.8; stroke: #443983; stroke-opacity: 0.8"/>
     <use xlink:href="#m4ea3098e60" x="526.904375" y="190.274684" style="fill: #443983; fill-opacity: 0.8; stroke: #443983; stroke-opacity: 0.8"/>
     <use xlink:href="#m4ea3098e60" x="950.177102" y="190.274684" style="fill: #443983; fill-opacity: 0.8; stroke: #443983; stroke-opacity: 0.8"/>
    </g>
   </g>
   <g id="line2d_37">
    <path d="M 103.631648 294.723522 
L 526.904375 294.126487 
L 950.177102 291.727013 
" clip-path="url(#p023f441d55)" style="fill: none; stroke: #31688e; stroke-opacity: 0.8; stroke-width: 2; stroke-linecap: round"/>
    <defs>
     <path id="m757b5266ff" d="M 0 2.5 
C 0.663008 2.5 1.29895 2.236584 1.767767 1.767767 
C 2.236584 1.29895 2.5 0.663008 2.5 0 
C 2.5 -0.663008 2.236584 -1.29895 1.767767 -1.767767 
C 1.29895 -2.236584 0.663008 -2.5 0 -2.5 
C -0.663008 -2.5 -1.29895 -2.236584 -1.767767 -1.767767 
C -2.236584 -1.29895 -2.5 -0.663008 -2.5 0 
C -2.5 0.663008 -2.236584 1.29895 -1.767767 1.767767 
C -1.29895 2.236584 -0.663008 2.5 0 2.5 
z
" style="stroke: #31688e; stroke-opacity: 0.8"/>
    </defs>
    <g clip-path="url(#p023f441d55)">
     <use xlink:href="#m757b5266ff" x="103.631648" y="294.723522" style="fill: #31688e; fill-opacity: 0.8; stroke: #31688e; stroke-opacity: 0.8"/>
     <use xlink:href="#m757b5266ff" x="526.904375" y="294.126487" style="fill: #31688e; fill-opacity: 0.8; stroke: #31688e; stroke-opacity: 0.8"/>
     <use xlink:href="#m757b5266ff" x="950.177102" y="291.727013" style="fill: #31688e; fill-opacity: 0.8; stroke: #31688e; stroke-opacity: 0.8"/>
    </g>
   </g>
   <g id="line2d_38">
    <path d="M 103.631648 120.421747 
L 526.904375 187.071373 
L 950.177102 187.071373 
" clip-path="url(#p023f441d55)" style="fill: none; stroke: #21918c; stroke-opacity: 0.8; stroke-width: 2; stroke-linecap: round"/>
    <defs>
     <path id="mcbe124c2e0" d="M 0 2.5 
C 0.663008 2.5 1.29895 2.236584 1.767767 1.767767 
C 2.236584 1.29895 2.5 0.663008 2.5 0 
C 2.5 -0.663008 2.236584 -1.29895 1.767767 -1.767767 
C 1.29895 -2.236584 0.663008 -2.5 0 -2.5 
C -0.663008 -2.5 -1.29895 -2.236584 -1.767767 -1.767767 
C -2.236584 -1.29895 -2.5 -0.663008 -2.5 0 
C -2.5 0.663008 -2.236584 1.29895 -1.767767 1.767767 
C -1.29895 2.236584 -0.663008 2.5 0 2.5 
z
" style="stroke: #21918c; stroke-opacity: 0.8"/>
    </defs>
    <g clip-path="url(#p023f441d55)">
     <use xlink:href="#mcbe124c2e0" x="103.631648" y="120.421747" style="fill: #21918c; fill-opacity: 0.8; stroke: #21918c; stroke-opacity: 0.8"/>
     <use xlink:href="#mcbe124c2e0" x="526.904375" y="187.071373" style="fill: #21918c; fill-opacity: 0.8; stroke: #21918c; stroke-opacity: 0.8"/>
     <use xlink:href="#mcbe124c2e0" x="950.177102" y="187.071373" style="fill: #21918c; fill-opacity: 0.8; stroke: #21918c; stroke-opacity: 0.8"/>
    </g>
   </g>
   <g id="line2d_39">
    <path d="M 103.631648 290.659202 
L 526.904375 297.064893 
L 950.177102 292.852909 
" clip-path="url(#p023f441d55)" style="fill: none; stroke: #35b779; stroke-opacity: 0.8; stroke-width: 2; stroke-linecap: round"/>
    <defs>
     <path id="m6f74863a29" d="M 0 2.5 
C 0.663008 2.5 1.29895 2.236584 1.767767 1.767767 
C 2.236584 1.29895 2.5 0.663008 2.5 0 
C 2.5 -0.663008 2.236584 -1.29895 1.767767 -1.767767 
C 1.29895 -2.236584 0.663008 -2.5 0 -2.5 
C -0.663008 -2.5 -1.29895 -2.236584 -1.767767 -1.767767 
C -2.236584 -1.29895 -2.5 -0.663008 -2.5 0 
C -2.5 0.663008 -2.236584 1.29895 -1.767767 1.767767 
C -1.29895 2.236584 -0.663008 2.5 0 2.5 
z
" style="stroke: #35b779; stroke-opacity: 0.8"/>
    </defs>
    <g clip-path="url(#p023f441d55)">
     <use xlink:href="#m6f74863a29" x="103.631648" y="290.659202" style="fill: #35b779; fill-opacity: 0.8; stroke: #35b779; stroke-opacity: 0.8"/>
     <use xlink:href="#m6f74863a29" x="526.904375" y="297.064893" style="fill: #35b779; fill-opacity: 0.8; stroke: #35b779; stroke-opacity: 0.8"/>
     <use xlink:href="#m6f74863a29" x="950.177102" y="292.852909" style="fill: #35b779; fill-opacity: 0.8; stroke: #35b779; stroke-opacity: 0.8"/>
    </g>
   </g>
   <g id="line2d_40">
    <path d="M 103.631648 135.679678 
L 526.904375 180.331431 
L 950.177102 180.331431 
" clip-path="url(#p023f441d55)" style="fill: none; stroke: #90d743; stroke-opacity: 0.8; stroke-width: 2; stroke-linecap: round"/>
    <defs>
     <path id="m5ca0387844" d="M 0 2.5 
C 0.663008 2.5 1.29895 2.236584 1.767767 1.767767 
C 2.236584 1.29895 2.5 0.663008 2.5 0 
C 2.5 -0.663008 2.236584 -1.29895 1.767767 -1.767767 
C 1.29895 -2.236584 0.663008 -2.5 0 -2.5 
C -0.663008 -2.5 -1.29895 -2.236584 -1.767767 -1.767767 
C -2.236584 -1.29895 -2.5 -0.663008 -2.5 0 
C -2.5 0.663008 -2.236584 1.29895 -1.767767 1.767767 
C -1.29895 2.236584 -0.663008 2.5 0 2.5 
z
" style="stroke: #90d743; stroke-opacity: 0.8"/>
    </defs>
    <g clip-path="url(#p023f441d55)">
     <use xlink:href="#m5ca0387844" x="103.631648" y="135.679678" style="fill: #90d743; fill-opacity: 0.8; stroke: #90d743; stroke-opacity: 0.8"/>
     <use xlink:href="#m5ca0387844" x="526.904375" y="180.331431" style="fill: #90d743; fill-opacity: 0.8; stroke: #90d743; stroke-opacity: 0.8"/>
     <use xlink:href="#m5ca0387844" x="950.177102" y="180.331431" style="fill: #90d743; fill-opacity: 0.8; stroke: #90d743; stroke-opacity: 0.8"/>
    </g>
   </g>
   <g id="line2d_41">
    <path d="M 103.631648 134.99436 
L 526.904375 180.642485 
L 950.177102 180.642485 
" clip-path="url(#p023f441d55)" style="fill: none; stroke: #fde725; stroke-opacity: 0.8; stroke-width: 2; stroke-linecap: round"/>
    <defs>
     <path id="m7b48060664" d="M 0 2.5 
C 0.663008 2.5 1.29895 2.236584 1.767767 1.767767 
C 2.236584 1.29895 2.5 0.663008 2.5 0 
C 2.5 -0.663008 2.236584 -1.29895 1.767767 -1.767767 
C 1.29895 -2.236584 0.663008 -2.5 0 -2.5 
C -0.663008 -2.5 -1.29895 -2.236584 -1.767767 -1.767767 
C -2.236584 -1.29895 -2.5 -0.663008 -2.5 0 
C -2.5 0.663008 -2.236584 1.29895 -1.767767 1.767767 
C -1.29895 2.236584 -0.663008 2.5 0 2.5 
z
" style="stroke: #fde725; stroke-opacity: 0.8"/>
    </defs>
    <g clip-path="url(#p023f441d55)">
     <use xlink:href="#m7b48060664" x="103.631648" y="134.99436" style="fill: #fde725; fill-opacity: 0.8; stroke: #fde725; stroke-opacity: 0.8"/>
     <use xlink:href="#m7b48060664" x="526.904375" y="180.642485" style="fill: #fde725; fill-opacity: 0.8; stroke: #fde725; stroke-opacity: 0.8"/>
     <use xlink:href="#m7b48060664" x="950.177102" y="180.642485" style="fill: #fde725; fill-opacity: 0.8; stroke: #fde725; stroke-opacity: 0.8"/>
    </g>
   </g>
   <g id="patch_3">
    <path d="M 61.304375 314.897812 
L 61.304375 23.837812 
" style="fill: none; stroke: #cccccc; stroke-linejoin: miter; stroke-linecap: square"/>
   </g>
   <g id="patch_4">
    <path d="M 992.504375 314.897812 
L 992.504375 23.837812 
" style="fill: none; stroke: #cccccc; stroke-linejoin: miter; stroke-linecap: square"/>
   </g>
   <g id="patch_5">
    <path d="M 61.304375 314.897812 
L 992.504375 314.897812 
" style="fill: none; stroke: #cccccc; stroke-linejoin: miter; stroke-linecap: square"/>
   </g>
   <g id="patch_6">
    <path d="M 61.304375 23.837812 
L 992.504375 23.837812 
" style="fill: none; stroke: #cccccc; stroke-linejoin: miter; stroke-linecap: square"/>
   </g>
   <g id="text_20">
    <!-- Head-Averaged Attention Distribution Across Layers -->
    <g style="fill: #262626" transform="translate(319.95375 17.837812) scale(0.14 -0.14)">
     <defs>
      <path id="DejaVuSans-Bold-48" d="M 588 4666 
L 1791 4666 
L 1791 2888 
L 3566 2888 
L 3566 4666 
L 4769 4666 
L 4769 0 
L 3566 0 
L 3566 1978 
L 1791 1978 
L 1791 0 
L 588 0 
L 588 4666 
z
" transform="scale(0.015625)"/>
      <path id="DejaVuSans-Bold-65" d="M 4031 1759 
L 4031 1441 
L 1416 1441 
Q 1456 1047 1700 850 
Q 1944 653 2381 653 
Q 2734 653 3104 758 
Q 3475 863 3866 1075 
L 3866 213 
Q 3469 63 3072 -14 
Q 2675 -91 2278 -91 
Q 1328 -91 801 392 
Q 275 875 275 1747 
Q 275 2603 792 3093 
Q 1309 3584 2216 3584 
Q 3041 3584 3536 3087 
Q 4031 2591 4031 1759 
z
M 2881 2131 
Q 2881 2450 2695 2645 
Q 2509 2841 2209 2841 
Q 1884 2841 1681 2658 
Q 1478 2475 1428 2131 
L 2881 2131 
z
" transform="scale(0.015625)"/>
      <path id="DejaVuSans-Bold-61" d="M 2106 1575 
Q 1756 1575 1579 1456 
Q 1403 1338 1403 1106 
Q 1403 894 1545 773 
Q 1688 653 1941 653 
Q 2256 653 2472 879 
Q 2688 1106 2688 1447 
L 2688 1575 
L 2106 1575 
z
M 3816 1997 
L 3816 0 
L 2688 0 
L 2688 519 
Q 2463 200 2181 54 
Q 1900 -91 1497 -91 
Q 953 -91 614 226 
Q 275 544 275 1050 
Q 275 1666 698 1953 
Q 1122 2241 2028 2241 
L 2688 2241 
L 2688 2328 
Q 2688 2594 2478 2717 
Q 2269 2841 1825 2841 
Q 1466 2841 1156 2769 
Q 847 2697 581 2553 
L 581 3406 
Q 941 3494 1303 3539 
Q 1666 3584 2028 3584 
Q 2975 3584 3395 3211 
Q 3816 2838 3816 1997 
z
" transform="scale(0.015625)"/>
      <path id="DejaVuSans-Bold-64" d="M 2919 2988 
L 2919 4863 
L 4044 4863 
L 4044 0 
L 2919 0 
L 2919 506 
Q 2688 197 2409 53 
Q 2131 -91 1766 -91 
Q 1119 -91 703 423 
Q 288 938 288 1747 
Q 288 2556 703 3070 
Q 1119 3584 1766 3584 
Q 2128 3584 2408 3439 
Q 2688 3294 2919 2988 
z
M 2181 722 
Q 2541 722 2730 984 
Q 2919 1247 2919 1747 
Q 2919 2247 2730 2509 
Q 2541 2772 2181 2772 
Q 1825 2772 1636 2509 
Q 1447 2247 1447 1747 
Q 1447 1247 1636 984 
Q 1825 722 2181 722 
z
" transform="scale(0.015625)"/>
      <path id="DejaVuSans-Bold-2d" d="M 347 2297 
L 2309 2297 
L 2309 1388 
L 347 1388 
L 347 2297 
z
" transform="scale(0.015625)"/>
      <path id="DejaVuSans-Bold-41" d="M 3419 850 
L 1538 850 
L 1241 0 
L 31 0 
L 1759 4666 
L 3194 4666 
L 4922 0 
L 3713 0 
L 3419 850 
z
M 1838 1716 
L 3116 1716 
L 2478 3572 
L 1838 1716 
z
" transform="scale(0.015625)"/>
      <path id="DejaVuSans-Bold-76" d="M 97 3500 
L 1216 3500 
L 2088 1081 
L 2956 3500 
L 4078 3500 
L 2700 0 
L 1472 0 
L 97 3500 
z
" transform="scale(0.015625)"/>
      <path id="DejaVuSans-Bold-72" d="M 3138 2547 
Q 2991 2616 2845 2648 
Q 2700 2681 2553 2681 
Q 2122 2681 1889 2404 
Q 1656 2128 1656 1613 
L 1656 0 
L 538 0 
L 538 3500 
L 1656 3500 
L 1656 2925 
Q 1872 3269 2151 3426 
Q 2431 3584 2822 3584 
Q 2878 3584 2943 3579 
Q 3009 3575 3134 3559 
L 3138 2547 
z
" transform="scale(0.015625)"/>
      <path id="DejaVuSans-Bold-67" d="M 2919 594 
Q 2688 288 2409 144 
Q 2131 0 1766 0 
Q 1125 0 706 504 
Q 288 1009 288 1791 
Q 288 2575 706 3076 
Q 1125 3578 1766 3578 
Q 2131 3578 2409 3434 
Q 2688 3291 2919 2981 
L 2919 3500 
L 4044 3500 
L 4044 353 
Q 4044 -491 3511 -936 
Q 2978 -1381 1966 -1381 
Q 1638 -1381 1331 -1331 
Q 1025 -1281 716 -1178 
L 716 -306 
Q 1009 -475 1290 -558 
Q 1572 -641 1856 -641 
Q 2406 -641 2662 -400 
Q 2919 -159 2919 353 
L 2919 594 
z
M 2181 2772 
Q 1834 2772 1640 2515 
Q 1447 2259 1447 1791 
Q 1447 1309 1634 1061 
Q 1822 813 2181 813 
Q 2531 813 2725 1069 
Q 2919 1325 2919 1791 
Q 2919 2259 2725 2515 
Q 2531 2772 2181 2772 
z
" transform="scale(0.015625)"/>
      <path id="DejaVuSans-Bold-20" transform="scale(0.015625)"/>
      <path id="DejaVuSans-Bold-74" d="M 1759 4494 
L 1759 3500 
L 2913 3500 
L 2913 2700 
L 1759 2700 
L 1759 1216 
Q 1759 972 1856 886 
Q 1953 800 2241 800 
L 2816 800 
L 2816 0 
L 1856 0 
Q 1194 0 917 276 
Q 641 553 641 1216 
L 641 2700 
L 84 2700 
L 84 3500 
L 641 3500 
L 641 4494 
L 1759 4494 
z
" transform="scale(0.015625)"/>
      <path id="DejaVuSans-Bold-6e" d="M 4056 2131 
L 4056 0 
L 2931 0 
L 2931 347 
L 2931 1631 
Q 2931 2084 2911 2256 
Q 2891 2428 2841 2509 
Q 2775 2619 2662 2680 
Q 2550 2741 2406 2741 
Q 2056 2741 1856 2470 
Q 1656 2200 1656 1722 
L 1656 0 
L 538 0 
L 538 3500 
L 1656 3500 
L 1656 2988 
Q 1909 3294 2193 3439 
Q 2478 3584 2822 3584 
Q 3428 3584 3742 3212 
Q 4056 2841 4056 2131 
z
" transform="scale(0.015625)"/>
      <path id="DejaVuSans-Bold-69" d="M 538 3500 
L 1656 3500 
L 1656 0 
L 538 0 
L 538 3500 
z
M 538 4863 
L 1656 4863 
L 1656 3950 
L 538 3950 
L 538 4863 
z
" transform="scale(0.015625)"/>
      <path id="DejaVuSans-Bold-6f" d="M 2203 2784 
Q 1831 2784 1636 2517 
Q 1441 2250 1441 1747 
Q 1441 1244 1636 976 
Q 1831 709 2203 709 
Q 2569 709 2762 976 
Q 2956 1244 2956 1747 
Q 2956 2250 2762 2517 
Q 2569 2784 2203 2784 
z
M 2203 3584 
Q 3106 3584 3614 3096 
Q 4122 2609 4122 1747 
Q 4122 884 3614 396 
Q 3106 -91 2203 -91 
Q 1297 -91 786 396 
Q 275 884 275 1747 
Q 275 2609 786 3096 
Q 1297 3584 2203 3584 
z
" transform="scale(0.015625)"/>
      <path id="DejaVuSans-Bold-44" d="M 1791 3756 
L 1791 909 
L 2222 909 
Q 2959 909 3348 1275 
Q 3738 1641 3738 2338 
Q 3738 3031 3350 3393 
Q 2963 3756 2222 3756 
L 1791 3756 
z
M 588 4666 
L 1856 4666 
Q 2919 4666 3439 4514 
Q 3959 4363 4331 4000 
Q 4659 3684 4818 3271 
Q 4978 2859 4978 2338 
Q 4978 1809 4818 1395 
Q 4659 981 4331 666 
Q 3956 303 3431 151 
Q 2906 0 1856 0 
L 588 0 
L 588 4666 
z
" transform="scale(0.015625)"/>
      <path id="DejaVuSans-Bold-73" d="M 3272 3391 
L 3272 2541 
Q 2913 2691 2578 2766 
Q 2244 2841 1947 2841 
Q 1628 2841 1473 2761 
Q 1319 2681 1319 2516 
Q 1319 2381 1436 2309 
Q 1553 2238 1856 2203 
L 2053 2175 
Q 2913 2066 3209 1816 
Q 3506 1566 3506 1031 
Q 3506 472 3093 190 
Q 2681 -91 1863 -91 
Q 1516 -91 1145 -36 
Q 775 19 384 128 
L 384 978 
Q 719 816 1070 734 
Q 1422 653 1784 653 
Q 2113 653 2278 743 
Q 2444 834 2444 1013 
Q 2444 1163 2330 1236 
Q 2216 1309 1875 1350 
L 1678 1375 
Q 931 1469 631 1722 
Q 331 1975 331 2491 
Q 331 3047 712 3315 
Q 1094 3584 1881 3584 
Q 2191 3584 2531 3537 
Q 2872 3491 3272 3391 
z
" transform="scale(0.015625)"/>
      <path id="DejaVuSans-Bold-62" d="M 2400 722 
Q 2759 722 2948 984 
Q 3138 1247 3138 1747 
Q 3138 2247 2948 2509 
Q 2759 2772 2400 2772 
Q 2041 2772 1848 2508 
Q 1656 2244 1656 1747 
Q 1656 1250 1848 986 
Q 2041 722 2400 722 
z
M 1656 2988 
Q 1888 3294 2169 3439 
Q 2450 3584 2816 3584 
Q 3463 3584 3878 3070 
Q 4294 2556 4294 1747 
Q 4294 938 3878 423 
Q 3463 -91 2816 -91 
Q 2450 -91 2169 54 
Q 1888 200 1656 506 
L 1656 0 
L 538 0 
L 538 4863 
L 1656 4863 
L 1656 2988 
z
" transform="scale(0.015625)"/>
      <path id="DejaVuSans-Bold-75" d="M 500 1363 
L 500 3500 
L 1625 3500 
L 1625 3150 
Q 1625 2866 1622 2436 
Q 1619 2006 1619 1863 
Q 1619 1441 1641 1255 
Q 1663 1069 1716 984 
Q 1784 875 1895 815 
Q 2006 756 2150 756 
Q 2500 756 2700 1025 
Q 2900 1294 2900 1772 
L 2900 3500 
L 4019 3500 
L 4019 0 
L 2900 0 
L 2900 506 
Q 2647 200 2364 54 
Q 2081 -91 1741 -91 
Q 1134 -91 817 281 
Q 500 653 500 1363 
z
" transform="scale(0.015625)"/>
      <path id="DejaVuSans-Bold-63" d="M 3366 3391 
L 3366 2478 
Q 3138 2634 2908 2709 
Q 2678 2784 2431 2784 
Q 1963 2784 1702 2511 
Q 1441 2238 1441 1747 
Q 1441 1256 1702 982 
Q 1963 709 2431 709 
Q 2694 709 2930 787 
Q 3166 866 3366 1019 
L 3366 103 
Q 3103 6 2833 -42 
Q 2563 -91 2291 -91 
Q 1344 -91 809 395 
Q 275 881 275 1747 
Q 275 2613 809 3098 
Q 1344 3584 2291 3584 
Q 2566 3584 2833 3536 
Q 3100 3488 3366 3391 
z
" transform="scale(0.015625)"/>
      <path id="DejaVuSans-Bold-4c" d="M 588 4666 
L 1791 4666 
L 1791 909 
L 3903 909 
L 3903 0 
L 588 0 
L 588 4666 
z
" transform="scale(0.015625)"/>
      <path id="DejaVuSans-Bold-79" d="M 78 3500 
L 1197 3500 
L 2138 1125 
L 2938 3500 
L 4056 3500 
L 2584 -331 
Q 2363 -916 2067 -1148 
Q 1772 -1381 1288 -1381 
L 641 -1381 
L 641 -647 
L 991 -647 
Q 1275 -647 1404 -556 
Q 1534 -466 1606 -231 
L 1638 -134 
L 78 3500 
z
" transform="scale(0.015625)"/>
     </defs>
     <use xlink:href="#DejaVuSans-Bold-48"/>
     <use xlink:href="#DejaVuSans-Bold-65" transform="translate(83.691406 0)"/>
     <use xlink:href="#DejaVuSans-Bold-61" transform="translate(151.513672 0)"/>
     <use xlink:href="#DejaVuSans-Bold-64" transform="translate(218.994141 0)"/>
     <use xlink:href="#DejaVuSans-Bold-2d" transform="translate(290.576172 0)"/>
     <use xlink:href="#DejaVuSans-Bold-41" transform="translate(332.080078 0)"/>
     <use xlink:href="#DejaVuSans-Bold-76" transform="translate(405.847656 0)"/>
     <use xlink:href="#DejaVuSans-Bold-65" transform="translate(471.033203 0)"/>
     <use xlink:href="#DejaVuSans-Bold-72" transform="translate(538.855469 0)"/>
     <use xlink:href="#DejaVuSans-Bold-61" transform="translate(588.171875 0)"/>
     <use xlink:href="#DejaVuSans-Bold-67" transform="translate(655.652344 0)"/>
     <use xlink:href="#DejaVuSans-Bold-65" transform="translate(727.234375 0)"/>
     <use xlink:href="#DejaVuSans-Bold-64" transform="translate(795.056641 0)"/>
     <use xlink:href="#DejaVuSans-Bold-20" transform="translate(866.638672 0)"/>
     <use xlink:href="#DejaVuSans-Bold-41" transform="translate(901.453125 0)"/>
     <use xlink:href="#DejaVuSans-Bold-74" transform="translate(978.845703 0)"/>
     <use xlink:href="#DejaVuSans-Bold-74" transform="translate(1026.648438 0)"/>
     <use xlink:href="#DejaVuSans-Bold-65" transform="translate(1074.451172 0)"/>
     <use xlink:href="#DejaVuSans-Bold-6e" transform="translate(1142.273438 0)"/>
     <use xlink:href="#DejaVuSans-Bold-74" transform="translate(1213.464844 0)"/>
     <use xlink:href="#DejaVuSans-Bold-69" transform="translate(1261.267578 0)"/>
     <use xlink:href="#DejaVuSans-Bold-6f" transform="translate(1295.544922 0)"/>
     <use xlink:href="#DejaVuSans-Bold-6e" transform="translate(1364.246094 0)"/>
     <use xlink:href="#DejaVuSans-Bold-20" transform="translate(1435.4375 0)"/>
     <use xlink:href="#DejaVuSans-Bold-44" transform="translate(1470.251953 0)"/>
     <use xlink:href="#DejaVuSans-Bold-69" transform="translate(1553.259766 0)"/>
     <use xlink:href="#DejaVuSans-Bold-73" transform="translate(1587.537109 0)"/>
     <use xlink:href="#DejaVuSans-Bold-74" transform="translate(1647.058594 0)"/>
     <use xlink:href="#DejaVuSans-Bold-72" transform="translate(1694.861328 0)"/>
     <use xlink:href="#DejaVuSans-Bold-69" transform="translate(1744.177734 0)"/>
     <use xlink:href="#DejaVuSans-Bold-62" transform="translate(1778.455078 0)"/>
     <use xlink:href="#DejaVuSans-Bold-75" transform="translate(1850.037109 0)"/>
     <use xlink:href="#DejaVuSans-Bold-74" transform="translate(1921.228516 0)"/>
     <use xlink:href="#DejaVuSans-Bold-69" transform="translate(1969.03125 0)"/>
     <use xlink:href="#DejaVuSans-Bold-6f" transform="translate(2003.308594 0)"/>
     <use xlink:href="#DejaVuSans-Bold-6e" transform="translate(2072.009766 0)"/>
     <use xlink:href="#DejaVuSans-Bold-20" transform="translate(2143.201172 0)"/>
     <use xlink:href="#DejaVuSans-Bold-41" transform="translate(2178.015625 0)"/>
     <use xlink:href="#DejaVuSans-Bold-63" transform="translate(2255.408203 0)"/>
     <use xlink:href="#DejaVuSans-Bold-72" transform="translate(2314.685547 0)"/>
     <use xlink:href="#DejaVuSans-Bold-6f" transform="translate(2364.001953 0)"/>
     <use xlink:href="#DejaVuSans-Bold-73" transform="translate(2432.703125 0)"/>
     <use xlink:href="#DejaVuSans-Bold-73" transform="translate(2492.224609 0)"/>
     <use xlink:href="#DejaVuSans-Bold-20" transform="translate(2551.746094 0)"/>
     <use xlink:href="#DejaVuSans-Bold-4c" transform="translate(2586.560547 0)"/>
     <use xlink:href="#DejaVuSans-Bold-61" transform="translate(2650.28125 0)"/>
     <use xlink:href="#DejaVuSans-Bold-79" transform="translate(2714.636719 0)"/>
     <use xlink:href="#DejaVuSans-Bold-65" transform="translate(2779.822266 0)"/>
     <use xlink:href="#DejaVuSans-Bold-72" transform="translate(2847.644531 0)"/>
     <use xlink:href="#DejaVuSans-Bold-73" transform="translate(2896.960938 0)"/>
    </g>
   </g>
   <g id="legend_1">
    <g id="line2d_42">
     <path d="M 911.718437 36.93625 
L 921.718437 36.93625 
L 931.718437 36.93625 
" style="fill: none; stroke: #440154; stroke-opacity: 0.8; stroke-width: 2; stroke-linecap: round"/>
     <g>
      <use xlink:href="#mbe2ecea961" x="921.718437" y="36.93625" style="fill: #440154; fill-opacity: 0.8; stroke: #440154; stroke-opacity: 0.8"/>
     </g>
    </g>
    <g id="text_21">
     <!-- Layer 1 -->
     <g style="fill: #262626" transform="translate(939.718437 40.43625) scale(0.1 -0.1)">
      <defs>
       <path id="DejaVuSans-4c" d="M 628 4666 
L 1259 4666 
L 1259 531 
L 3531 531 
L 3531 0 
L 628 0 
L 628 4666 
z
" transform="scale(0.015625)"/>
      </defs>
      <use xlink:href="#DejaVuSans-4c"/>
      <use xlink:href="#DejaVuSans-61" transform="translate(55.712891 0)"/>
      <use xlink:href="#DejaVuSans-79" transform="translate(116.992188 0)"/>
      <use xlink:href="#DejaVuSans-65" transform="translate(176.171875 0)"/>
      <use xlink:href="#DejaVuSans-72" transform="translate(237.695312 0)"/>
      <use xlink:href="#DejaVuSans-20" transform="translate(278.808594 0)"/>
      <use xlink:href="#DejaVuSans-31" transform="translate(310.595703 0)"/>
     </g>
    </g>
    <g id="line2d_43">
     <path d="M 911.718437 51.614375 
L 921.718437 51.614375 
L 931.718437 51.614375 
" style="fill: none; stroke: #443983; stroke-opacity: 0.8; stroke-width: 2; stroke-linecap: round"/>
     <g>
      <use xlink:href="#m4ea3098e60" x="921.718437" y="51.614375" style="fill: #443983; fill-opacity: 0.8; stroke: #443983; stroke-opacity: 0.8"/>
     </g>
    </g>
    <g id="text_22">
     <!-- Layer 2 -->
     <g style="fill: #262626" transform="translate(939.718437 55.114375) scale(0.1 -0.1)">
      <use xlink:href="#DejaVuSans-4c"/>
      <use xlink:href="#DejaVuSans-61" transform="translate(55.712891 0)"/>
      <use xlink:href="#DejaVuSans-79" transform="translate(116.992188 0)"/>
      <use xlink:href="#DejaVuSans-65" transform="translate(176.171875 0)"/>
      <use xlink:href="#DejaVuSans-72" transform="translate(237.695312 0)"/>
      <use xlink:href="#DejaVuSans-20" transform="translate(278.808594 0)"/>
      <use xlink:href="#DejaVuSans-32" transform="translate(310.595703 0)"/>
     </g>
    </g>
    <g id="line2d_44">
     <path d="M 911.718437 66.2925 
L 921.718437 66.2925 
L 931.718437 66.2925 
" style="fill: none; stroke: #31688e; stroke-opacity: 0.8; stroke-width: 2; stroke-linecap: round"/>
     <g>
      <use xlink:href="#m757b5266ff" x="921.718437" y="66.2925" style="fill: #31688e; fill-opacity: 0.8; stroke: #31688e; stroke-opacity: 0.8"/>
     </g>
    </g>
    <g id="text_23">
     <!-- Layer 5 -->
     <g style="fill: #262626" transform="translate(939.718437 69.7925) scale(0.1 -0.1)">
      <use xlink:href="#DejaVuSans-4c"/>
      <use xlink:href="#DejaVuSans-61" transform="translate(55.712891 0)"/>
      <use xlink:href="#DejaVuSans-79" transform="translate(116.992188 0)"/>
      <use xlink:href="#DejaVuSans-65" transform="translate(176.171875 0)"/>
      <use xlink:href="#DejaVuSans-72" transform="translate(237.695312 0)"/>
      <use xlink:href="#DejaVuSans-20" transform="translate(278.808594 0)"/>
      <use xlink:href="#DejaVuSans-35" transform="translate(310.595703 0)"/>
     </g>
    </g>
    <g id="line2d_45">
     <path d="M 911.718437 80.970625 
L 921.718437 80.970625 
L 931.718437 80.970625 
" style="fill: none; stroke: #21918c; stroke-opacity: 0.8; stroke-width: 2; stroke-linecap: round"/>
     <g>
      <use xlink:href="#mcbe124c2e0" x="921.718437" y="80.970625" style="fill: #21918c; fill-opacity: 0.8; stroke: #21918c; stroke-opacity: 0.8"/>
     </g>
    </g>
    <g id="text_24">
     <!-- Layer 6 -->
     <g style="fill: #262626" transform="translate(939.718437 84.470625) scale(0.1 -0.1)">
      <defs>
       <path id="DejaVuSans-36" d="M 2113 2584 
Q 1688 2584 1439 2293 
Q 1191 2003 1191 1497 
Q 1191 994 1439 701 
Q 1688 409 2113 409 
Q 2538 409 2786 701 
Q 3034 994 3034 1497 
Q 3034 2003 2786 2293 
Q 2538 2584 2113 2584 
z
M 3366 4563 
L 3366 3988 
Q 3128 4100 2886 4159 
Q 2644 4219 2406 4219 
Q 1781 4219 1451 3797 
Q 1122 3375 1075 2522 
Q 1259 2794 1537 2939 
Q 1816 3084 2150 3084 
Q 2853 3084 3261 2657 
Q 3669 2231 3669 1497 
Q 3669 778 3244 343 
Q 2819 -91 2113 -91 
Q 1303 -91 875 529 
Q 447 1150 447 2328 
Q 447 3434 972 4092 
Q 1497 4750 2381 4750 
Q 2619 4750 2861 4703 
Q 3103 4656 3366 4563 
z
" transform="scale(0.015625)"/>
      </defs>
      <use xlink:href="#DejaVuSans-4c"/>
      <use xlink:href="#DejaVuSans-61" transform="translate(55.712891 0)"/>
      <use xlink:href="#DejaVuSans-79" transform="translate(116.992188 0)"/>
      <use xlink:href="#DejaVuSans-65" transform="translate(176.171875 0)"/>
      <use xlink:href="#DejaVuSans-72" transform="translate(237.695312 0)"/>
      <use xlink:href="#DejaVuSans-20" transform="translate(278.808594 0)"/>
      <use xlink:href="#DejaVuSans-36" transform="translate(310.595703 0)"/>
     </g>
    </g>
    <g id="line2d_46">
     <path d="M 911.718437 95.64875 
L 921.718437 95.64875 
L 931.718437 95.64875 
" style="fill: none; stroke: #35b779; stroke-opacity: 0.8; stroke-width: 2; stroke-linecap: round"/>
     <g>
      <use xlink:href="#m6f74863a29" x="921.718437" y="95.64875" style="fill: #35b779; fill-opacity: 0.8; stroke: #35b779; stroke-opacity: 0.8"/>
     </g>
    </g>
    <g id="text_25">
     <!-- Layer 15 -->
     <g style="fill: #262626" transform="translate(939.718437 99.14875) scale(0.1 -0.1)">
      <use xlink:href="#DejaVuSans-4c"/>
      <use xlink:href="#DejaVuSans-61" transform="translate(55.712891 0)"/>
      <use xlink:href="#DejaVuSans-79" transform="translate(116.992188 0)"/>
      <use xlink:href="#DejaVuSans-65" transform="translate(176.171875 0)"/>
      <use xlink:href="#DejaVuSans-72" transform="translate(237.695312 0)"/>
      <use xlink:href="#DejaVuSans-20" transform="translate(278.808594 0)"/>
      <use xlink:href="#DejaVuSans-31" transform="translate(310.595703 0)"/>
      <use xlink:href="#DejaVuSans-35" transform="translate(374.21875 0)"/>
     </g>
    </g>
    <g id="line2d_47">
     <path d="M 911.718437 110.326875 
L 921.718437 110.326875 
L 931.718437 110.326875 
" style="fill: none; stroke: #90d743; stroke-opacity: 0.8; stroke-width: 2; stroke-linecap: round"/>
     <g>
      <use xlink:href="#m5ca0387844" x="921.718437" y="110.326875" style="fill: #90d743; fill-opacity: 0.8; stroke: #90d743; stroke-opacity: 0.8"/>
     </g>
    </g>
    <g id="text_26">
     <!-- Layer 16 -->
     <g style="fill: #262626" transform="translate(939.718437 113.826875) scale(0.1 -0.1)">
      <use xlink:href="#DejaVuSans-4c"/>
      <use xlink:href="#DejaVuSans-61" transform="translate(55.712891 0)"/>
      <use xlink:href="#DejaVuSans-79" transform="translate(116.992188 0)"/>
      <use xlink:href="#DejaVuSans-65" transform="translate(176.171875 0)"/>
      <use xlink:href="#DejaVuSans-72" transform="translate(237.695312 0)"/>
      <use xlink:href="#DejaVuSans-20" transform="translate(278.808594 0)"/>
      <use xlink:href="#DejaVuSans-31" transform="translate(310.595703 0)"/>
      <use xlink:href="#DejaVuSans-36" transform="translate(374.21875 0)"/>
     </g>
    </g>
    <g id="line2d_48">
     <path d="M 911.718437 125.005 
L 921.718437 125.005 
L 931.718437 125.005 
" style="fill: none; stroke: #fde725; stroke-opacity: 0.8; stroke-width: 2; stroke-linecap: round"/>
     <g>
      <use xlink:href="#m7b48060664" x="921.718437" y="125.005" style="fill: #fde725; fill-opacity: 0.8; stroke: #fde725; stroke-opacity: 0.8"/>
     </g>
    </g>
    <g id="text_27">
     <!-- Layer 30 -->
     <g style="fill: #262626" transform="translate(939.718437 128.505) scale(0.1 -0.1)">
      <use xlink:href="#DejaVuSans-4c"/>
      <use xlink:href="#DejaVuSans-61" transform="translate(55.712891 0)"/>
      <use xlink:href="#DejaVuSans-79" transform="translate(116.992188 0)"/>
      <use xlink:href="#DejaVuSans-65" transform="translate(176.171875 0)"/>
      <use xlink:href="#DejaVuSans-72" transform="translate(237.695312 0)"/>
      <use xlink:href="#DejaVuSans-20" transform="translate(278.808594 0)"/>
      <use xlink:href="#DejaVuSans-33" transform="translate(310.595703 0)"/>
      <use xlink:href="#DejaVuSans-30" transform="translate(374.21875 0)"/>
     </g>
    </g>
   </g>
  </g>
 </g>
 <defs>
  <clipPath id="p023f441d55">
   <rect x="61.304375" y="23.837812" width="931.2" height="291.06"/>
  </clipPath>
 </defs>
</svg>
