<?xml version="1.0" encoding="utf-8" standalone="no"?>
<!DOCTYPE svg PUBLIC "-//W3C//DTD SVG 1.1//EN"
  "http://www.w3.org/Graphics/SVG/1.1/DTD/svg11.dtd">
<svg xmlns:xlink="http://www.w3.org/1999/xlink" width="998.715937pt" height="350.889687pt" viewBox="0 0 998.715937 350.889687" xmlns="http://www.w3.org/2000/svg" version="1.1">
 <metadata>
  <rdf:RDF xmlns:dc="http://purl.org/dc/elements/1.1/" xmlns:cc="http://creativecommons.org/ns#" xmlns:rdf="http://www.w3.org/1999/02/22-rdf-syntax-ns#">
   <cc:Work>
    <dc:type rdf:resource="http://purl.org/dc/dcmitype/StillImage"/>
    <dc:date>2025-12-18T12:34:28.122730</dc:date>
    <dc:format>image/svg+xml</dc:format>
    <dc:creator>
     <cc:Agent>
      <dc:title>Matplotlib v3.10.8, https://matplotlib.org/</dc:title>
     </cc:Agent>
    </dc:creator>
   </cc:Work>
  </rdf:RDF>
 </metadata>
 <defs>
  <style type="text/css">*{stroke-linejoin: round; stroke-linecap: butt}</style>
 </defs>
 <g id="figure_1">
  <g id="patch_1">
   <path d="M 0 350.889687 
L 998.715937 350.889687 
L 998.715937 0 
L 0 0 
z
" style="fill: #ffffff"/>
  </g>
  <g id="axes_1">
   <g id="patch_2">
    <path d="M 41.055938 314.897812 
L 991.515938 314.897812 
L 991.515938 23.837812 
L 41.055938 23.837812 
z
" style="fill: #ffffff"/>
   </g>
   <g id="matplotlib.axis_1">
    <g id="xtick_1">
     <g id="line2d_1">
      <path d="M 84.258665 314.897812 
L 84.258665 23.837812 
" clip-path="url(#pc9b5c62d93)" style="fill: none; stroke-dasharray: 2.96,1.28; stroke-dashoffset: 0; stroke: #cccccc; stroke-opacity: 0.3; stroke-width: 0.8"/>
     </g>
     <g id="line2d_2"/>
     <g id="text_1">
      <text style="font-size: 10px; font-family: 'Arial', 'DejaVu Sans', 'Helvetica', sans-serif; text-anchor: middle; fill: #262626" x="84.258665" y="325.99625" transform="rotate(-0 84.258665 325.99625)">0.0</text>
     </g>
    </g>
    <g id="xtick_2">
     <g id="line2d_3">
      <path d="M 192.265483 314.897812 
L 192.265483 23.837812 
" clip-path="url(#pc9b5c62d93)" style="fill: none; stroke-dasharray: 2.96,1.28; stroke-dashoffset: 0; stroke: #cccccc; stroke-opacity: 0.3; stroke-width: 0.8"/>
     </g>
     <g id="line2d_4"/>
     <g id="text_2">
      <text style="font-size: 10px; font-family: 'Arial', 'DejaVu Sans', 'Helvetica', sans-serif; text-anchor: middle; fill: #262626" x="192.265483" y="325.99625" transform="rotate(-0 192.265483 325.99625)">2.5</text>
     </g>
    </g>
    <g id="xtick_3">
     <g id="line2d_5">
      <path d="M 300.272301 314.897812 
L 300.272301 23.837812 
" clip-path="url(#pc9b5c62d93)" style="fill: none; stroke-dasharray: 2.96,1.28; stroke-dashoffset: 0; stroke: #cccccc; stroke-opacity: 0.3; stroke-width: 0.8"/>
     </g>
     <g id="line2d_6"/>
     <g id="text_3">
      <text style="font-size: 10px; font-family: 'Arial', 'DejaVu Sans', 'Helvetica', sans-serif; text-anchor: middle; fill: #262626" x="300.272301" y="325.99625" transform="rotate(-0 300.272301 325.99625)">5.0</text>
     </g>
    </g>
    <g id="xtick_4">
     <g id="line2d_7">
      <path d="M 408.279119 314.897812 
L 408.279119 23.837812 
" clip-path="url(#pc9b5c62d93)" style="fill: none; stroke-dasharray: 2.96,1.28; stroke-dashoffset: 0; stroke: #cccccc; stroke-opacity: 0.3; stroke-width: 0.8"/>
     </g>
     <g id="line2d_8"/>
     <g id="text_4">
      <text style="font-size: 10px; font-family: 'Arial', 'DejaVu Sans', 'Helvetica', sans-serif; text-anchor: middle; fill: #262626" x="408.279119" y="325.99625" transform="rotate(-0 408.279119 325.99625)">7.5</text>
     </g>
    </g>
    <g id="xtick_5">
     <g id="line2d_9">
      <path d="M 516.285938 314.897812 
L 516.285938 23.837812 
" clip-path="url(#pc9b5c62d93)" style="fill: none; stroke-dasharray: 2.96,1.28; stroke-dashoffset: 0; stroke: #cccccc; stroke-opacity: 0.3; stroke-width: 0.8"/>
     </g>
     <g id="line2d_10"/>
     <g id="text_5">
      <text style="font-size: 10px; font-family: 'Arial', 'DejaVu Sans', 'Helvetica', sans-serif; text-anchor: middle; fill: #262626" x="516.285938" y="325.99625" transform="rotate(-0 516.285938 325.99625)">10.0</text>
     </g>
    </g>
    <g id="xtick_6">
     <g id="line2d_11">
      <path d="M 624.292756 314.897812 
L 624.292756 23.837812 
" clip-path="url(#pc9b5c62d93)" style="fill: none; stroke-dasharray: 2.96,1.28; stroke-dashoffset: 0; stroke: #cccccc; stroke-opacity: 0.3; stroke-width: 0.8"/>
     </g>
     <g id="line2d_12"/>
     <g id="text_6">
      <text style="font-size: 10px; font-family: 'Arial', 'DejaVu Sans', 'Helvetica', sans-serif; text-anchor: middle; fill: #262626" x="624.292756" y="325.99625" transform="rotate(-0 624.292756 325.99625)">12.5</text>
     </g>
    </g>
    <g id="xtick_7">
     <g id="line2d_13">
      <path d="M 732.299574 314.897812 
L 732.299574 23.837812 
" clip-path="url(#pc9b5c62d93)" style="fill: none; stroke-dasharray: 2.96,1.28; stroke-dashoffset: 0; stroke: #cccccc; stroke-opacity: 0.3; stroke-width: 0.8"/>
     </g>
     <g id="line2d_14"/>
     <g id="text_7">
      <text style="font-size: 10px; font-family: 'Arial', 'DejaVu Sans', 'Helvetica', sans-serif; text-anchor: middle; fill: #262626" x="732.299574" y="325.99625" transform="rotate(-0 732.299574 325.99625)">15.0</text>
     </g>
    </g>
    <g id="xtick_8">
     <g id="line2d_15">
      <path d="M 840.306392 314.897812 
L 840.306392 23.837812 
" clip-path="url(#pc9b5c62d93)" style="fill: none; stroke-dasharray: 2.96,1.28; stroke-dashoffset: 0; stroke: #cccccc; stroke-opacity: 0.3; stroke-width: 0.8"/>
     </g>
     <g id="line2d_16"/>
     <g id="text_8">
      <text style="font-size: 10px; font-family: 'Arial', 'DejaVu Sans', 'Helvetica', sans-serif; text-anchor: middle; fill: #262626" x="840.306392" y="325.99625" transform="rotate(-0 840.306392 325.99625)">17.5</text>
     </g>
    </g>
    <g id="xtick_9">
     <g id="line2d_17">
      <path d="M 948.31321 314.897812 
L 948.31321 23.837812 
" clip-path="url(#pc9b5c62d93)" style="fill: none; stroke-dasharray: 2.96,1.28; stroke-dashoffset: 0; stroke: #cccccc; stroke-opacity: 0.3; stroke-width: 0.8"/>
     </g>
     <g id="line2d_18"/>
     <g id="text_9">
      <text style="font-size: 10px; font-family: 'Arial', 'DejaVu Sans', 'Helvetica', sans-serif; text-anchor: middle; fill: #262626" x="948.31321" y="325.99625" transform="rotate(-0 948.31321 325.99625)">20.0</text>
     </g>
    </g>
    <g id="text_10">
     <text style="font-size: 12px; font-family: 'Arial', 'DejaVu Sans', 'Helvetica', sans-serif; text-anchor: middle; fill: #262626" x="516.285938" y="341.194062" transform="rotate(-0 516.285938 341.194062)">Key Frame Index</text>
    </g>
   </g>
   <g id="matplotlib.axis_2">
    <g id="ytick_1">
     <g id="line2d_19">
      <path d="M 41.055938 296.143847 
L 991.515938 296.143847 
" clip-path="url(#pc9b5c62d93)" style="fill: none; stroke-dasharray: 2.96,1.28; stroke-dashoffset: 0; stroke: #cccccc; stroke-opacity: 0.3; stroke-width: 0.8"/>
     </g>
     <g id="line2d_20"/>
     <g id="text_11">
      <text style="font-size: 10px; font-family: 'Arial', 'DejaVu Sans', 'Helvetica', sans-serif; text-anchor: end; fill: #262626" x="37.555938" y="299.943065" transform="rotate(-0 37.555938 299.943065)">−2</text>
     </g>
    </g>
    <g id="ytick_2">
     <g id="line2d_21">
      <path d="M 41.055938 238.499581 
L 991.515938 238.499581 
" clip-path="url(#pc9b5c62d93)" style="fill: none; stroke-dasharray: 2.96,1.28; stroke-dashoffset: 0; stroke: #cccccc; stroke-opacity: 0.3; stroke-width: 0.8"/>
     </g>
     <g id="line2d_22"/>
     <g id="text_12">
      <text style="font-size: 10px; font-family: 'Arial', 'DejaVu Sans', 'Helvetica', sans-serif; text-anchor: end; fill: #262626" x="37.555938" y="242.298799" transform="rotate(-0 37.555938 242.298799)">0</text>
     </g>
    </g>
    <g id="ytick_3">
     <g id="line2d_23">
      <path d="M 41.055938 180.855315 
L 991.515938 180.855315 
" clip-path="url(#pc9b5c62d93)" style="fill: none; stroke-dasharray: 2.96,1.28; stroke-dashoffset: 0; stroke: #cccccc; stroke-opacity: 0.3; stroke-width: 0.8"/>
     </g>
     <g id="line2d_24"/>
     <g id="text_13">
      <text style="font-size: 10px; font-family: 'Arial', 'DejaVu Sans', 'Helvetica', sans-serif; text-anchor: end; fill: #262626" x="37.555938" y="184.654534" transform="rotate(-0 37.555938 184.654534)">2</text>
     </g>
    </g>
    <g id="ytick_4">
     <g id="line2d_25">
      <path d="M 41.055938 123.211049 
L 991.515938 123.211049 
" clip-path="url(#pc9b5c62d93)" style="fill: none; stroke-dasharray: 2.96,1.28; stroke-dashoffset: 0; stroke: #cccccc; stroke-opacity: 0.3; stroke-width: 0.8"/>
     </g>
     <g id="line2d_26"/>
     <g id="text_14">
      <text style="font-size: 10px; font-family: 'Arial', 'DejaVu Sans', 'Helvetica', sans-serif; text-anchor: end; fill: #262626" x="37.555938" y="127.010268" transform="rotate(-0 37.555938 127.010268)">4</text>
     </g>
    </g>
    <g id="ytick_5">
     <g id="line2d_27">
      <path d="M 41.055938 65.566783 
L 991.515938 65.566783 
" clip-path="url(#pc9b5c62d93)" style="fill: none; stroke-dasharray: 2.96,1.28; stroke-dashoffset: 0; stroke: #cccccc; stroke-opacity: 0.3; stroke-width: 0.8"/>
     </g>
     <g id="line2d_28"/>
     <g id="text_15">
      <text style="font-size: 10px; font-family: 'Arial', 'DejaVu Sans', 'Helvetica', sans-serif; text-anchor: end; fill: #262626" x="37.555938" y="69.366002" transform="rotate(-0 37.555938 69.366002)">6</text>
     </g>
    </g>
    <g id="text_16">
     <text style="font-size: 12px; font-family: 'Arial', 'DejaVu Sans', 'Helvetica', sans-serif; text-anchor: middle; fill: #262626" x="16.318125" y="169.367812" transform="rotate(-90 16.318125 169.367812)">Mean Attention Weight (Logits)</text>
    </g>
   </g>
   <g id="FillBetweenPolyCollection_1">
    <defs>
     <path id="mfb3a9a88c2" d="M 84.258665 -239.746731 
L 84.258665 -109.247915 
L 127.461392 -107.76712 
L 170.664119 -85.1534 
L 213.866847 -52.403076 
L 257.069574 -49.221875 
L 300.272301 -75.650254 
L 343.475028 -95.111658 
L 386.677756 -99.097443 
L 429.880483 -92.828236 
L 473.08321 -74.469554 
L 516.285938 -65.891434 
L 559.488665 -82.709506 
L 602.691392 -101.427543 
L 645.894119 -108.416251 
L 689.096847 -97.654251 
L 732.299574 -75.782176 
L 775.502301 -88.665356 
L 818.705028 -118.967662 
L 861.907756 -123.782941 
L 905.110483 -120.514139 
L 948.31321 -116.367427 
L 948.31321 -294.153582 
L 948.31321 -294.153582 
L 905.110483 -313.821875 
L 861.907756 -270.774292 
L 818.705028 -178.611662 
L 775.502301 -150.2278 
L 732.299574 -149.806716 
L 689.096847 -156.810401 
L 645.894119 -172.225152 
L 602.691392 -175.64579 
L 559.488665 -167.820012 
L 516.285938 -162.882914 
L 473.08321 -165.726624 
L 429.880483 -186.121295 
L 386.677756 -208.901386 
L 343.475028 -204.222248 
L 300.272301 -185.806944 
L 257.069574 -177.975702 
L 213.866847 -182.938783 
L 170.664119 -203.506115 
L 127.461392 -231.935972 
L 84.258665 -239.746731 
z
" style="stroke: #414487; stroke-opacity: 0.2"/>
    </defs>
    <g clip-path="url(#pc9b5c62d93)">
     <use xlink:href="#mfb3a9a88c2" x="0" y="350.889687" style="fill: #414487; fill-opacity: 0.2; stroke: #414487; stroke-opacity: 0.2"/>
    </g>
   </g>
   <g id="FillBetweenPolyCollection_2">
    <defs>
     <path id="m2f04eea1d1" d="M 84.258665 -192.079311 
L 84.258665 -118.267256 
L 127.461392 -117.025585 
L 170.664119 -114.538079 
L 213.866847 -107.755255 
L 257.069574 -106.993436 
L 300.272301 -108.947178 
L 343.475028 -101.690934 
L 386.677756 -99.42262 
L 429.880483 -99.536831 
L 473.08321 -96.682791 
L 516.285938 -94.725732 
L 559.488665 -95.448152 
L 602.691392 -94.098164 
L 645.894119 -95.409208 
L 689.096847 -97.038237 
L 732.299574 -92.139815 
L 775.502301 -89.642873 
L 818.705028 -90.342683 
L 861.907756 -127.170472 
L 905.110483 -124.245309 
L 948.31321 -123.151823 
L 948.31321 -245.715137 
L 948.31321 -245.715137 
L 905.110483 -253.187281 
L 861.907756 -242.395138 
L 818.705028 -164.383567 
L 775.502301 -152.13882 
L 732.299574 -151.953688 
L 689.096847 -161.127994 
L 645.894119 -165.575906 
L 602.691392 -167.376689 
L 559.488665 -167.180101 
L 516.285938 -163.29574 
L 473.08321 -165.832595 
L 429.880483 -172.343615 
L 386.677756 -174.045173 
L 343.475028 -173.587733 
L 300.272301 -169.231265 
L 257.069574 -163.084936 
L 213.866847 -164.444328 
L 170.664119 -177.569122 
L 127.461392 -189.132252 
L 84.258665 -192.079311 
z
" style="stroke: #7ad151; stroke-opacity: 0.2"/>
    </defs>
    <g clip-path="url(#pc9b5c62d93)">
     <use xlink:href="#m2f04eea1d1" x="0" y="350.889687" style="fill: #7ad151; fill-opacity: 0.2; stroke: #7ad151; stroke-opacity: 0.2"/>
    </g>
   </g>
   <g id="line2d_29">
    <path d="M 84.258665 176.392365 
L 127.461392 181.038142 
L 170.664119 206.55993 
L 213.866847 233.218758 
L 257.069574 237.290899 
L 300.272301 220.161088 
L 343.475028 201.222735 
L 386.677756 196.890273 
L 429.880483 211.414922 
L 473.08321 230.791598 
L 516.285938 236.502514 
L 559.488665 225.624928 
L 602.691392 212.353021 
L 645.894119 210.568986 
L 689.096847 223.657362 
L 732.299574 238.095242 
L 775.502301 231.443109 
L 818.705028 202.100025 
L 861.907756 153.611071 
L 905.110483 133.72168 
L 948.31321 145.629183 
" clip-path="url(#pc9b5c62d93)" style="fill: none; stroke: #414487; stroke-opacity: 0.9; stroke-width: 2; stroke-linecap: round"/>
    <defs>
     <path id="mefaca56318" d="M 0 2.5 
C 0.663008 2.5 1.29895 2.236584 1.767767 1.767767 
C 2.236584 1.29895 2.5 0.663008 2.5 0 
C 2.5 -0.663008 2.236584 -1.29895 1.767767 -1.767767 
C 1.29895 -2.236584 0.663008 -2.5 0 -2.5 
C -0.663008 -2.5 -1.29895 -2.236584 -1.767767 -1.767767 
C -2.236584 -1.29895 -2.5 -0.663008 -2.5 0 
C -2.5 0.663008 -2.236584 1.29895 -1.767767 1.767767 
C -1.29895 2.236584 -0.663008 2.5 0 2.5 
z
" style="stroke: #414487; stroke-opacity: 0.9"/>
    </defs>
    <g clip-path="url(#pc9b5c62d93)">
     <use xlink:href="#mefaca56318" x="84.258665" y="176.392365" style="fill: #414487; fill-opacity: 0.9; stroke: #414487; stroke-opacity: 0.9"/>
     <use xlink:href="#mefaca56318" x="127.461392" y="181.038142" style="fill: #414487; fill-opacity: 0.9; stroke: #414487; stroke-opacity: 0.9"/>
     <use xlink:href="#mefaca56318" x="170.664119" y="206.55993" style="fill: #414487; fill-opacity: 0.9; stroke: #414487; stroke-opacity: 0.9"/>
     <use xlink:href="#mefaca56318" x="213.866847" y="233.218758" style="fill: #414487; fill-opacity: 0.9; stroke: #414487; stroke-opacity: 0.9"/>
     <use xlink:href="#mefaca56318" x="257.069574" y="237.290899" style="fill: #414487; fill-opacity: 0.9; stroke: #414487; stroke-opacity: 0.9"/>
     <use xlink:href="#mefaca56318" x="300.272301" y="220.161088" style="fill: #414487; fill-opacity: 0.9; stroke: #414487; stroke-opacity: 0.9"/>
     <use xlink:href="#mefaca56318" x="343.475028" y="201.222735" style="fill: #414487; fill-opacity: 0.9; stroke: #414487; stroke-opacity: 0.9"/>
     <use xlink:href="#mefaca56318" x="386.677756" y="196.890273" style="fill: #414487; fill-opacity: 0.9; stroke: #414487; stroke-opacity: 0.9"/>
     <use xlink:href="#mefaca56318" x="429.880483" y="211.414922" style="fill: #414487; fill-opacity: 0.9; stroke: #414487; stroke-opacity: 0.9"/>
     <use xlink:href="#mefaca56318" x="473.08321" y="230.791598" style="fill: #414487; fill-opacity: 0.9; stroke: #414487; stroke-opacity: 0.9"/>
     <use xlink:href="#mefaca56318" x="516.285938" y="236.502514" style="fill: #414487; fill-opacity: 0.9; stroke: #414487; stroke-opacity: 0.9"/>
     <use xlink:href="#mefaca56318" x="559.488665" y="225.624928" style="fill: #414487; fill-opacity: 0.9; stroke: #414487; stroke-opacity: 0.9"/>
     <use xlink:href="#mefaca56318" x="602.691392" y="212.353021" style="fill: #414487; fill-opacity: 0.9; stroke: #414487; stroke-opacity: 0.9"/>
     <use xlink:href="#mefaca56318" x="645.894119" y="210.568986" style="fill: #414487; fill-opacity: 0.9; stroke: #414487; stroke-opacity: 0.9"/>
     <use xlink:href="#mefaca56318" x="689.096847" y="223.657362" style="fill: #414487; fill-opacity: 0.9; stroke: #414487; stroke-opacity: 0.9"/>
     <use xlink:href="#mefaca56318" x="732.299574" y="238.095242" style="fill: #414487; fill-opacity: 0.9; stroke: #414487; stroke-opacity: 0.9"/>
     <use xlink:href="#mefaca56318" x="775.502301" y="231.443109" style="fill: #414487; fill-opacity: 0.9; stroke: #414487; stroke-opacity: 0.9"/>
     <use xlink:href="#mefaca56318" x="818.705028" y="202.100025" style="fill: #414487; fill-opacity: 0.9; stroke: #414487; stroke-opacity: 0.9"/>
     <use xlink:href="#mefaca56318" x="861.907756" y="153.611071" style="fill: #414487; fill-opacity: 0.9; stroke: #414487; stroke-opacity: 0.9"/>
     <use xlink:href="#mefaca56318" x="905.110483" y="133.72168" style="fill: #414487; fill-opacity: 0.9; stroke: #414487; stroke-opacity: 0.9"/>
     <use xlink:href="#mefaca56318" x="948.31321" y="145.629183" style="fill: #414487; fill-opacity: 0.9; stroke: #414487; stroke-opacity: 0.9"/>
    </g>
   </g>
   <g id="line2d_30">
    <path d="M 84.258665 195.716404 
L 127.461392 197.810769 
L 170.664119 204.836087 
L 213.866847 214.789896 
L 257.069574 215.850501 
L 300.272301 211.800466 
L 343.475028 213.250354 
L 386.677756 214.155791 
L 429.880483 214.949465 
L 473.08321 219.631994 
L 516.285938 221.878952 
L 559.488665 219.575561 
L 602.691392 220.152261 
L 645.894119 220.397131 
L 689.096847 221.806572 
L 732.299574 228.842936 
L 775.502301 229.998841 
L 818.705028 223.526563 
L 861.907756 166.106882 
L 905.110483 162.173393 
L 948.31321 166.456207 
" clip-path="url(#pc9b5c62d93)" style="fill: none; stroke: #7ad151; stroke-opacity: 0.9; stroke-width: 2; stroke-linecap: round"/>
    <defs>
     <path id="mdb2f813616" d="M 0 2.5 
C 0.663008 2.5 1.29895 2.236584 1.767767 1.767767 
C 2.236584 1.29895 2.5 0.663008 2.5 0 
C 2.5 -0.663008 2.236584 -1.29895 1.767767 -1.767767 
C 1.29895 -2.236584 0.663008 -2.5 0 -2.5 
C -0.663008 -2.5 -1.29895 -2.236584 -1.767767 -1.767767 
C -2.236584 -1.29895 -2.5 -0.663008 -2.5 0 
C -2.5 0.663008 -2.236584 1.29895 -1.767767 1.767767 
C -1.29895 2.236584 -0.663008 2.5 0 2.5 
z
" style="stroke: #7ad151; stroke-opacity: 0.9"/>
    </defs>
    <g clip-path="url(#pc9b5c62d93)">
     <use xlink:href="#mdb2f813616" x="84.258665" y="195.716404" style="fill: #7ad151; fill-opacity: 0.9; stroke: #7ad151; stroke-opacity: 0.9"/>
     <use xlink:href="#mdb2f813616" x="127.461392" y="197.810769" style="fill: #7ad151; fill-opacity: 0.9; stroke: #7ad151; stroke-opacity: 0.9"/>
     <use xlink:href="#mdb2f813616" x="170.664119" y="204.836087" style="fill: #7ad151; fill-opacity: 0.9; stroke: #7ad151; stroke-opacity: 0.9"/>
     <use xlink:href="#mdb2f813616" x="213.866847" y="214.789896" style="fill: #7ad151; fill-opacity: 0.9; stroke: #7ad151; stroke-opacity: 0.9"/>
     <use xlink:href="#mdb2f813616" x="257.069574" y="215.850501" style="fill: #7ad151; fill-opacity: 0.9; stroke: #7ad151; stroke-opacity: 0.9"/>
     <use xlink:href="#mdb2f813616" x="300.272301" y="211.800466" style="fill: #7ad151; fill-opacity: 0.9; stroke: #7ad151; stroke-opacity: 0.9"/>
     <use xlink:href="#mdb2f813616" x="343.475028" y="213.250354" style="fill: #7ad151; fill-opacity: 0.9; stroke: #7ad151; stroke-opacity: 0.9"/>
     <use xlink:href="#mdb2f813616" x="386.677756" y="214.155791" style="fill: #7ad151; fill-opacity: 0.9; stroke: #7ad151; stroke-opacity: 0.9"/>
     <use xlink:href="#mdb2f813616" x="429.880483" y="214.949465" style="fill: #7ad151; fill-opacity: 0.9; stroke: #7ad151; stroke-opacity: 0.9"/>
     <use xlink:href="#mdb2f813616" x="473.08321" y="219.631994" style="fill: #7ad151; fill-opacity: 0.9; stroke: #7ad151; stroke-opacity: 0.9"/>
     <use xlink:href="#mdb2f813616" x="516.285938" y="221.878952" style="fill: #7ad151; fill-opacity: 0.9; stroke: #7ad151; stroke-opacity: 0.9"/>
     <use xlink:href="#mdb2f813616" x="559.488665" y="219.575561" style="fill: #7ad151; fill-opacity: 0.9; stroke: #7ad151; stroke-opacity: 0.9"/>
     <use xlink:href="#mdb2f813616" x="602.691392" y="220.152261" style="fill: #7ad151; fill-opacity: 0.9; stroke: #7ad151; stroke-opacity: 0.9"/>
     <use xlink:href="#mdb2f813616" x="645.894119" y="220.397131" style="fill: #7ad151; fill-opacity: 0.9; stroke: #7ad151; stroke-opacity: 0.9"/>
     <use xlink:href="#mdb2f813616" x="689.096847" y="221.806572" style="fill: #7ad151; fill-opacity: 0.9; stroke: #7ad151; stroke-opacity: 0.9"/>
     <use xlink:href="#mdb2f813616" x="732.299574" y="228.842936" style="fill: #7ad151; fill-opacity: 0.9; stroke: #7ad151; stroke-opacity: 0.9"/>
     <use xlink:href="#mdb2f813616" x="775.502301" y="229.998841" style="fill: #7ad151; fill-opacity: 0.9; stroke: #7ad151; stroke-opacity: 0.9"/>
     <use xlink:href="#mdb2f813616" x="818.705028" y="223.526563" style="fill: #7ad151; fill-opacity: 0.9; stroke: #7ad151; stroke-opacity: 0.9"/>
     <use xlink:href="#mdb2f813616" x="861.907756" y="166.106882" style="fill: #7ad151; fill-opacity: 0.9; stroke: #7ad151; stroke-opacity: 0.9"/>
     <use xlink:href="#mdb2f813616" x="905.110483" y="162.173393" style="fill: #7ad151; fill-opacity: 0.9; stroke: #7ad151; stroke-opacity: 0.9"/>
     <use xlink:href="#mdb2f813616" x="948.31321" y="166.456207" style="fill: #7ad151; fill-opacity: 0.9; stroke: #7ad151; stroke-opacity: 0.9"/>
    </g>
   </g>
   <g id="patch_3">
    <path d="M 41.055938 314.897812 
L 41.055938 23.837812 
" style="fill: none; stroke: #cccccc; stroke-linejoin: miter; stroke-linecap: square"/>
   </g>
   <g id="patch_4">
    <path d="M 991.515938 314.897812 
L 991.515938 23.837812 
" style="fill: none; stroke: #cccccc; stroke-linejoin: miter; stroke-linecap: square"/>
   </g>
   <g id="patch_5">
    <path d="M 41.055938 314.897812 
L 991.515938 314.897812 
" style="fill: none; stroke: #cccccc; stroke-linejoin: miter; stroke-linecap: square"/>
   </g>
   <g id="patch_6">
    <path d="M 41.055938 23.837812 
L 991.515938 23.837812 
" style="fill: none; stroke: #cccccc; stroke-linejoin: miter; stroke-linecap: square"/>
   </g>
   <g id="text_17">
    <text style="font-weight: 700; font-size: 14px; font-family: 'Arial', 'DejaVu Sans', 'Helvetica', sans-serif; text-anchor: middle; fill: #262626" x="516.285938" y="17.837812" transform="rotate(-0 516.285938 17.837812)">Cross-Layer Head-Averaged Attention Distribution</text>
   </g>
   <g id="legend_1">
    <g id="line2d_31">
     <path d="M 50.055938 36.93625 
L 60.055938 36.93625 
L 70.055937 36.93625 
" style="fill: none; stroke: #414487; stroke-opacity: 0.9; stroke-width: 2; stroke-linecap: round"/>
     <g>
      <use xlink:href="#mefaca56318" x="60.055938" y="36.93625" style="fill: #414487; fill-opacity: 0.9; stroke: #414487; stroke-opacity: 0.9"/>
     </g>
    </g>
    <g id="text_18">
     <text style="font-size: 10px; font-family: 'Arial', 'DejaVu Sans', 'Helvetica', sans-serif; text-anchor: start; fill: #262626" x="78.055937" y="40.43625" transform="rotate(-0 78.055937 40.43625)">Layer 1</text>
    </g>
    <g id="line2d_32">
     <path d="M 50.055938 51.614375 
L 60.055938 51.614375 
L 70.055937 51.614375 
" style="fill: none; stroke: #7ad151; stroke-opacity: 0.9; stroke-width: 2; stroke-linecap: round"/>
     <g>
      <use xlink:href="#mdb2f813616" x="60.055938" y="51.614375" style="fill: #7ad151; fill-opacity: 0.9; stroke: #7ad151; stroke-opacity: 0.9"/>
     </g>
    </g>
    <g id="text_19">
     <text style="font-size: 10px; font-family: 'Arial', 'DejaVu Sans', 'Helvetica', sans-serif; text-anchor: start; fill: #262626" x="78.055937" y="55.114375" transform="rotate(-0 78.055937 55.114375)">Layer 5</text>
    </g>
   </g>
  </g>
 </g>
 <defs>
  <clipPath id="pc9b5c62d93">
   <rect x="41.055938" y="23.837812" width="950.46" height="291.06"/>
  </clipPath>
 </defs>
</svg>
