<?xml version="1.0" encoding="utf-8" standalone="no"?>
<!DOCTYPE svg PUBLIC "-//W3C//DTD SVG 1.1//EN"
  "http://www.w3.org/Graphics/SVG/1.1/DTD/svg11.dtd">
<svg xmlns:xlink="http://www.w3.org/1999/xlink" width="998.715937pt" height="350.889687pt" viewBox="0 0 998.715937 350.889687" xmlns="http://www.w3.org/2000/svg" version="1.1">
 <metadata>
  <rdf:RDF xmlns:dc="http://purl.org/dc/elements/1.1/" xmlns:cc="http://creativecommons.org/ns#" xmlns:rdf="http://www.w3.org/1999/02/22-rdf-syntax-ns#">
   <cc:Work>
    <dc:type rdf:resource="http://purl.org/dc/dcmitype/StillImage"/>
    <dc:date>2025-12-12T19:36:09.615298</dc:date>
    <dc:format>image/svg+xml</dc:format>
    <dc:creator>
     <cc:Agent>
      <dc:title>Matplotlib v3.10.8, https://matplotlib.org/</dc:title>
     </cc:Agent>
    </dc:creator>
   </cc:Work>
  </rdf:RDF>
 </metadata>
 <defs>
  <style type="text/css">*{stroke-linejoin: round; stroke-linecap: butt}</style>
 </defs>
 <g id="figure_1">
  <g id="patch_1">
   <path d="M 0 350.889687 
L 998.715937 350.889687 
L 998.715937 0 
L 0 0 
z
" style="fill: #ffffff"/>
  </g>
  <g id="axes_1">
   <g id="patch_2">
    <path d="M 41.055938 314.897812 
L 991.515938 314.897812 
L 991.515938 23.837812 
L 41.055938 23.837812 
z
" style="fill: #ffffff"/>
   </g>
   <g id="matplotlib.axis_1">
    <g id="xtick_1">
     <g id="line2d_1">
      <path d="M 84.258665 314.897812 
L 84.258665 23.837812 
" clip-path="url(#pc641120ab4)" style="fill: none; stroke-dasharray: 2.96,1.28; stroke-dashoffset: 0; stroke: #cccccc; stroke-opacity: 0.3; stroke-width: 0.8"/>
     </g>
     <g id="line2d_2"/>
     <g id="text_1">
      <text style="font-size: 10px; font-family: 'Arial', 'DejaVu Sans', 'Helvetica', sans-serif; text-anchor: middle; fill: #262626" x="84.258665" y="325.99625" transform="rotate(-0 84.258665 325.99625)">0.0</text>
     </g>
    </g>
    <g id="xtick_2">
     <g id="line2d_3">
      <path d="M 192.265483 314.897812 
L 192.265483 23.837812 
" clip-path="url(#pc641120ab4)" style="fill: none; stroke-dasharray: 2.96,1.28; stroke-dashoffset: 0; stroke: #cccccc; stroke-opacity: 0.3; stroke-width: 0.8"/>
     </g>
     <g id="line2d_4"/>
     <g id="text_2">
      <text style="font-size: 10px; font-family: 'Arial', 'DejaVu Sans', 'Helvetica', sans-serif; text-anchor: middle; fill: #262626" x="192.265483" y="325.99625" transform="rotate(-0 192.265483 325.99625)">2.5</text>
     </g>
    </g>
    <g id="xtick_3">
     <g id="line2d_5">
      <path d="M 300.272301 314.897812 
L 300.272301 23.837812 
" clip-path="url(#pc641120ab4)" style="fill: none; stroke-dasharray: 2.96,1.28; stroke-dashoffset: 0; stroke: #cccccc; stroke-opacity: 0.3; stroke-width: 0.8"/>
     </g>
     <g id="line2d_6"/>
     <g id="text_3">
      <text style="font-size: 10px; font-family: 'Arial', 'DejaVu Sans', 'Helvetica', sans-serif; text-anchor: middle; fill: #262626" x="300.272301" y="325.99625" transform="rotate(-0 300.272301 325.99625)">5.0</text>
     </g>
    </g>
    <g id="xtick_4">
     <g id="line2d_7">
      <path d="M 408.279119 314.897812 
L 408.279119 23.837812 
" clip-path="url(#pc641120ab4)" style="fill: none; stroke-dasharray: 2.96,1.28; stroke-dashoffset: 0; stroke: #cccccc; stroke-opacity: 0.3; stroke-width: 0.8"/>
     </g>
     <g id="line2d_8"/>
     <g id="text_4">
      <text style="font-size: 10px; font-family: 'Arial', 'DejaVu Sans', 'Helvetica', sans-serif; text-anchor: middle; fill: #262626" x="408.279119" y="325.99625" transform="rotate(-0 408.279119 325.99625)">7.5</text>
     </g>
    </g>
    <g id="xtick_5">
     <g id="line2d_9">
      <path d="M 516.285938 314.897812 
L 516.285938 23.837812 
" clip-path="url(#pc641120ab4)" style="fill: none; stroke-dasharray: 2.96,1.28; stroke-dashoffset: 0; stroke: #cccccc; stroke-opacity: 0.3; stroke-width: 0.8"/>
     </g>
     <g id="line2d_10"/>
     <g id="text_5">
      <text style="font-size: 10px; font-family: 'Arial', 'DejaVu Sans', 'Helvetica', sans-serif; text-anchor: middle; fill: #262626" x="516.285938" y="325.99625" transform="rotate(-0 516.285938 325.99625)">10.0</text>
     </g>
    </g>
    <g id="xtick_6">
     <g id="line2d_11">
      <path d="M 624.292756 314.897812 
L 624.292756 23.837812 
" clip-path="url(#pc641120ab4)" style="fill: none; stroke-dasharray: 2.96,1.28; stroke-dashoffset: 0; stroke: #cccccc; stroke-opacity: 0.3; stroke-width: 0.8"/>
     </g>
     <g id="line2d_12"/>
     <g id="text_6">
      <text style="font-size: 10px; font-family: 'Arial', 'DejaVu Sans', 'Helvetica', sans-serif; text-anchor: middle; fill: #262626" x="624.292756" y="325.99625" transform="rotate(-0 624.292756 325.99625)">12.5</text>
     </g>
    </g>
    <g id="xtick_7">
     <g id="line2d_13">
      <path d="M 732.299574 314.897812 
L 732.299574 23.837812 
" clip-path="url(#pc641120ab4)" style="fill: none; stroke-dasharray: 2.96,1.28; stroke-dashoffset: 0; stroke: #cccccc; stroke-opacity: 0.3; stroke-width: 0.8"/>
     </g>
     <g id="line2d_14"/>
     <g id="text_7">
      <text style="font-size: 10px; font-family: 'Arial', 'DejaVu Sans', 'Helvetica', sans-serif; text-anchor: middle; fill: #262626" x="732.299574" y="325.99625" transform="rotate(-0 732.299574 325.99625)">15.0</text>
     </g>
    </g>
    <g id="xtick_8">
     <g id="line2d_15">
      <path d="M 840.306392 314.897812 
L 840.306392 23.837812 
" clip-path="url(#pc641120ab4)" style="fill: none; stroke-dasharray: 2.96,1.28; stroke-dashoffset: 0; stroke: #cccccc; stroke-opacity: 0.3; stroke-width: 0.8"/>
     </g>
     <g id="line2d_16"/>
     <g id="text_8">
      <text style="font-size: 10px; font-family: 'Arial', 'DejaVu Sans', 'Helvetica', sans-serif; text-anchor: middle; fill: #262626" x="840.306392" y="325.99625" transform="rotate(-0 840.306392 325.99625)">17.5</text>
     </g>
    </g>
    <g id="xtick_9">
     <g id="line2d_17">
      <path d="M 948.31321 314.897812 
L 948.31321 23.837812 
" clip-path="url(#pc641120ab4)" style="fill: none; stroke-dasharray: 2.96,1.28; stroke-dashoffset: 0; stroke: #cccccc; stroke-opacity: 0.3; stroke-width: 0.8"/>
     </g>
     <g id="line2d_18"/>
     <g id="text_9">
      <text style="font-size: 10px; font-family: 'Arial', 'DejaVu Sans', 'Helvetica', sans-serif; text-anchor: middle; fill: #262626" x="948.31321" y="325.99625" transform="rotate(-0 948.31321 325.99625)">20.0</text>
     </g>
    </g>
    <g id="text_10">
     <text style="font-size: 12px; font-family: 'Arial', 'DejaVu Sans', 'Helvetica', sans-serif; text-anchor: middle; fill: #262626" x="516.285938" y="341.194062" transform="rotate(-0 516.285938 341.194062)">Key Frame Index</text>
    </g>
   </g>
   <g id="matplotlib.axis_2">
    <g id="ytick_1">
     <g id="line2d_19">
      <path d="M 41.055938 296.144703 
L 991.515938 296.144703 
" clip-path="url(#pc641120ab4)" style="fill: none; stroke-dasharray: 2.96,1.28; stroke-dashoffset: 0; stroke: #cccccc; stroke-opacity: 0.3; stroke-width: 0.8"/>
     </g>
     <g id="line2d_20"/>
     <g id="text_11">
      <text style="font-size: 10px; font-family: 'Arial', 'DejaVu Sans', 'Helvetica', sans-serif; text-anchor: end; fill: #262626" x="37.555938" y="299.943922" transform="rotate(-0 37.555938 299.943922)">−2</text>
     </g>
    </g>
    <g id="ytick_2">
     <g id="line2d_21">
      <path d="M 41.055938 238.499777 
L 991.515938 238.499777 
" clip-path="url(#pc641120ab4)" style="fill: none; stroke-dasharray: 2.96,1.28; stroke-dashoffset: 0; stroke: #cccccc; stroke-opacity: 0.3; stroke-width: 0.8"/>
     </g>
     <g id="line2d_22"/>
     <g id="text_12">
      <text style="font-size: 10px; font-family: 'Arial', 'DejaVu Sans', 'Helvetica', sans-serif; text-anchor: end; fill: #262626" x="37.555938" y="242.298996" transform="rotate(-0 37.555938 242.298996)">0</text>
     </g>
    </g>
    <g id="ytick_3">
     <g id="line2d_23">
      <path d="M 41.055938 180.85485 
L 991.515938 180.85485 
" clip-path="url(#pc641120ab4)" style="fill: none; stroke-dasharray: 2.96,1.28; stroke-dashoffset: 0; stroke: #cccccc; stroke-opacity: 0.3; stroke-width: 0.8"/>
     </g>
     <g id="line2d_24"/>
     <g id="text_13">
      <text style="font-size: 10px; font-family: 'Arial', 'DejaVu Sans', 'Helvetica', sans-serif; text-anchor: end; fill: #262626" x="37.555938" y="184.654069" transform="rotate(-0 37.555938 184.654069)">2</text>
     </g>
    </g>
    <g id="ytick_4">
     <g id="line2d_25">
      <path d="M 41.055938 123.209924 
L 991.515938 123.209924 
" clip-path="url(#pc641120ab4)" style="fill: none; stroke-dasharray: 2.96,1.28; stroke-dashoffset: 0; stroke: #cccccc; stroke-opacity: 0.3; stroke-width: 0.8"/>
     </g>
     <g id="line2d_26"/>
     <g id="text_14">
      <text style="font-size: 10px; font-family: 'Arial', 'DejaVu Sans', 'Helvetica', sans-serif; text-anchor: end; fill: #262626" x="37.555938" y="127.009142" transform="rotate(-0 37.555938 127.009142)">4</text>
     </g>
    </g>
    <g id="ytick_5">
     <g id="line2d_27">
      <path d="M 41.055938 65.564997 
L 991.515938 65.564997 
" clip-path="url(#pc641120ab4)" style="fill: none; stroke-dasharray: 2.96,1.28; stroke-dashoffset: 0; stroke: #cccccc; stroke-opacity: 0.3; stroke-width: 0.8"/>
     </g>
     <g id="line2d_28"/>
     <g id="text_15">
      <text style="font-size: 10px; font-family: 'Arial', 'DejaVu Sans', 'Helvetica', sans-serif; text-anchor: end; fill: #262626" x="37.555938" y="69.364216" transform="rotate(-0 37.555938 69.364216)">6</text>
     </g>
    </g>
    <g id="text_16">
     <text style="font-size: 12px; font-family: 'Arial', 'DejaVu Sans', 'Helvetica', sans-serif; text-anchor: middle; fill: #262626" x="16.318125" y="169.367812" transform="rotate(-90 16.318125 169.367812)">Mean Attention Weight (Logits)</text>
    </g>
   </g>
   <g id="FillBetweenPolyCollection_1">
    <defs>
     <path id="ma9ecae046f" d="M 84.258665 -239.747574 
L 84.258665 -109.252036 
L 127.461392 -107.769945 
L 170.664119 -85.15447 
L 213.866847 -52.40418 
L 257.069574 -49.221875 
L 300.272301 -75.653455 
L 343.475028 -95.106369 
L 386.677756 -99.090907 
L 429.880483 -92.827321 
L 473.08321 -74.474666 
L 516.285938 -65.894202 
L 559.488665 -82.698709 
L 602.691392 -101.412074 
L 645.894119 -108.406693 
L 689.096847 -97.654205 
L 732.299574 -75.779576 
L 775.502301 -88.656682 
L 818.705028 -118.924729 
L 861.907756 -123.783537 
L 905.110483 -120.513953 
L 948.31321 -116.367792 
L 948.31321 -294.155083 
L 948.31321 -294.155083 
L 905.110483 -313.821875 
L 861.907756 -270.767907 
L 818.705028 -178.597932 
L 775.502301 -150.185166 
L 732.299574 -149.758628 
L 689.096847 -156.771572 
L 645.894119 -172.187394 
L 602.691392 -175.613076 
L 559.488665 -167.804407 
L 516.285938 -162.854093 
L 473.08321 -165.708958 
L 429.880483 -186.088489 
L 386.677756 -208.872511 
L 343.475028 -204.198113 
L 300.272301 -185.797732 
L 257.069574 -177.971345 
L 213.866847 -182.932721 
L 170.664119 -203.504711 
L 127.461392 -231.941002 
L 84.258665 -239.747574 
z
" style="stroke: #414487; stroke-opacity: 0.2"/>
    </defs>
    <g clip-path="url(#pc641120ab4)">
     <use xlink:href="#ma9ecae046f" x="0" y="350.889687" style="fill: #414487; fill-opacity: 0.2; stroke: #414487; stroke-opacity: 0.2"/>
    </g>
   </g>
   <g id="FillBetweenPolyCollection_2">
    <defs>
     <path id="m4a0bd5d80c" d="M 84.258665 -192.115451 
L 84.258665 -118.306769 
L 127.461392 -117.082558 
L 170.664119 -114.593654 
L 213.866847 -107.775094 
L 257.069574 -107.014811 
L 300.272301 -108.975678 
L 343.475028 -101.699361 
L 386.677756 -99.409804 
L 429.880483 -99.523209 
L 473.08321 -96.685387 
L 516.285938 -94.734991 
L 559.488665 -95.456546 
L 602.691392 -94.073895 
L 645.894119 -95.367203 
L 689.096847 -97.009502 
L 732.299574 -92.092594 
L 775.502301 -89.606307 
L 818.705028 -90.310453 
L 861.907756 -127.194308 
L 905.110483 -124.259152 
L 948.31321 -123.164842 
L 948.31321 -245.714563 
L 948.31321 -245.714563 
L 905.110483 -253.202979 
L 861.907756 -242.418676 
L 818.705028 -164.442577 
L 775.502301 -152.186828 
L 732.299574 -151.976541 
L 689.096847 -161.168268 
L 645.894119 -165.608116 
L 602.691392 -167.410508 
L 559.488665 -167.187741 
L 516.285938 -163.305722 
L 473.08321 -165.852977 
L 429.880483 -172.356141 
L 386.677756 -174.069376 
L 343.475028 -173.627396 
L 300.272301 -169.291812 
L 257.069574 -163.147997 
L 213.866847 -164.492435 
L 170.664119 -177.624266 
L 127.461392 -189.172254 
L 84.258665 -192.115451 
z
" style="stroke: #7ad151; stroke-opacity: 0.2"/>
    </defs>
    <g clip-path="url(#pc641120ab4)">
     <use xlink:href="#m4a0bd5d80c" x="0" y="350.889687" style="fill: #7ad151; fill-opacity: 0.2; stroke: #7ad151; stroke-opacity: 0.2"/>
    </g>
   </g>
   <g id="line2d_29">
    <path d="M 84.258665 176.389883 
L 127.461392 181.034214 
L 170.664119 206.560097 
L 213.866847 233.221237 
L 257.069574 237.293077 
L 300.272301 220.164094 
L 343.475028 201.237446 
L 386.677756 196.907979 
L 429.880483 211.431782 
L 473.08321 230.797876 
L 516.285938 236.51554 
L 559.488665 225.638129 
L 602.691392 212.377112 
L 645.894119 210.592644 
L 689.096847 223.676799 
L 732.299574 238.120586 
L 775.502301 231.468764 
L 818.705028 202.128357 
L 861.907756 153.613966 
L 905.110483 133.721773 
L 948.31321 145.62825 
" clip-path="url(#pc641120ab4)" style="fill: none; stroke: #414487; stroke-opacity: 0.9; stroke-width: 2; stroke-linecap: round"/>
    <defs>
     <path id="mc432168db6" d="M 0 2.5 
C 0.663008 2.5 1.29895 2.236584 1.767767 1.767767 
C 2.236584 1.29895 2.5 0.663008 2.5 0 
C 2.5 -0.663008 2.236584 -1.29895 1.767767 -1.767767 
C 1.29895 -2.236584 0.663008 -2.5 0 -2.5 
C -0.663008 -2.5 -1.29895 -2.236584 -1.767767 -1.767767 
C -2.236584 -1.29895 -2.5 -0.663008 -2.5 0 
C -2.5 0.663008 -2.236584 1.29895 -1.767767 1.767767 
C -1.29895 2.236584 -0.663008 2.5 0 2.5 
z
" style="stroke: #414487; stroke-opacity: 0.9"/>
    </defs>
    <g clip-path="url(#pc641120ab4)">
     <use xlink:href="#mc432168db6" x="84.258665" y="176.389883" style="fill: #414487; fill-opacity: 0.9; stroke: #414487; stroke-opacity: 0.9"/>
     <use xlink:href="#mc432168db6" x="127.461392" y="181.034214" style="fill: #414487; fill-opacity: 0.9; stroke: #414487; stroke-opacity: 0.9"/>
     <use xlink:href="#mc432168db6" x="170.664119" y="206.560097" style="fill: #414487; fill-opacity: 0.9; stroke: #414487; stroke-opacity: 0.9"/>
     <use xlink:href="#mc432168db6" x="213.866847" y="233.221237" style="fill: #414487; fill-opacity: 0.9; stroke: #414487; stroke-opacity: 0.9"/>
     <use xlink:href="#mc432168db6" x="257.069574" y="237.293077" style="fill: #414487; fill-opacity: 0.9; stroke: #414487; stroke-opacity: 0.9"/>
     <use xlink:href="#mc432168db6" x="300.272301" y="220.164094" style="fill: #414487; fill-opacity: 0.9; stroke: #414487; stroke-opacity: 0.9"/>
     <use xlink:href="#mc432168db6" x="343.475028" y="201.237446" style="fill: #414487; fill-opacity: 0.9; stroke: #414487; stroke-opacity: 0.9"/>
     <use xlink:href="#mc432168db6" x="386.677756" y="196.907979" style="fill: #414487; fill-opacity: 0.9; stroke: #414487; stroke-opacity: 0.9"/>
     <use xlink:href="#mc432168db6" x="429.880483" y="211.431782" style="fill: #414487; fill-opacity: 0.9; stroke: #414487; stroke-opacity: 0.9"/>
     <use xlink:href="#mc432168db6" x="473.08321" y="230.797876" style="fill: #414487; fill-opacity: 0.9; stroke: #414487; stroke-opacity: 0.9"/>
     <use xlink:href="#mc432168db6" x="516.285938" y="236.51554" style="fill: #414487; fill-opacity: 0.9; stroke: #414487; stroke-opacity: 0.9"/>
     <use xlink:href="#mc432168db6" x="559.488665" y="225.638129" style="fill: #414487; fill-opacity: 0.9; stroke: #414487; stroke-opacity: 0.9"/>
     <use xlink:href="#mc432168db6" x="602.691392" y="212.377112" style="fill: #414487; fill-opacity: 0.9; stroke: #414487; stroke-opacity: 0.9"/>
     <use xlink:href="#mc432168db6" x="645.894119" y="210.592644" style="fill: #414487; fill-opacity: 0.9; stroke: #414487; stroke-opacity: 0.9"/>
     <use xlink:href="#mc432168db6" x="689.096847" y="223.676799" style="fill: #414487; fill-opacity: 0.9; stroke: #414487; stroke-opacity: 0.9"/>
     <use xlink:href="#mc432168db6" x="732.299574" y="238.120586" style="fill: #414487; fill-opacity: 0.9; stroke: #414487; stroke-opacity: 0.9"/>
     <use xlink:href="#mc432168db6" x="775.502301" y="231.468764" style="fill: #414487; fill-opacity: 0.9; stroke: #414487; stroke-opacity: 0.9"/>
     <use xlink:href="#mc432168db6" x="818.705028" y="202.128357" style="fill: #414487; fill-opacity: 0.9; stroke: #414487; stroke-opacity: 0.9"/>
     <use xlink:href="#mc432168db6" x="861.907756" y="153.613966" style="fill: #414487; fill-opacity: 0.9; stroke: #414487; stroke-opacity: 0.9"/>
     <use xlink:href="#mc432168db6" x="905.110483" y="133.721773" style="fill: #414487; fill-opacity: 0.9; stroke: #414487; stroke-opacity: 0.9"/>
     <use xlink:href="#mc432168db6" x="948.31321" y="145.62825" style="fill: #414487; fill-opacity: 0.9; stroke: #414487; stroke-opacity: 0.9"/>
    </g>
   </g>
   <g id="line2d_30">
    <path d="M 84.258665 195.678577 
L 127.461392 197.762281 
L 170.664119 204.780727 
L 213.866847 214.755923 
L 257.069574 215.808284 
L 300.272301 211.755942 
L 343.475028 213.226309 
L 386.677756 214.150097 
L 429.880483 214.950013 
L 473.08321 219.620506 
L 516.285938 221.869331 
L 559.488665 219.567544 
L 602.691392 220.147486 
L 645.894119 220.402028 
L 689.096847 221.800802 
L 732.299574 228.85512 
L 775.502301 229.99312 
L 818.705028 223.513172 
L 861.907756 166.083195 
L 905.110483 162.158622 
L 948.31321 166.449985 
" clip-path="url(#pc641120ab4)" style="fill: none; stroke: #7ad151; stroke-opacity: 0.9; stroke-width: 2; stroke-linecap: round"/>
    <defs>
     <path id="md0c2d3e8ec" d="M 0 2.5 
C 0.663008 2.5 1.29895 2.236584 1.767767 1.767767 
C 2.236584 1.29895 2.5 0.663008 2.5 0 
C 2.5 -0.663008 2.236584 -1.29895 1.767767 -1.767767 
C 1.29895 -2.236584 0.663008 -2.5 0 -2.5 
C -0.663008 -2.5 -1.29895 -2.236584 -1.767767 -1.767767 
C -2.236584 -1.29895 -2.5 -0.663008 -2.5 0 
C -2.5 0.663008 -2.236584 1.29895 -1.767767 1.767767 
C -1.29895 2.236584 -0.663008 2.5 0 2.5 
z
" style="stroke: #7ad151; stroke-opacity: 0.9"/>
    </defs>
    <g clip-path="url(#pc641120ab4)">
     <use xlink:href="#md0c2d3e8ec" x="84.258665" y="195.678577" style="fill: #7ad151; fill-opacity: 0.9; stroke: #7ad151; stroke-opacity: 0.9"/>
     <use xlink:href="#md0c2d3e8ec" x="127.461392" y="197.762281" style="fill: #7ad151; fill-opacity: 0.9; stroke: #7ad151; stroke-opacity: 0.9"/>
     <use xlink:href="#md0c2d3e8ec" x="170.664119" y="204.780727" style="fill: #7ad151; fill-opacity: 0.9; stroke: #7ad151; stroke-opacity: 0.9"/>
     <use xlink:href="#md0c2d3e8ec" x="213.866847" y="214.755923" style="fill: #7ad151; fill-opacity: 0.9; stroke: #7ad151; stroke-opacity: 0.9"/>
     <use xlink:href="#md0c2d3e8ec" x="257.069574" y="215.808284" style="fill: #7ad151; fill-opacity: 0.9; stroke: #7ad151; stroke-opacity: 0.9"/>
     <use xlink:href="#md0c2d3e8ec" x="300.272301" y="211.755942" style="fill: #7ad151; fill-opacity: 0.9; stroke: #7ad151; stroke-opacity: 0.9"/>
     <use xlink:href="#md0c2d3e8ec" x="343.475028" y="213.226309" style="fill: #7ad151; fill-opacity: 0.9; stroke: #7ad151; stroke-opacity: 0.9"/>
     <use xlink:href="#md0c2d3e8ec" x="386.677756" y="214.150097" style="fill: #7ad151; fill-opacity: 0.9; stroke: #7ad151; stroke-opacity: 0.9"/>
     <use xlink:href="#md0c2d3e8ec" x="429.880483" y="214.950013" style="fill: #7ad151; fill-opacity: 0.9; stroke: #7ad151; stroke-opacity: 0.9"/>
     <use xlink:href="#md0c2d3e8ec" x="473.08321" y="219.620506" style="fill: #7ad151; fill-opacity: 0.9; stroke: #7ad151; stroke-opacity: 0.9"/>
     <use xlink:href="#md0c2d3e8ec" x="516.285938" y="221.869331" style="fill: #7ad151; fill-opacity: 0.9; stroke: #7ad151; stroke-opacity: 0.9"/>
     <use xlink:href="#md0c2d3e8ec" x="559.488665" y="219.567544" style="fill: #7ad151; fill-opacity: 0.9; stroke: #7ad151; stroke-opacity: 0.9"/>
     <use xlink:href="#md0c2d3e8ec" x="602.691392" y="220.147486" style="fill: #7ad151; fill-opacity: 0.9; stroke: #7ad151; stroke-opacity: 0.9"/>
     <use xlink:href="#md0c2d3e8ec" x="645.894119" y="220.402028" style="fill: #7ad151; fill-opacity: 0.9; stroke: #7ad151; stroke-opacity: 0.9"/>
     <use xlink:href="#md0c2d3e8ec" x="689.096847" y="221.800802" style="fill: #7ad151; fill-opacity: 0.9; stroke: #7ad151; stroke-opacity: 0.9"/>
     <use xlink:href="#md0c2d3e8ec" x="732.299574" y="228.85512" style="fill: #7ad151; fill-opacity: 0.9; stroke: #7ad151; stroke-opacity: 0.9"/>
     <use xlink:href="#md0c2d3e8ec" x="775.502301" y="229.99312" style="fill: #7ad151; fill-opacity: 0.9; stroke: #7ad151; stroke-opacity: 0.9"/>
     <use xlink:href="#md0c2d3e8ec" x="818.705028" y="223.513172" style="fill: #7ad151; fill-opacity: 0.9; stroke: #7ad151; stroke-opacity: 0.9"/>
     <use xlink:href="#md0c2d3e8ec" x="861.907756" y="166.083195" style="fill: #7ad151; fill-opacity: 0.9; stroke: #7ad151; stroke-opacity: 0.9"/>
     <use xlink:href="#md0c2d3e8ec" x="905.110483" y="162.158622" style="fill: #7ad151; fill-opacity: 0.9; stroke: #7ad151; stroke-opacity: 0.9"/>
     <use xlink:href="#md0c2d3e8ec" x="948.31321" y="166.449985" style="fill: #7ad151; fill-opacity: 0.9; stroke: #7ad151; stroke-opacity: 0.9"/>
    </g>
   </g>
   <g id="patch_3">
    <path d="M 41.055938 314.897812 
L 41.055938 23.837812 
" style="fill: none; stroke: #cccccc; stroke-linejoin: miter; stroke-linecap: square"/>
   </g>
   <g id="patch_4">
    <path d="M 991.515938 314.897812 
L 991.515938 23.837812 
" style="fill: none; stroke: #cccccc; stroke-linejoin: miter; stroke-linecap: square"/>
   </g>
   <g id="patch_5">
    <path d="M 41.055938 314.897812 
L 991.515938 314.897812 
" style="fill: none; stroke: #cccccc; stroke-linejoin: miter; stroke-linecap: square"/>
   </g>
   <g id="patch_6">
    <path d="M 41.055938 23.837812 
L 991.515938 23.837812 
" style="fill: none; stroke: #cccccc; stroke-linejoin: miter; stroke-linecap: square"/>
   </g>
   <g id="text_17">
    <text style="font-weight: 700; font-size: 14px; font-family: 'Arial', 'DejaVu Sans', 'Helvetica', sans-serif; text-anchor: middle; fill: #262626" x="516.285938" y="17.837812" transform="rotate(-0 516.285938 17.837812)">Cross-Layer Head-Averaged Attention Distribution</text>
   </g>
   <g id="legend_1">
    <g id="line2d_31">
     <path d="M 50.055938 36.93625 
L 60.055938 36.93625 
L 70.055937 36.93625 
" style="fill: none; stroke: #414487; stroke-opacity: 0.9; stroke-width: 2; stroke-linecap: round"/>
     <g>
      <use xlink:href="#mc432168db6" x="60.055938" y="36.93625" style="fill: #414487; fill-opacity: 0.9; stroke: #414487; stroke-opacity: 0.9"/>
     </g>
    </g>
    <g id="text_18">
     <text style="font-size: 10px; font-family: 'Arial', 'DejaVu Sans', 'Helvetica', sans-serif; text-anchor: start; fill: #262626" x="78.055937" y="40.43625" transform="rotate(-0 78.055937 40.43625)">Layer 1</text>
    </g>
    <g id="line2d_32">
     <path d="M 50.055938 51.614375 
L 60.055938 51.614375 
L 70.055937 51.614375 
" style="fill: none; stroke: #7ad151; stroke-opacity: 0.9; stroke-width: 2; stroke-linecap: round"/>
     <g>
      <use xlink:href="#md0c2d3e8ec" x="60.055938" y="51.614375" style="fill: #7ad151; fill-opacity: 0.9; stroke: #7ad151; stroke-opacity: 0.9"/>
     </g>
    </g>
    <g id="text_19">
     <text style="font-size: 10px; font-family: 'Arial', 'DejaVu Sans', 'Helvetica', sans-serif; text-anchor: start; fill: #262626" x="78.055937" y="55.114375" transform="rotate(-0 78.055937 55.114375)">Layer 5</text>
    </g>
   </g>
  </g>
 </g>
 <defs>
  <clipPath id="pc641120ab4">
   <rect x="41.055938" y="23.837812" width="950.46" height="291.06"/>
  </clipPath>
 </defs>
</svg>
